<?xml version="1.0" encoding="UTF-8" standalone="no"?>
<!-- Generator: Adobe Illustrator 21.1.0, SVG Export Plug-In . SVG Version: 6.00 Build 0)  -->

<svg
   xmlns:dc="http://purl.org/dc/elements/1.1/"
   xmlns:cc="http://creativecommons.org/ns#"
   xmlns:rdf="http://www.w3.org/1999/02/22-rdf-syntax-ns#"
   xmlns:svg="http://www.w3.org/2000/svg"
   xmlns="http://www.w3.org/2000/svg"
   xmlns:sodipodi="http://sodipodi.sourceforge.net/DTD/sodipodi-0.dtd"
   xmlns:inkscape="http://www.inkscape.org/namespaces/inkscape"
   version="1.1"
   id="Layer_1"
   x="0px"
   y="0px"
   viewBox="0 0 85 85"
   style="enable-background:new 0 0 841.89999999999986358 595.29999999999995453"
   xml:space="preserve"
   sodipodi:docname="Logo.svg"
   inkscape:version="0.92.4 (5da689c313, 2019-01-14)"><metadata
   id="metadata149"><rdf:RDF><cc:Work
       rdf:about=""><dc:format>image/svg+xml</dc:format><dc:type
         rdf:resource="http://purl.org/dc/dcmitype/StillImage" /></cc:Work></rdf:RDF></metadata><defs
   id="defs147" /><sodipodi:namedview
   pagecolor="#ffeca4"
   bordercolor="#666666"
   borderopacity="1"
   objecttolerance="10"
   gridtolerance="10"
   guidetolerance="10"
   inkscape:pageopacity="0"
   inkscape:pageshadow="2"
   inkscape:window-width="2560"
   inkscape:window-height="1537"
   id="namedview145"
   showgrid="false"
   inkscape:zoom="8.9703855"
   inkscape:cx="89.490355"
   inkscape:cy="26.003741"
   inkscape:window-x="1672"
   inkscape:window-y="-8"
   inkscape:window-maximized="1"
   inkscape:current-layer="Layer_1" />
<style
   type="text/css"
   id="style2">
	.st0{fill-rule:evenodd;clip-rule:evenodd;}
</style>
<path
   class="st0"
   d="m 38.620104,6.1178794 c 5.6,-5.20000002 10.7,2.5 15.5,-1.9 2.7,2.5 3.3,5.2 3.9,9.7000006 -3.1,3.7 -12.5,-4.8000006 -15.5,2.1 z"
   id="path4"
   style="clip-rule:evenodd;fill:#4e1d00;fill-rule:evenodd"
   inkscape:connector-curvature="0" />





















<path
   class="st0"
   d="m 52.020104,29.61788 -0.2,-0.2 h -32.8 l 0.1,0.2 c 3.1,5.3 9.2,18.3 0.3,35.8 h 1.9 c 7.2,-13.8 6.2,-26.2 1.6,-33.8 0,0 27,0 27,0 7.3,8.4 4.2,19.4 1.7,27 h 2 c 3.7,-10 7.6,-18.5 -1.6,-29 z"
   id="path140"
   style="clip-rule:evenodd;fill:#4e1d00;fill-rule:evenodd"
   inkscape:connector-curvature="0" />
<path
   class="st0"
   d="m 60.220104,18.11788 c -11.2,0 -21.7,0 -32.8,0 2.5,2.8 3.4,6.4 3.8,9 h 1.9 c -0.1,-1.3 -0.2,-4.4 -1.5,-6.7 h 27.1 c 11.3,17.7 3.2,30.8 -2.4,45 h -3.8 c -0.1,-6.4 -8,-9.3 -8.6,-18.8 0,0 -0.3,-2.8 1.6,-6 h -2.1 c -1.3,2.3 -1.3,5.6 -1.3,5.8 0.5,11.8 7.1,13.2 7.4,19 h -2.8 c -0.7,-5.4 -6.3,-8.9 -6.4,-19 0,-0.1 0,-3 0.9,-5.8 h -2.1 c -0.4,2.5 -0.5,5.6 -0.5,5.8 -0.2,10.7 4.7,14.2 5.3,19 h -3 c -0.1,-5.2 -4.1,-8.8 -3.9,-18.9 0,-0.1 0,-3.9 -0.1,-5.8 h -1.8 c 0,1.3 0,5.6 0,5.8 -0.3,11.9 3,15 3.1,19 h -5 v -24.8 h -2 v 24.8 h -0.1 c -18.3,0 -12.1,12.3 0.1,15.7 7.1,-6.1 19.9,-6.4 21.2,-13.4 0,0 0,0 0,0 h 4.1 1.7 c 10,-19.4 14.5,-35 2,-49.7 z m -27,49.5 h 4.8 c -0.7,1.5 -2.7,3.8 -4.8,5.6 z m -2.1,12.4 c -8.9,-5 -11.4,-12.4 0,-12.3 v 9 c 0.1,-0.1 2,-1.8 2,-1.8 4.2,-3.3 6.9,-4.7 7.6,-7.1 h 3.1 c -1.1,3.6 -9,6 -12.7,10.1 v 1.2 c 6.4,-5.8 14.4,-6.1 15.5,-11.2 h 2.8 c -1.5,5.4 -13.8,7.3 -18.3,12.1 z"
   id="path142"
   style="clip-rule:evenodd;fill:#4e1d00;fill-rule:evenodd"
   inkscape:connector-curvature="0" />
</svg>