<svg version="1.1" viewBox="1 -24 659 152" xmlns="http://www.w3.org/2000/svg" xmlns:rigging="https://github.com/jolaf/rigging" xmlns:xlink="http://www.w3.org/1999/xlink">
  <style>/*<![CDATA[ */
    #background {
      fill: #ffeca4;
    }
    #drawing, #wood {
      color: #aa5f28;
    }
    #wood {
      opacity: 0.5;
    }
    /* ]]>*/</style>
  <defs>
    <rect id="deckMask" x="277.27" y="-.80917" width="220.71" height="146.64" fill="currentColor"/>
    <g id="mastMask" stroke="currentColor">
      <path d="m425.11 59.525 26.5 26.5z"/>
      <path d="m451.61 59.525-26.5 26.5z"/>
    </g>
    <circle id="pipe" cx="160.87" cy="398.09" r="4" stroke="currentColor"/>
    <circle id="pin" class="aura" transform="rotate(-8.2973)" cx="567.54" cy="28.152" r="1.8" fill="currentColor"/>
    <circle id="pinhole" transform="rotate(-8.2973)" cx="607.21" cy="138.78" r="1.5" fill="none" stroke="currentColor"/>
    <ellipse id="cleat" class="aura" transform="rotate(89.51)" cx="3.7214" cy="-575.37" rx="1.6" ry="5.4" fill="currentColor"/>
    <rect id="lcleat" class="aura" x="396.5" y="72.319" width="4" height="15" ry="1.5" fill="currentColor"/>
    <path id="quaterXcleat" class="aura" d="m42.185 13.735s-0.02581-2.0385-2e-3 -2.9049c0.15922-0.41516 0.28958-0.64665 0.30224-0.94611 0.03217-0.76088-0.40671-1.1909-0.4667-2.1167-0.05275-0.81402 0.28972-0.93379 1.8718-0.92558v6.8933z" fill="currentColor"/>
    <g id="xcleat" class="aura" fill="currentColor">
      <use xlink:href="#quaterXcleat"/>
      <use transform="matrix(-1,0,0,1,87.75,0)" xlink:href="#quaterXcleat"/>
      <use transform="matrix(1,0,0,-1,0,27.45)" xlink:href="#quaterXcleat"/>
      <use transform="rotate(180,43.875,13.725)" xlink:href="#quaterXcleat"/>
    </g>
    <g id="halfKevel" transform="translate(.80615 -4.0308)">
      <path d="m427.52 40.223v11.347l-5.6418-11.308z" fill-opacity="0"/>
      <path d="m425.75 48.483c0.60532 1.2006 1.0806 2.3051 1.8189 2.3986-0.01 0.73499 0.0152 2.7494 0 3.8964-1.2974 0.16392-6.5021-8.2816-9.7365-11.618-0.7397-0.76292-0.81818-0.71678-2.4328-1.725-0.22169-0.13843-0.60743-1.1367 0.14216-1.1532 2.1213-0.04671 4.9257 0.03738 7.0992 0.0075 1.5602-0.02145 0.44012 1.9106 0.42506 2.1683" fill="currentColor"/>
    </g>
    <g id="kevel" class="aura">
      <use xlink:href="#halfKevel"/>
      <use transform="matrix(-1 0 0 1 856.74 0)" width="100%" height="100%" xlink:href="#halfKevel"/>
    </g>
    <rect id="fist" class="aura" x="287.16" y="40.706" width="8" height="8" rx=".8" ry=".8" fill="currentColor"/>
    <g id="tackle" class="aura" transform="matrix(-1 0 0 1 657.06 84.968)" fill="currentColor">
      <path d="m23.142 44.848-0.91797 0.39648 3.9766 9.2188 0.91797-0.39648z"/>
      <path d="m25.478 43.901-0.91797 0.39648 3.9766 9.2188 0.91992-0.39648z"/>
      <ellipse transform="rotate(-18.749 -1131.9 -71.94)" cx="-74.057" cy="420.37" rx="4.1037" ry="2.5569"/>
    </g>
    <g id="knot" class="aura" transform="translate(380.03 -105.31)" fill="currentColor">
      <g fill-opacity="0">
        <rect x="282.18" y="457.8" width="11.369" height="3.7479"/>
        <rect x="290.85" y="454.44" width="3.1233" height="7.121"/>
        <rect x="293.16" y="455.19" width="1.8115" height="6.9961"/>
      </g>
      <path d="m298.66 454.68c-2.0126 0.24643-5.8785 0.81783-9.4824 1.4785-1.8019 0.33034-3.5374 0.68222-4.9453 1.0293-1.408 0.34708-2.4464 0.64439-3.0527 1.043l-0.0176 0.0117-0.0156 0.0137c-0.47901 0.37491-0.88014 0.79272-1.043 1.3359-0.16283 0.54322 0.01 1.1768 0.48242 1.6738l0.0312 0.0332 0.0351 0.0254c0.21977 0.16251 0.39771 0.17817 0.58789 0.20508 0.19019 0.0269 0.38629 0.0348 0.57032 0.0371 0.36805 5e-3 0.6914-0.0195 0.6914-0.0195l-0.0762-0.99805s-0.28768 0.0216-0.60351 0.0176c-0.15792-2e-3 -0.31985-0.0101-0.44141-0.0273-0.0811-0.0115-0.0773-0.012-0.0898-0.0137-0.24094-0.2742-0.29091-0.44485-0.23047-0.64648 0.0641-0.2137 0.3072-0.51589 0.6875-0.81836 0.3061-0.19658 1.3591-0.56379 2.7246-0.90039 1.3752-0.33899 3.095-0.68946 4.8848-1.0176 3.5796-0.65624 7.4432-1.2282 9.4238-1.4707z"/>
      <path d="m292.39 453.41c-0.46509-0.022-0.92295 0.066-1.3106 0.22851-0.40755 0.17088-0.68629 0.49895-0.80859 0.81055-0.1223 0.31159-0.15092 0.58458-0.23437 0.86523-0.14369 0.48323-0.0876 1.0072-0.01 1.543 0.0778 0.53578 0.19998 1.0647 0.28516 1.4277 0.16994 0.72433 0.28532 1.1484 0.66015 1.7578 0.0236 0.0383 0.0704 0.0672 0.0957 0.10547-0.20945 0.13235-0.6875 0.46875-0.6875 0.46875l0.52148 0.85351s0.57327-0.40648 0.84961-0.58008c0.3024 0.32442 0.56344 0.68756 0.87305 0.94727 0.65215 0.54703 1.8476 1.1914 1.8476 1.1914l0.48242-0.87696s-1.221-0.68881-1.6875-1.0801c-0.25554-0.21436-0.44213-0.48483-0.6914-0.7461 0.43363-0.29297 0.65537-0.39377 0.97851-0.66797 0.49637-0.42118 1.1259-0.912 1.4746-1.5684 0.28882-0.54362 0.4602-1.0894 0.36914-1.7539-0.0608-0.44416-0.29066-0.87877-0.58593-1.3301-0.29528-0.45131-0.64837-0.88321-1.0684-1.1641-0.41548-0.27784-0.88843-0.40965-1.3535-0.43164zm-0.92383 1.1504c0.44802-0.18784 1.2754-0.18645 1.7207 0.11133 0.21812 0.14586 0.54414 0.5065 0.78906 0.88085 0.24492 0.37436 0.41526 0.79836 0.43164 0.91797 0.0634 0.46304-0.0109 0.67821-0.26172 1.1504-0.19097 0.35945-0.73783 0.84714-1.2402 1.2734-0.2885 0.2448-0.5628 0.39049-1.0156 0.69336-0.0143-0.0217-0.0514-0.0472-0.0644-0.0684-0.32309-0.5253-0.37037-0.74386-0.53906-1.4629-0.0842-0.35865-0.19978-0.86355-0.26954-1.3438-0.0697-0.4802-0.0712-0.95252-0.0234-1.1133 0.10803-0.36333 0.15325-0.64316 0.20898-0.78516 0.0557-0.14199 0.0596-0.16835 0.26367-0.2539z"/>
      <circle cx="283.88" cy="461.04" r=".42616"/>
      <circle cx="285.23" cy="461.01" r=".42616"/>
      <circle cx="286.57" cy="461.03" r=".42616"/>
      <circle cx="287.85" cy="461.03" r=".42616"/>
      <circle cx="289.14" cy="461.04" r=".42616"/>
    </g>
  </defs>
  <g id="background" fill="#ffeca4">
    <rect x="-20" y="-140" width="720" height="370"/>
  </g>
  <g id="drawing" color="#aa5f28" fill="none" stroke="currentColor">
    <g id="portDrawing">
      <path d="m5.599 9.7877c154.59-24.72 342.25-37.19 495.89-25.536m135.53 8.9625c8.1877 0.64014 12.488 2.5495 19.468 7.2707" stroke-linecap="round"/>
      <path class="rail" d="m499-15.916 138.01 9.1301-0.0819 7.9029-137.97-9.4342s0.0436-7.5988 0.0436-7.5988" stroke-linejoin="round"/>
      <rect class="rail" transform="matrix(.99798 .063452 -.063107 .99801 -36.919 -388.23)" x="614.66" y="330.18" width="57.042" height="5.6153" fill-rule="evenodd" stroke-linecap="round" stroke-linejoin="round" stroke-miterlimit="0" stroke-width="1.0016"/>
      <rect class="solid" x="545.68" y="23.952" width="7.8952" height="8.0121" stroke-linejoin="round"/>
      <path class="rail" d="m498.97 42.996 0.0131-31.846 8.2065 0.0488-0.0723 31.797" stroke-linejoin="round"/>
      <path class="solid" d="m474.81-17.515-0.083 27.074 24.254 1.5901 0.0232-27.065z" fill-rule="evenodd" stroke-linecap="round" stroke-linejoin="round" stroke-width="1.0016"/>
      <path d="m491.03 11.003v-27.13"/>
      <path d="m482.41 10.058 6e-3 -26.716"/>
      <rect class="solid" x="363.75" y="15.795" width="8.109" height="8.109" stroke-linejoin="round"/>
      <rect class="rail" x="294.88" y="15.715" width="77.184" height="8.3484" stroke-linejoin="round"/>
      <path class="rail" d="m281-12.863 50.101-2.0446s0.26193 6.643 0.26193 6.643l-50.107 1.9066s-0.25648-6.505-0.25648-6.505" stroke-linecap="round" stroke-linejoin="round"/>
      <g stroke-linejoin="round">
        <path class="solid" d="m269.03-17.595s0.25254 33.082 0.25254 33.082c2.4412 1.3062 4.8824 1.2613 7.3236-0.12627v-33.335"/>
        <path class="solid" d="m242.14 16.75c11.722 2.0062 20.363-0.06212 27.109-4.3482l-0.21376-29.641-26.895 1.3339z"/>
        <path d="m242.15 14.372c12.578-3.0013 19.671-7.0062 26.788-13.682" stroke-linecap="round" stroke-width="1.0016"/>
        <path d="m242.14 10.516c16.006-5.9455 25.097-19.221 26.516-28.111"/>
        <path d="m242.07 4.7786c11.483-8.9948 11.331-15.34 12.443-21.742"/>
      </g>
      <use x="71.490639" y="-404.83417" width="100%" height="100%" xlink:href="#pipe"/>
      <use x="24.224396" y="-401.34555" width="100%" height="100%" xlink:href="#pipe"/>
      <rect class="rail" transform="rotate(-5.4351)" x="138.67" y="5.7118" width="27.593" height="6.1536" stroke-linejoin="round" stroke-width="1.0016"/>
      <rect class="rail" transform="matrix(.99305 -.11767 .15968 .98717 -36.919 -388.23)" x="58.768" y="391.19" width="42.94" height="5.5987" ry="0" stroke-linejoin="round"/>
      <use x="-45.537228" y="-394.54617" width="100%" height="100%" xlink:href="#pipe"/>
      <path class="solid" d="m5.5297-13.119c42.219-0.25692 53.735 1.9257 70.882 12.665l-70.813 10.242z" fill-rule="evenodd" stroke-linejoin="round" stroke-width="1.0016"/>
    </g>
    <use id="starboardDrawing" transform="matrix(1 0 0 -1 0 104.38)" width="100%" height="100%" xlink:href="#portDrawing"/>
    <path class="rail" d="m645.62-5.1508c-3.8756-1.1596-8.6045-1.6351-8.6045-1.6351-0.16012 38.87 0.11539 82.335 0.17643 117.9 0 0 3.8874-0.46149 8.4244-1.5642-0.182-8.5553 0.0775-111.18 4e-3 -114.71h-2.6e-4"/>
    <path class="rail" d="m603.73 15.378h7.9082l-0.21655 73.963h-7.7999l0.10827-73.963" stroke-linecap="round" stroke-linejoin="round"/>
    <circle class="solid" cx="578.36" cy="52.238" r="14.805"/>
    <path class="rail" d="m545.59 15.428h8.0469v73.736l-7.9554-0.0915-0.0915-73.645" stroke-linecap="round" stroke-linejoin="round" stroke-width="1.0016"/>
    <path class="solid" d="m507.13 61.323c1.3044-2.8755 1.9792-5.9965 1.9792-9.1637 1e-5 -3.1672-0.0132-6.2684-1.9886-9.1637h-8.1378c1.3044 2.8755 1.9792 5.9965 1.9792 9.1637 0 3.1672-0.67479 6.2883-1.9792 9.1637l8.1472-3e-5" stroke-linecap="round" stroke-linejoin="round" stroke-width="1.0016"/>
    <circle class="solid " cx="333.48" cy="52.238" r="14.805"/>
    <path class="rail" d="m302.86 88.464h-8.0747v-72.72h8.0747v72.72" stroke-linejoin="round" stroke-width="1.0016"/>
    <path class="solid" d="m242.09 16.839-8.3059 0.0691c-4e-3 16.806 0.062 53.776 0.0582 70.582h8.1678c4e-3 -16.806 0.0761-53.845 0.0799-70.651v-5e-5" stroke-linejoin="round"/>
    <circle class="solid" cx="137.48" cy="52.238" r="14.805"/>
    <rect class="solid" x="87.298" y="33.13" width="3.0405" height="38.031" stroke-linejoin="round"/>
    <rect class="solid" x="78.789" y="47.072" width="8.4818" height="9.9488"/>
    <path class="solid" d="m87.296-1.7707v3.4815c-0.17473 0.71291-0.43764 0.6722-0.68478 0.76631l-5.1208 0.0085 0.0054 6.4252c-0.17473 0.71291-0.43764 0.6722-0.68478 0.76631l-1.9988 0.0348-0.0234-10.387z" stroke-linecap="round" stroke-linejoin="round" stroke-width="1.0016"/>
    <path d="m81.491 2.4856v-3.5631" stroke-linejoin="round" stroke-width="1.0016"/>
    <path d="m78.795 84.486 0.0171-74.774"/>
    <path class="solid" d="m61.845 102.71v-16.814c0.38862-1.2784 0.97345-1.2054 1.5232-1.3742l15.427-0.03721-0.02519 20.438z" stroke-linecap="round" stroke-linejoin="round" stroke-width="1.0016"/>
    <circle class="solid" cx="12.204" cy="52.207" r="4.4953"/>
    <path d="m5.599 9.7877v84.804" stroke-linecap="round" stroke-width=".99148"/>
  </g>
  <g display="none">
    <g id="deckMasks">
      <use class="deckMask" transform="matrix(.71785 0 0 1 299.43 -20.6)" width="100%" height="100%" color="#ffffff" rigging:deck="fore" xlink:href="#deckMask"/>
      <use class="deckMask" transform="matrix(1.0033 0 0 1 -1.1 -20.6)" width="100%" height="100%" color="#ffffff" rigging:deck="main" xlink:href="#deckMask"/>
      <use class="deckMask" transform="matrix(1.2311 0 0 1 -335.88 -20.6)" width="100%" height="100%" color="#ffffff" rigging:deck="stern" xlink:href="#deckMask"/>
    </g>
  </g>
  <g display="none">
    <g id="mastMasks" color="#ff0000">
      <use class="mastMask" x="140" y="-20.599997" width="100%" height="100%" rigging:mast="fore" xlink:href="#mastMask"/>
      <use class="mastMask" x="-104.88988" y="-20.599997" width="100%" height="100%" rigging:mast="main" xlink:href="#mastMask"/>
      <use class="mastMask" x="-300.96609" y="-20.599997" width="100%" height="100%" rigging:mast="mizzen" xlink:href="#mastMask"/>
    </g>
  </g>
  <g id="points">
    <g rigging:deck="fore" rigging:rail="behindFront" rigging:side="port">
      <use transform="rotate(-89.1 631.84 -18.644)" width="100%" height="100%" xlink:href="#cleat"/>
    </g>
    <g rigging:deck="fore" rigging:rail="behindFront" rigging:side="starboard">
      <use transform="matrix(.015714 .99988 .99988 -.015714 640.56 -509.11)" width="100%" height="100%" xlink:href="#cleat"/>
    </g>
    <g rigging:deck="fore" rigging:isAcross="true" rigging:rail="frontRail" rigging:side="port">
      <use transform="translate(75.849 98.833)" width="100%" height="100%" xlink:href="#pin"/>
      <use transform="translate(75.849 89.64)" width="100%" height="100%" xlink:href="#pin"/>
      <use transform="translate(75.849 80.915)" width="100%" height="100%" xlink:href="#pin"/>
      <use transform="translate(75.849 72.283)" width="100%" height="100%" xlink:href="#pin"/>
      <use transform="translate(20.7 -39.787)" width="100%" height="100%" xlink:href="#pinhole"/>
      <use transform="translate(75.849 55.97)" width="100%" height="100%" xlink:href="#pin"/>
    </g>
    <g rigging:deck="fore" rigging:isAcross="true" rigging:rail="frontRail" rigging:side="starboard">
      <use transform="matrix(1 0 0 -1 75.849 5.4729)" width="100%" height="100%" xlink:href="#pin"/>
      <use transform="matrix(1 0 0 -1 75.849 14.666)" width="100%" height="100%" xlink:href="#pin"/>
      <use transform="matrix(1 0 0 -1 75.849 23.391)" width="100%" height="100%" xlink:href="#pin"/>
      <use transform="matrix(1 0 0 -1 75.849 32.023)" width="100%" height="100%" xlink:href="#pin"/>
      <use transform="matrix(1 0 0 -1 20.7 144.09)" width="100%" height="100%" xlink:href="#pinhole"/>
      <use transform="matrix(1 0 0 -1 75.849 48.335)" width="100%" height="100%" xlink:href="#pin"/>
    </g>
    <g rigging:deck="fore" rigging:rail="onDeckFront" rigging:side="port">
      <use transform="rotate(3.7858 525.83 819.64)" width="100%" height="100%" xlink:href="#cleat"/>
    </g>
    <g rigging:deck="fore" rigging:rail="onDeckFront" rigging:side="center">
      <use transform="rotate(90.241 577.35 54.645)" width="100%" height="100%" xlink:href="#cleat"/>
    </g>
    <g rigging:deck="fore" rigging:rail="onDeckFront" rigging:side="starboard">
      <use transform="matrix(.99782 -.066026 -.066026 -.99782 55.265 137.24)" width="100%" height="100%" xlink:href="#cleat"/>
    </g>
    <g rigging:deck="fore" rigging:rail="sideRail" rigging:side="port">
      <use transform="rotate(3.8685 -92.77 -907.37)" width="100%" height="100%" xlink:href="#pin"/>
      <use transform="rotate(3.8685 1466.9 -1553.8)" width="100%" height="100%" xlink:href="#pinhole"/>
      <use transform="rotate(3.8685 -99.963 -671.32)" width="100%" height="100%" xlink:href="#pin"/>
      <use transform="rotate(3.8685 1459.2 -1319.1)" width="100%" height="100%" xlink:href="#pinhole"/>
      <use transform="rotate(3.8685 1456.7 -1201.1)" width="100%" height="100%" xlink:href="#pinhole"/>
      <use transform="rotate(3.8685 -108.57 -318.72)" width="100%" height="100%" xlink:href="#pin"/>
      <use transform="rotate(3.8685 1448.7 -965.03)" width="100%" height="100%" xlink:href="#pinhole"/>
      <use transform="rotate(3.8685 -118.21 -83.962)" width="100%" height="100%" xlink:href="#pin"/>
      <use transform="rotate(3.8685 1440.8 -730.36)" width="100%" height="100%" xlink:href="#pinhole"/>
      <use transform="rotate(3.8685 -127.54 153.53)" width="100%" height="100%" xlink:href="#pin"/>
      <use transform="rotate(3.8685 -132.74 270.21)" width="100%" height="100%" xlink:href="#pin"/>
      <use transform="rotate(3.8685 -136.38 389.63)" width="100%" height="100%" xlink:href="#pin"/>
      <use transform="rotate(3.8685 1422.8 -256.77)" width="100%" height="100%" xlink:href="#pinhole"/>
      <use transform="rotate(3.8685 1417 -138.78)" width="100%" height="100%" xlink:href="#pinhole"/>
      <use transform="rotate(3.8685 -150.43 743.75)" width="100%" height="100%" xlink:href="#pin"/>
      <use transform="rotate(3.8685 1407.8 96.012)" width="100%" height="100%" xlink:href="#pinhole"/>
    </g>
    <g rigging:deck="fore" rigging:rail="sideRail" rigging:side="starboard">
      <use transform="matrix(.99772 -.067466 -.067466 -.99772 -61.428 100.11)" width="100%" height="100%" xlink:href="#pin"/>
      <use transform="matrix(.99772 -.067466 -.067466 -.99772 -101.49 206.81)" width="100%" height="100%" xlink:href="#pinhole"/>
      <use transform="matrix(.99772 -.067466 -.067466 -.99772 -45.519 99.09)" width="100%" height="100%" xlink:href="#pin"/>
      <use transform="matrix(.99772 -.067466 -.067466 -.99772 -85.673 205.75)" width="100%" height="100%" xlink:href="#pinhole"/>
      <use transform="matrix(.99772 -.067466 -.067466 -.99772 -77.719 205.32)" width="100%" height="100%" xlink:href="#pinhole"/>
      <use transform="matrix(.99772 -.067466 -.067466 -.99772 -21.75 97.707)" width="100%" height="100%" xlink:href="#pin"/>
      <use transform="matrix(.99772 -.067466 -.067466 -.99772 -61.808 204.24)" width="100%" height="100%" xlink:href="#pinhole"/>
      <use transform="matrix(.99772 -.067466 -.067466 -.99772 -5.9338 96.522)" width="100%" height="100%" xlink:href="#pin"/>
      <use transform="matrix(.99772 -.067466 -.067466 -.99772 -45.994 203.17)" width="100%" height="100%" xlink:href="#pinhole"/>
      <use transform="matrix(.99772 -.067466 -.067466 -.99772 10.067 95.352)" width="100%" height="100%" xlink:href="#pin"/>
      <use transform="matrix(.99772 -.067466 -.067466 -.99772 17.927 94.735)" width="100%" height="100%" xlink:href="#pin"/>
      <use transform="matrix(.99772 -.067466 -.067466 -.99772 25.976 94.217)" width="100%" height="100%" xlink:href="#pin"/>
      <use transform="matrix(.99772 -.067466 -.067466 -.99772 -14.083 200.88)" width="100%" height="100%" xlink:href="#pinhole"/>
      <use transform="matrix(.99772 -.067466 -.067466 -.99772 -6.136 200.22)" width="100%" height="100%" xlink:href="#pinhole"/>
      <use transform="matrix(.99772 -.067466 -.067466 -.99772 49.835 92.463)" width="100%" height="100%" xlink:href="#pin"/>
      <use transform="matrix(.99772 -.067466 -.067466 -.99772 9.6834 199.07)" width="100%" height="100%" xlink:href="#pinhole"/>
    </g>
    <g rigging:deck="fore" rigging:rail="shroudsRail" rigging:side="port">
      <use transform="rotate(3.7695 -4.6641 -102.8)" width="100%" height="100%" xlink:href="#pin"/>
      <use transform="rotate(3.7695 -10.267 67.386)" width="100%" height="100%" xlink:href="#pin"/>
      <use transform="rotate(3.7695 -15.87 237.57)" width="100%" height="100%" xlink:href="#pin"/>
      <use transform="rotate(3.7695 -21.472 407.74)" width="100%" height="100%" xlink:href="#pin"/>
      <use transform="rotate(3.7695 -27.075 577.92)" width="100%" height="100%" xlink:href="#pin"/>
    </g>
    <g rigging:deck="fore" rigging:rail="shroudsRail" rigging:side="starboard">
      <use transform="matrix(.99784 -.065742 -.065742 -.99784 -6.7682 104.22)" width="100%" height="100%" xlink:href="#pin"/>
      <use transform="matrix(.99784 -.065742 -.065742 -.99784 4.4079 103.49)" width="100%" height="100%" xlink:href="#pin"/>
      <use transform="matrix(.99784 -.065742 -.065742 -.99784 15.584 102.75)" width="100%" height="100%" xlink:href="#pin"/>
      <use transform="matrix(.99784 -.065742 -.065742 -.99784 26.759 102.01)" width="100%" height="100%" xlink:href="#pin"/>
      <use transform="matrix(.99784 -.065742 -.065742 -.99784 37.935 101.28)" width="100%" height="100%" xlink:href="#pin"/>
    </g>
    <g rigging:side="port">
      <use transform="translate(-13.186 -2.1063)" width="100%" height="100%" xlink:href="#pinhole"/>
      <use transform="translate(-13.186 -11.266)" width="100%" height="100%" xlink:href="#pinhole"/>
      <use transform="translate(-13.186 -29.938)" width="100%" height="100%" xlink:href="#pinhole"/>
    </g>
    <g rigging:side="starboard">
      <use transform="matrix(1 0 0 -1 -13.186 106.41)" width="100%" height="100%" xlink:href="#pinhole"/>
      <use transform="matrix(1 0 0 -1 -13.186 115.57)" width="100%" height="100%" xlink:href="#pinhole"/>
      <use transform="matrix(1 0 0 -1 -13.186 134.24)" width="100%" height="100%" xlink:href="#pinhole"/>
    </g>
    <g rigging:deck="fore" rigging:rail="frontFists" rigging:side="port">
      <use transform="translate(316.38 -16.925)" width="100%" height="100%" xlink:href="#fist"/>
    </g>
    <g rigging:deck="fore" rigging:rail="frontFists" rigging:side="starboard">
      <use transform="matrix(1 0 0 -1 316.38 121.23)" width="100%" height="100%" xlink:href="#fist"/>
    </g>
    <g rigging:deck="fore" rigging:rail="atMastFront" rigging:side="port">
      <use transform="matrix(.76693 -.64173 -.64173 -.76693 149.81 410.51)" width="100%" height="100%" xlink:href="#cleat"/>
    </g>
    <g rigging:deck="fore" rigging:rail="atMastFront" rigging:side="center">
      <use transform="rotate(.87139 -2934.8 1274)" width="100%" height="100%" xlink:href="#cleat"/>
    </g>
    <g rigging:deck="fore" rigging:rail="atMastFront" rigging:side="starboard">
      <use transform="rotate(39.921 496.45 53.135)" width="100%" height="100%" xlink:href="#cleat"/>
    </g>
    <g rigging:deck="fore" rigging:isAcross="true" rigging:rail="behindMastRail" rigging:side="port">
      <use transform="translate(-15.985 101.55)" width="100%" height="100%" xlink:href="#pin"/>
      <use transform="translate(-15.985 92.452)" width="100%" height="100%" xlink:href="#pin"/>
      <use transform="translate(-15.985 73.703)" width="100%" height="100%" xlink:href="#pin"/>
    </g>
    <g rigging:deck="fore" rigging:isAcross="true" rigging:rail="behindMastRail" rigging:side="starboard">
      <use transform="matrix(1 0 0 -1 -15.985 2.7541)" width="100%" height="100%" xlink:href="#pin"/>
      <use transform="matrix(1 0 0 -1 -15.985 11.854)" width="100%" height="100%" xlink:href="#pin"/>
      <use transform="matrix(1 0 0 -1 -15.985 30.603)" width="100%" height="100%" xlink:href="#pin"/>
    </g>
    <g rigging:deck="fore" rigging:rail="backPillars" rigging:side="port">
      <use transform="matrix(-1.9999 -.007457 .014915 -.99997 1700.7 31.123)" width="100%" height="100%" xlink:href="#cleat"/>
    </g>
    <g rigging:deck="fore" rigging:rail="backPillars" rigging:side="starboard">
      <use transform="rotate(.038274 -115492 -31800)" width="100%" height="100%" xlink:href="#cleat"/>
    </g>
    <g rigging:deck="fore" rigging:isAcross="true" rigging:rail="backRail" rigging:side="port">
      <use transform="translate(-62.546 91.416)" width="100%" height="100%" xlink:href="#pin"/>
      <use transform="translate(-62.546 80.498)" width="100%" height="100%" xlink:href="#pin"/>
      <use transform="translate(-62.546 72.958)" width="100%" height="100%" xlink:href="#pin"/>
    </g>
    <g rigging:deck="fore" rigging:isAcross="true" rigging:rail="backRail" rigging:side="starboard">
      <use transform="matrix(1 0 0 -1 -62.546 12.889)" width="100%" height="100%" xlink:href="#pin"/>
      <use transform="matrix(1 0 0 -1 -62.546 23.808)" width="100%" height="100%" xlink:href="#pin"/>
      <use transform="matrix(1 0 0 -1 -62.546 31.348)" width="100%" height="100%" xlink:href="#pin"/>
    </g>
    <g rigging:deck="main" rigging:rail="bulwark" rigging:side="port">
      <use transform="matrix(.95074 0 0 .95074 -169.32 -16.259)" width="100%" height="100%" xlink:href="#cleat"/>
      <use transform="rotate(.89998 3866.4 -1648)" width="100%" height="100%" xlink:href="#kevel"/>
      <use transform="matrix(-.01972 1.022 -.73281 -.029126 493.17 -417.41)" width="100%" height="100%" xlink:href="#lcleat"/>
      <use transform="matrix(.95039 .048001 -.048001 .95039 -92.251 -42.279)" width="100%" height="100%" xlink:href="#cleat"/>
      <use transform="rotate(3.7685 1188.8 460.96)" width="100%" height="100%" xlink:href="#kevel"/>
    </g>
    <g rigging:deck="main" rigging:rail="bulwark" rigging:side="starboard">
      <use transform="matrix(.95074 0 0 -.95074 -169.32 120.56)" width="100%" height="100%" xlink:href="#cleat"/>
      <use transform="matrix(.99988 -.015707 -.015707 -.99988 -25.413 165.24)" width="100%" height="100%" xlink:href="#kevel"/>
      <use transform="matrix(-.01972 -1.022 -.73281 .029126 493.17 521.72)" width="100%" height="100%" xlink:href="#lcleat"/>
      <use transform="matrix(.95039 -.048001 -.048001 -.95039 -92.251 146.59)" width="100%" height="100%" xlink:href="#cleat"/>
      <use transform="matrix(.99784 -.065725 -.065725 -.99784 32.866 181.44)" width="100%" height="100%" xlink:href="#kevel"/>
    </g>
    <g rigging:deck="main" rigging:rail="frontPillars" rigging:side="port">
      <use transform="translate(-202.96 21.115)" width="100%" height="100%" xlink:href="#cleat"/>
    </g>
    <g rigging:deck="main" rigging:rail="frontPillars" rigging:side="starboard">
      <use transform="matrix(1 0 0 -1 -202.96 83.191)" width="100%" height="100%" xlink:href="#cleat"/>
    </g>
    <g rigging:deck="main" rigging:rail="onDeckFront" rigging:side="port">
      <use transform="translate(-218.73 37.358)" width="100%" height="100%" xlink:href="#cleat"/>
    </g>
    <g rigging:deck="main" rigging:rail="onDeckFront" rigging:side="starboard">
      <use transform="matrix(1 0 0 -1 -218.73 66.948)" width="100%" height="100%" xlink:href="#cleat"/>
    </g>
    <g rigging:deck="main" rigging:rail="atMastFront" rigging:side="center">
      <use transform="rotate(180 462.33 25.459)" width="100%" height="100%" xlink:href="#cleat"/>
    </g>
    <g rigging:deck="main" rigging:rail="sideMastRail" rigging:side="port">
      <use transform="translate(-257.35 73.846)" width="100%" height="100%" xlink:href="#pin"/>
      <use transform="translate(-247.35 73.846)" width="100%" height="100%" xlink:href="#pin"/>
      <use transform="translate(-237.25 73.846)" width="100%" height="100%" xlink:href="#pin"/>
      <use transform="translate(-227.05 73.846)" width="100%" height="100%" xlink:href="#pin"/>
      <use transform="translate(-217.05 73.846)" width="100%" height="100%" xlink:href="#pin"/>
      <use transform="translate(-206.95 73.846)" width="100%" height="100%" xlink:href="#pin"/>
    </g>
    <g rigging:deck="main" rigging:rail="sideMastRail" rigging:side="starboard">
      <use transform="matrix(1 0 0 -1 -257.35 30.46)" width="100%" height="100%" xlink:href="#pin"/>
      <use transform="matrix(1 0 0 -1 -247.35 30.46)" width="100%" height="100%" xlink:href="#pin"/>
      <use transform="matrix(1 0 0 -1 -237.25 30.46)" width="100%" height="100%" xlink:href="#pin"/>
      <use transform="matrix(1 0 0 -1 -227.05 30.46)" width="100%" height="100%" xlink:href="#pin"/>
      <use transform="matrix(1 0 0 -1 -217.05 30.46)" width="100%" height="100%" xlink:href="#pin"/>
      <use transform="matrix(1 0 0 -1 -206.95 30.46)" width="100%" height="100%" xlink:href="#pin"/>
    </g>
    <g rigging:deck="main" rigging:rail="backFists" rigging:side="port">
      <use transform="translate(7.7263 -24.752)" width="100%" height="100%" xlink:href="#fist"/>
    </g>
    <g rigging:deck="main" rigging:rail="backFists" rigging:side="starboard">
      <use transform="matrix(1 0 0 -1 7.7263 129.06)" width="100%" height="100%" xlink:href="#fist"/>
    </g>
    <g rigging:deck="main" rigging:isAcross="true" rigging:rail="behindMastRail" rigging:side="port">
      <use transform="translate(-266.8 101.6)" width="100%" height="100%" xlink:href="#pin"/>
      <use transform="translate(-266.8 92.847)" width="100%" height="100%" xlink:href="#pin"/>
      <use transform="translate(-266.8 84.008)" width="100%" height="100%" xlink:href="#pin"/>
    </g>
    <g rigging:deck="main" rigging:isAcross="true" rigging:rail="behindMastRail" rigging:side="starboard">
      <use transform="matrix(1 0 0 -1 -266.8 2.7081)" width="100%" height="100%" xlink:href="#pin"/>
      <use transform="matrix(1 0 0 -1 -266.8 11.459)" width="100%" height="100%" xlink:href="#pin"/>
      <use transform="matrix(1 0 0 -1 -266.8 20.298)" width="100%" height="100%" xlink:href="#pin"/>
    </g>
    <g rigging:deck="main" rigging:rail="sideRail" rigging:side="port">
      <use transform="rotate(-2.2774 1540.9 7008.1)" width="100%" height="100%" xlink:href="#pin"/>
      <use transform="rotate(-2.2774 1536.1 6800.6)" width="100%" height="100%" xlink:href="#pin"/>
      <use transform="rotate(-2.2774 1533.9 6582.6)" width="100%" height="100%" xlink:href="#pin"/>
      <use transform="rotate(-2.2774 1528.2 6377)" width="100%" height="100%" xlink:href="#pin"/>
      <use transform="rotate(-2.2774 1522.7 6168.3)" width="100%" height="100%" xlink:href="#pin"/>
      <use transform="rotate(-2.2774 1518.7 5961.7)" width="100%" height="100%" xlink:href="#pin"/>
    </g>
    <g rigging:deck="main" rigging:rail="sideRail" rigging:side="starboard">
      <use transform="matrix(.99921 .039738 .039738 -.99921 -277.27 37.537)" width="100%" height="100%" xlink:href="#pin"/>
      <use transform="matrix(.99921 .039738 .039738 -.99921 -269.03 37.891)" width="100%" height="100%" xlink:href="#pin"/>
      <use transform="matrix(.99921 .039738 .039738 -.99921 -260.37 38.148)" width="100%" height="100%" xlink:href="#pin"/>
      <use transform="matrix(.99921 .039738 .039738 -.99921 -252.2 38.537)" width="100%" height="100%" xlink:href="#pin"/>
      <use transform="matrix(.99921 .039738 .039738 -.99921 -243.91 38.922)" width="100%" height="100%" xlink:href="#pin"/>
      <use transform="matrix(.99921 .039738 .039738 -.99921 -235.7 39.243)" width="100%" height="100%" xlink:href="#pin"/>
    </g>
    <g rigging:deck="main" rigging:rail="aboveRail" rigging:side="port">
      <use transform="rotate(-2.0865 30.155 7725.9)" width="100%" height="100%" xlink:href="#cleat"/>
    </g>
    <g rigging:deck="main" rigging:rail="aboveRail" rigging:side="starboard">
      <use transform="matrix(.99934 .036409 .036409 -.99934 -281.27 98.086)" width="100%" height="100%" xlink:href="#cleat"/>
    </g>
    <g rigging:deck="stern" rigging:rail="bulwark" rigging:side="port">
      <use transform="rotate(-30.64 122.33 537.31)" width="100%" height="100%" xlink:href="#lcleat"/>
      <use transform="matrix(.8798 -.086775 .086775 .8798 -373.98 46.791)" width="100%" height="100%" xlink:href="#cleat"/>
      <use transform="rotate(-4.8377 -77.797 -1556)" width="100%" height="100%" xlink:href="#xcleat"/>
      <use transform="rotate(-5.0377 -80.762 -1708.6)" width="100%" height="100%" xlink:href="#xcleat"/>
      <use transform="rotate(-4.1732 -337.25 2959.3)" width="100%" height="100%" xlink:href="#kevel"/>
    </g>
    <g rigging:deck="stern" rigging:rail="bulwark" rigging:side="starboard">
      <use transform="matrix(.86039 .50964 .50964 -.86039 -256.75 -32.473)" width="100%" height="100%" xlink:href="#lcleat"/>
      <use transform="matrix(.99644 .084334 .084334 -.99644 130.94 116.67)" width="100%" height="100%" xlink:href="#xcleat"/>
      <use transform="matrix(.99614 .087812 .087812 -.99614 149.72 118.26)" width="100%" height="100%" xlink:href="#xcleat"/>
      <use transform="matrix(.99735 .072772 .072772 -.99735 -216.25 121.27)" width="100%" height="100%" xlink:href="#kevel"/>
    </g>
    <g rigging:deck="stern" rigging:rail="atFront" rigging:side="center">
      <use transform="translate(-428.9 -300.98)" width="100%" height="100%" xlink:href="#knot"/>
    </g>
    <g rigging:deck="stern" rigging:rail="aboveLadder" rigging:side="starboard">
      <use transform="translate(-428.9 -272.98)" width="100%" height="100%" xlink:href="#knot"/>
    </g>
    <g rigging:deck="stern" rigging:rail="sideRail" rigging:side="port">
      <use transform="rotate(-.99998 3172.8 24207)" width="100%" height="100%" xlink:href="#pin"/>
      <use transform="rotate(-.99998 3138.8 23834)" width="100%" height="100%" xlink:href="#pin"/>
      <use transform="rotate(-.99998 3104.2 23449)" width="100%" height="100%" xlink:href="#pin"/>
      <use transform="rotate(-.99998 3068.6 23078)" width="100%" height="100%" xlink:href="#pin"/>
    </g>
    <g rigging:deck="stern" rigging:rail="sideRail" rigging:side="starboard">
      <use transform="matrix(.99985 .017452 .017452 -.99985 -421.99 45.269)" width="100%" height="100%" xlink:href="#pin"/>
      <use transform="matrix(.99985 .017452 .017452 -.99985 -415.47 45.919)" width="100%" height="100%" xlink:href="#pin"/>
      <use transform="matrix(.99985 .017452 .017452 -.99985 -408.76 46.581)" width="100%" height="100%" xlink:href="#pin"/>
      <use transform="matrix(.99985 .017452 .017452 -.99985 -402.29 47.259)" width="100%" height="100%" xlink:href="#pin"/>
    </g>
    <g rigging:deck="stern" rigging:rail="shroudsRail" rigging:side="port">
      <use transform="rotate(-.7 4203.3 39058)" width="100%" height="100%" xlink:href="#pin"/>
      <use transform="rotate(-.7 4121.7 38341)" width="100%" height="100%" xlink:href="#pin"/>
      <use transform="rotate(-.7 4038.3 37611)" width="100%" height="100%" xlink:href="#pin"/>
      <use transform="rotate(-.7 3956.6 36887)" width="100%" height="100%" xlink:href="#pin"/>
      <use transform="rotate(-.7 3890.7 36227)" width="100%" height="100%" xlink:href="#pin"/>
    </g>
    <g rigging:deck="stern" rigging:rail="shroudsRail" rigging:side="starboard">
      <use transform="matrix(.99992 .012217 .012217 -.99992 -476.85 49.996)" width="100%" height="100%" xlink:href="#pin"/>
      <use transform="matrix(.99992 .012217 .012217 -.99992 -468.1 51.047)" width="100%" height="100%" xlink:href="#pin"/>
      <use transform="matrix(.99992 .012217 .012217 -.99992 -515.58 155.24)" width="100%" height="100%" xlink:href="#pinhole"/>
      <use transform="matrix(.99992 .012217 .012217 -.99992 -450.35 53.175)" width="100%" height="100%" xlink:href="#pin"/>
      <use transform="matrix(.99992 .012217 .012217 -.99992 -442.29 54.03)" width="100%" height="100%" xlink:href="#pin"/>
    </g>
    <g rigging:deck="stern" rigging:rail="atMast" rigging:side="port">
      <use transform="rotate(219.92 357.55 102.47)" width="100%" height="100%" xlink:href="#cleat"/>
      <use transform="matrix(.76693 -.64173 -.64173 -.76693 -291.15 410.51)" width="100%" height="100%" xlink:href="#cleat"/>
    </g>
    <g rigging:deck="stern" rigging:rail="atMast" rigging:side="starboard">
      <use transform="matrix(-.76693 .64173 .64173 .76693 566 -306.2)" width="100%" height="100%" xlink:href="#cleat"/>
      <use transform="rotate(39.921 275.97 -553.92)" width="100%" height="100%" xlink:href="#cleat"/>
    </g>
    <g rigging:deck="stern" rigging:rail="poopBulwark" rigging:side="port">
      <use transform="matrix(1 0 0 -1 -616.81 152.59)" width="100%" height="100%" xlink:href="#tackle"/>
      <use transform="rotate(81.139 37.687 2.8545)" width="100%" height="100%" xlink:href="#xcleat"/>
      <use transform="matrix(.87815 -.10212 .10212 .87815 -449.05 64.812)" width="100%" height="100%" xlink:href="#cleat"/>
    </g>
    <g rigging:deck="stern" rigging:rail="poopBulwark" rigging:side="starboard">
      <use transform="translate(-616.81 -48.222)" width="100%" height="100%" xlink:href="#tackle"/>
      <use transform="matrix(.15404 -.98806 -.98806 -.15404 34.702 139.19)" width="100%" height="100%" xlink:href="#xcleat"/>
      <use transform="matrix(.87815 .10212 .10212 -.87815 -461.48 34.213)" width="100%" height="100%" xlink:href="#cleat"/>
      <use transform="matrix(.87815 .10212 .10212 -.87815 -449.05 39.556)" width="100%" height="100%" xlink:href="#cleat"/>
    </g>
    <g rigging:deck="stern" rigging:ignoreDeck="true" rigging:rail="poopFlagstaff" rigging:side="port">
      <use transform="rotate(-44.188 355.84 711.44)" width="100%" height="100%" xlink:href="#cleat"/>
    </g>
    <g rigging:deck="stern" rigging:ignoreDeck="true" rigging:rail="poopFlagstaff" rigging:side="starboard">
      <use transform="matrix(.71706 .69702 .69702 -.71706 -395.2 -345.02)" width="100%" height="100%" xlink:href="#cleat"/>
    </g>
  </g>
</svg>
