<svg version="1.1" viewBox="-2 -7 679 159" xmlns="http://www.w3.org/2000/svg" xmlns:rigging="https://github.com/jolaf/rigging" xmlns:xlink="http://www.w3.org/1999/xlink">
  <defs>
    <rect id="deckMask" x="277.3" y="-.8092" width="220.7" height="146.6"/>
    <symbol id="mastMask">
      <path d="m425.1 59.52l26.5 26.5z"/>
      <path d="m451.6 59.52l-26.5 26.5z"/>
    </symbol>
  </defs>
  <g id="drawing" transform="translate(-36.92 -367.6)">
    <path d="m137.9 496.4 0.2487-112.2" fill="none" stroke="#000" stroke-width="1px"/>
    <path d="m278.8 508.3-0.0704-136.4" fill="none" stroke="#000" stroke-width="1.056px"/>
    <path d="m682.6 395.5-8.036-2.125c-0.162 31.12-0.0623 65.64 0 94.12l8.036-2.125v-89.87z" fill="none" stroke="#000" stroke-miterlimit="0" stroke-width=".88"/>
    <path d="m141.2 383.4v10.38c-0.1747 0.7129-0.4376 0.6722-0.6848 0.7663l-2.226 0.0348" fill="none" stroke="#000" stroke-width=".88"/>
    <ellipse transform="translate(36.92 367.6)" cx="40.68" cy="72.71" rx="4.495" ry="4.495" fill="none" stroke="#000" stroke-miterlimit=".3" stroke-width=".9803"/>
    <rect x="138.9" y="435.3" width="8.482" height="9.949" fill="none" stroke="#000" stroke-width=".9212"/>
    <rect x="148.1" y="421.4" width="3.041" height="38.03" fill="none" stroke="#000" stroke-width=".9615"/>
    <path d="m290.8 415.2h-8.168c-4e-3 16.81-7e-3 33.61-0.0109 50.42h8.168c4e-3 -16.81 7e-3 -33.61 0.0109-50.42z" fill="none" stroke="#000" stroke-miterlimit="0" stroke-width=".767"/>
    <path d="m332.2 472.4h-8.075v-64.02h8.075v64.02z" fill="none" stroke="#000" stroke-miterlimit="0" stroke-width=".86"/>
    <g fill="none" stroke="#000" stroke-miterlimit="0">
      <path d="m543.2 431.4v-23.11h8.158v23.15" stroke-width=".8816"/>
      <path d="m551.3 431.2c1.304 2.875 1.979 5.996 1.979 9.164 0 3.167-0.6748 6.288-1.979 9.164" stroke-linejoin="round" stroke-width=".88"/>
      <g transform="matrix(1 0 0 -1 -1.333e-5 880.8)">
        <path d="m543.2 431.4v-23.11h8.158v23.15" stroke-width=".8816"/>
        <path d="m543.1 431.2c1.304 2.875 1.979 5.996 1.979 9.164 0 3.167-0.6748 6.288-1.979 9.164" stroke-linejoin="round" stroke-width=".88"/>
      </g>
    </g>
    <rect transform="translate(3.599e-6 4.855e-5)" x="582.5" y="406.8" width="8.047" height="67.24" fill="none" stroke="#000" stroke-miterlimit="0" stroke-width=".8881"/>
    <circle transform="translate(36.92 367.6)" cx="578.4" cy="72.84" r="14.81" fill="none" stroke="#000" stroke-miterlimit="0" stroke-width=".962"/>
    <rect transform="translate(36.92 367.6)" x="603.7" y="48.05" width="6.742" height="49.38" fill="none" stroke="#000" stroke-miterlimit="0" stroke-width=".7897"/>
    <path d="m131.1 495.7v-18.61c0.3886-1.278 0.9734-1.205 1.523-1.374l4.95-0.0624" fill="none" stroke="#000" stroke-width=".88"/>
    <circle cx="370.4" cy="440.5" r="14.81" fill="none" stroke="#000" stroke-miterlimit="0" stroke-width=".962"/>
    <circle cx="188.4" cy="440.5" r="14.81" fill="none" stroke="#000" stroke-miterlimit="0" stroke-width=".962"/>
    <g id="portDrawing">
      <path d="m37.02 398c223-35.66 523-45.66 675 5.143" fill="none" stroke="#000" stroke-width="1px"/>
      <path d="m305.9 370.6 0.2525 33.08c2.441 1.306 4.882 1.261 7.324-0.1263v-33.34" fill="none" stroke="#000" stroke-width="1px"/>
      <path d="m279.1 392.7c11.48-8.995 11.26-15.06 12.37-21.47" fill="none" stroke="#000" stroke-width="1px"/>
      <path d="m279.1 398.7c16.01-5.945 25.1-19.22 26.52-28.11" fill="none" stroke="#000" stroke-width="1px"/>
      <path d="m279.1 402.7c12.56-3.067 19.69-7.145 26.77-13.86" fill="none" stroke="#000" stroke-width="1px"/>
      <path d="m279.1 405c11.72 2.006 20.15-0.1334 26.9-4.419" fill="none" stroke="#000" stroke-width="1px"/>
      <rect x="565.1" y="393.5" width="109.5" height="8.108" fill="none" stroke="#000" stroke-miterlimit="0" stroke-width=".88"/>
      <rect transform="matrix(1 -.001733 .002079 1 0 0)" x="578" y="387.1" width="57.04" height="5.615" fill="none" stroke="#000" stroke-linecap="round" stroke-miterlimit="0" stroke-width=".88"/>
      <rect x="324.1" y="408.3" width="84.37" height="8.21" fill="none" stroke="#000" stroke-miterlimit="0" stroke-width=".7774"/>
      <rect x="318" y="375.6" width="68.17" height="6.51" fill="none" stroke="#000" stroke-miterlimit="0" stroke-width=".7774"/>
      <rect transform="rotate(-4.735)" x="167" y="397.2" width="27.59" height="6.154" fill="none" stroke="#000" stroke-miterlimit="0" stroke-width=".7873"/>
      <rect transform="rotate(-8.297)" x="90.14" y="406.4" width="35" height="6.061" fill="none" stroke="#000" stroke-miterlimit="0" stroke-width=".88"/>
      <rect class="filled" x="582.5" y="414.9" width="8.012" height="8.012" fill-rule="evenodd" stroke="#000" stroke-miterlimit="0" stroke-width=".9369"/>
      <rect class="filled" x="400.1" y="408.4" width="8.109" height="8.109" fill-rule="evenodd" stroke="#000" stroke-miterlimit="0" stroke-width=".88"/>
    </g>
    <use transform="matrix(1 0 0 -1 .1294 880.8)" width="100%" height="100%" xlink:href="#portDrawing"/>
  </g>
  <g display="none">
    <g id="deckMasks" class="modeDependent which" fill="#fff">
      <use class="deckMask" transform="matrix(.8053 0 0 1 274.7 0)" rigging:deck="fore" xlink:href="#deckMask"/>
      <use class="deckMask" rigging:deck="main" xlink:href="#deckMask"/>
      <use class="deckMask" transform="matrix(1.256 0 0 1 -348 0)" rigging:deck="stern" xlink:href="#deckMask"/>
    </g>
  </g>
  <g id="mastMasks" class="modeDependent where" stroke="red">
    <use class="mastMask" transform="translate(140)" rigging:mast="fore" xlink:href="#mastMask"/>
    <use class="mastMask" transform="translate(-104.9)" rigging:mast="main" xlink:href="#mastMask"/>
    <use class="mastMask" transform="translate(-286.9)" rigging:mast="mizzen" xlink:href="#mastMask"/>
  </g>
  <g id="points" transform="translate(.0203 -7.142e-6)">
    <g fill-rule="evenodd" stroke="#000" stroke-miterlimit="2.9" stroke-width=".2656" rigging:deck="fore" rigging:isAcross="true" rigging:rail="frontRail" rigging:side="port">
      <circle transform="translate(-36.94 -367.6)" cx="678.4" cy="436.6" r="1.067"/>
      <circle transform="translate(-36.94 -367.6)" cx="678.4" cy="429" r="1.067"/>
      <circle transform="translate(-36.94 -367.6)" cx="678.4" cy="421.4" r="1.067"/>
      <circle transform="translate(-36.94 -367.6)" cx="678.4" cy="413.8" r="1.067"/>
      <circle transform="translate(-36.94 -367.6)" cx="678.4" cy="406.2" r="1.067"/>
    </g>
    <g transform="translate(.0003198 38.75)" fill-rule="evenodd" stroke="#000" stroke-miterlimit="2.9" stroke-width=".2656" rigging:deck="fore" rigging:isAcross="true" rigging:rail="frontRail" rigging:side="starboard">
      <circle transform="translate(-36.94 -367.6)" cx="678.4" cy="406.2" r="1.067"/>
      <circle transform="translate(-36.94 -367.6)" cx="678.4" cy="413.8" r="1.067"/>
      <circle transform="translate(-36.94 -367.6)" cx="678.4" cy="421.4" r="1.067"/>
      <circle transform="translate(-36.94 -367.6)" cx="678.4" cy="429" r="1.067"/>
      <circle transform="translate(-36.94 -367.6)" cx="678.4" cy="436.6" r="1.067"/>
    </g>
    <g rigging:deck="fore" rigging:rail="behindFront" rigging:side="port">
      <ellipse transform="translate(-36.94 -367.6)" cx="685.1" cy="428.9" rx="1.126" ry="4.735" fill-rule="evenodd" stroke="#000" stroke-linecap="round" stroke-linejoin="round" stroke-width=".88"/>
    </g>
    <g rigging:deck="fore" rigging:rail="behindFront" rigging:side="starboard">
      <ellipse cx="648.1" cy="85.25" rx="1.126" ry="4.735" fill-rule="evenodd" stroke="#000" stroke-linecap="round" stroke-linejoin="round" stroke-width=".88"/>
    </g>
    <g fill-rule="evenodd" stroke="#000" stroke-miterlimit="2.9" stroke-width=".2656" rigging:deck="fore" rigging:isAcross="true" rigging:rail="backRail" rigging:side="port">
      <circle cx="510.3" cy="60.03" r="1.067"/>
      <circle cx="510.3" cy="52.49" r="1.067"/>
      <circle cx="510.3" cy="44.95" r="1.067"/>
    </g>
    <g transform="translate(0 41.01)" fill-rule="evenodd" stroke="#000" stroke-miterlimit="2.9" stroke-width=".2656" rigging:deck="fore" rigging:isAcross="true" rigging:rail="backRail" rigging:side="starboard">
      <circle transform="translate(-36.94 -367.6)" cx="547.3" cy="412.6" r="1.067"/>
      <circle transform="translate(-36.94 -367.6)" cx="547.3" cy="420.1" r="1.067"/>
      <circle transform="translate(-36.94 -367.6)" cx="547.3" cy="427.7" r="1.067"/>
    </g>
    <g fill-rule="evenodd" stroke="#000" stroke-miterlimit="2.9" stroke-width=".2656" rigging:deck="fore" rigging:rail="sideRail" rigging:side="port">
      <circle transform="translate(-36.94 -367.6)" cx="571.2" cy="397.6" r="1.067"/>
      <circle transform="translate(-36.94 -367.6)" cx="582.4" cy="397.6" r="1.067"/>
      <circle transform="translate(-36.94 -367.6)" cx="593.6" cy="397.6" r="1.067"/>
      <circle transform="translate(-36.94 -367.6)" cx="604.8" cy="397.6" r="1.067"/>
      <circle transform="translate(-36.94 -367.6)" cx="616" cy="397.6" r="1.067"/>
      <circle transform="translate(-36.94 -367.6)" cx="627.2" cy="397.6" r="1.067"/>
      <circle transform="translate(-36.94 -367.6)" cx="638.4" cy="397.6" r="1.067"/>
      <circle transform="translate(-36.94 -367.6)" cx="649.6" cy="397.6" r="1.067"/>
    </g>
    <g transform="translate(.0003426 85.75)" fill-rule="evenodd" stroke="#000" stroke-miterlimit="2.9" stroke-width=".2656" rigging:deck="fore" rigging:rail="sideRail" rigging:side="starboard">
      <circle transform="translate(-36.94 -367.6)" cx="571.2" cy="397.6" r="1.067"/>
      <circle transform="translate(-36.94 -367.6)" cx="582.4" cy="397.6" r="1.067"/>
      <circle transform="translate(-36.94 -367.6)" cx="593.6" cy="397.6" r="1.067"/>
      <circle transform="translate(-36.94 -367.6)" cx="604.8" cy="397.6" r="1.067"/>
      <circle transform="translate(-36.94 -367.6)" cx="616" cy="397.6" r="1.067"/>
      <circle transform="translate(-36.94 -367.6)" cx="627.2" cy="397.6" r="1.067"/>
      <circle transform="translate(-36.94 -367.6)" cx="638.4" cy="397.6" r="1.067"/>
      <circle transform="translate(-36.94 -367.6)" cx="649.6" cy="397.6" r="1.067"/>
    </g>
    <g transform="translate(-36.94 -367.6)" fill-rule="evenodd" stroke="#000" stroke-miterlimit="2.9" stroke-width=".2656" rigging:deck="fore" rigging:rail="shroudsRail" rigging:side="port">
      <circle cx="585" cy="388.9" r="1.067"/>
      <circle cx="596.2" cy="388.9" r="1.067"/>
      <circle cx="607.4" cy="388.9" r="1.067"/>
      <circle cx="618.6" cy="388.9" r="1.067"/>
      <circle cx="629.8" cy="388.9" r="1.067"/>
    </g>
    <g transform="translate(-36.94 -264.5)" fill-rule="evenodd" stroke="#000" stroke-miterlimit="2.9" stroke-width=".2656" rigging:deck="fore" rigging:rail="shroudsRail" rigging:side="starboard">
      <circle cx="585" cy="388.9" r="1.067"/>
      <circle cx="596.2" cy="388.9" r="1.067"/>
      <circle cx="607.4" cy="388.9" r="1.067"/>
      <circle cx="618.6" cy="388.9" r="1.067"/>
      <circle cx="629.8" cy="388.9" r="1.067"/>
    </g>
    <g transform="translate(542 14.18)" rigging:deck="fore" rigging:rail="onDeckFront" rigging:side="port">
      <ellipse transform="rotate(90)" cx="23.54" cy="-88.17" rx="1.045" ry="3.527" fill-rule="evenodd" stroke="#000" stroke-miterlimit="0" stroke-width=".88"/>
    </g>
    <g transform="translate(544 80.46)" rigging:deck="fore" rigging:rail="onDeckFront" rigging:side="starboard">
      <ellipse transform="rotate(90)" cx="27.54" cy="-86.17" rx="1.045" ry="3.527" fill-rule="evenodd" stroke="#000" stroke-miterlimit="0" stroke-width=".88"/>
    </g>
    <g rigging:deck="fore" rigging:rail="frontFists" rigging:side="port">
      <rect transform="translate(-36.94 -367.6)" x="639.9" y="419.8" width="8.012" height="8.012" fill-rule="evenodd" stroke="#000" stroke-miterlimit="0" stroke-width=".9369"/>
    </g>
    <g rigging:deck="fore" rigging:rail="frontFists" rigging:side="starboard">
      <rect x="603" y="85.27" width="8.012" height="8.012" fill-rule="evenodd" stroke="#000" stroke-miterlimit="0" stroke-width=".9369"/>
    </g>
    <g rigging:deck="fore" rigging:rail="backPillars" rigging:side="port">
      <ellipse transform="rotate(90 165.3 -202.3)" cx="419.1" cy="-592.4" rx="1.126" ry="4.735" fill-rule="evenodd" stroke="#000" stroke-linecap="round" stroke-linejoin="round" stroke-width=".88"/>
    </g>
    <g rigging:deck="fore" rigging:rail="backPillars" rigging:side="starboard">
      <ellipse transform="rotate(90)" cx="94.56" cy="-555.5" rx="1.126" ry="4.735" fill-rule="evenodd" stroke="#000" stroke-linecap="round" stroke-linejoin="round" stroke-width=".88"/>
    </g>
    <g fill-rule="evenodd" stroke="#000" stroke-miterlimit="2.9" stroke-width=".2656" rigging:deck="fore" rigging:isAcross="true" rigging:rail="behindMastRail" rigging:side="port">
      <circle transform="translate(-36.94 -367.6)" cx="586.4" cy="436.6" r="1.067"/>
      <circle transform="translate(-36.94 -367.6)" cx="586.4" cy="429" r="1.067"/>
      <circle transform="translate(-36.94 -367.6)" cx="586.4" cy="410.4" r="1.067"/>
    </g>
    <g transform="matrix(1 0 0 -1 .000342 145.3)" fill-rule="evenodd" stroke="#000" stroke-miterlimit="2.9" stroke-width=".2656" rigging:deck="fore" rigging:isAcross="true" rigging:rail="behindMastRail" rigging:side="starboard">
      <circle transform="translate(-36.94 -367.6)" cx="586.4" cy="436.6" r="1.067"/>
      <circle transform="translate(-36.94 -367.6)" cx="586.4" cy="429" r="1.067"/>
      <circle transform="translate(-36.94 -367.6)" cx="586.4" cy="410.4" r="1.067"/>
    </g>
    <g rigging:deck="fore" rigging:rail="atMastFront" rigging:side="center">
      <ellipse transform="rotate(90)" cx="72.71" cy="-594.7" rx="1.126" ry="4.735" fill-rule="evenodd" stroke="#000" stroke-linecap="round" stroke-linejoin="round" stroke-width=".88"/>
    </g>
    <g transform="translate(0,-2)" rigging:deck="fore" rigging:rail="atMastSide" rigging:side="port">
      <ellipse transform="rotate(41.16 471.1 -233)" cx="752.6" cy="-89.32" rx="1.126" ry="4.735" fill-rule="evenodd" stroke="#000" stroke-linecap="round" stroke-linejoin="round" stroke-width=".88"/>
    </g>
    <g transform="translate(0,2)" rigging:deck="fore" rigging:rail="atMastSide" rigging:side="starboard">
      <ellipse transform="rotate(131.2)" cx="-323.6" cy="-499.3" rx="1.126" ry="4.735" fill-rule="evenodd" stroke="#000" stroke-linecap="round" stroke-linejoin="round" stroke-width=".88"/>
    </g>
    <g fill="#fff" fill-opacity=".001" fill-rule="evenodd" stroke="#000" stroke-linecap="round" stroke-linejoin="round" stroke-width=".88" rigging:deck="main" rigging:rail="bulwark" rigging:side="port">
      <g transform="translate(-103.9 -375.3)">
        <path d="m510.6 395.3 6.339-12.72-0.3125-0.9375 0.2679-0.9821 9.732 0.1339-0.0893 1.027-3.259 2.634-11.07 14.6-1.607 0.6696"/>
        <path d="m510.5 395.2-6.339-12.72 0.3125-0.9375-0.2679-0.9821-9.732 0.1339 0.0893 1.027 3.259 2.634 11.07 14.6 1.607 0.6696"/>
      </g>
      <rect transform="translate(-36.94 -367.6)" x="467.4" y="377.5" width="18.14" height="9.613" rx="2.4"/>
      <g transform="translate(-36.4 -370.7)">
        <path d="m510.6 395.3 6.339-12.72-0.3125-0.9375 0.2679-0.9821 9.732 0.1339-0.0893 1.027-3.259 2.634-11.07 14.6-1.607 0.6696"/>
        <path d="m510.5 395.2-6.339-12.72 0.3125-0.9375-0.2679-0.9821-9.732 0.1339 0.0893 1.027 3.259 2.634 11.07 14.6 1.607 0.6696"/>
      </g>
    </g>
    <g transform="matrix(1 0 0 -1 .0001061 146.1)" fill="#fff" fill-opacity=".001" fill-rule="evenodd" stroke="#000" stroke-linecap="round" stroke-linejoin="round" stroke-width=".88" rigging:deck="main" rigging:rail="bulwark" rigging:side="starboard">
      <g transform="translate(-103.9 -375.3)">
        <path d="m510.6 395.3 6.339-12.72-0.3125-0.9375 0.2679-0.9821 9.732 0.1339-0.0893 1.027-3.259 2.634-11.07 14.6-1.607 0.6696"/>
        <path d="m510.5 395.2-6.339-12.72 0.3125-0.9375-0.2679-0.9821-9.732 0.1339 0.0893 1.027 3.259 2.634 11.07 14.6 1.607 0.6696"/>
      </g>
      <rect transform="translate(-36.94 -367.6)" x="467.4" y="377.5" width="18.14" height="9.613" rx="2.4"/>
      <g transform="translate(-36.4 -370.7)">
        <path d="m510.6 395.3 6.339-12.72-0.3125-0.9375 0.2679-0.9821 9.732 0.1339-0.0893 1.027-3.259 2.634-11.07 14.6-1.607 0.6696"/>
        <path d="m510.5 395.2-6.339-12.72 0.3125-0.9375-0.2679-0.9821-9.732 0.1339 0.0893 1.027 3.259 2.634 11.07 14.6 1.607 0.6696"/>
      </g>
    </g>
    <g fill-rule="evenodd" stroke="#000" stroke-miterlimit="2.9" stroke-width=".2656" rigging:deck="main" rigging:rail="sideRail" rigging:side="port">
      <circle transform="translate(-36.94 -367.6)" cx="324.1" cy="378.8" r="1.067"/>
      <circle transform="translate(-36.94 -367.6)" cx="335.3" cy="378.8" r="1.067"/>
      <circle transform="translate(-36.94 -367.6)" cx="346.5" cy="378.8" r="1.067"/>
      <circle transform="translate(-36.94 -367.6)" cx="357.7" cy="378.8" r="1.067"/>
      <circle transform="translate(-36.94 -367.6)" cx="368.9" cy="378.8" r="1.067"/>
      <circle transform="translate(-36.94 -367.6)" cx="380.1" cy="378.8" r="1.067"/>
    </g>
    <g transform="translate(.0002875 123.3)" fill-rule="evenodd" stroke="#000" stroke-miterlimit="2.9" stroke-width=".2656" rigging:deck="main" rigging:rail="sideRail" rigging:side="starboard">
      <circle transform="translate(-36.94 -367.6)" cx="324.1" cy="378.8" r="1.067"/>
      <circle transform="translate(-36.94 -367.6)" cx="335.3" cy="378.8" r="1.067"/>
      <circle transform="translate(-36.94 -367.6)" cx="346.5" cy="378.8" r="1.067"/>
      <circle transform="translate(-36.94 -367.6)" cx="357.7" cy="378.8" r="1.067"/>
      <circle transform="translate(-36.94 -367.6)" cx="368.9" cy="378.8" r="1.067"/>
      <circle transform="translate(-36.94 -367.6)" cx="380.1" cy="378.8" r="1.067"/>
    </g>
    <g rigging:deck="main" rigging:rail="aboveRail" rigging:side="port">
      <ellipse transform="rotate(90 165.3 -202.3)" cx="372.7" cy="-338.6" rx="1.126" ry="4.735" fill-rule="evenodd" stroke="#000" stroke-linecap="round" stroke-linejoin="round" stroke-width=".88"/>
    </g>
    <g rigging:deck="main" rigging:rail="aboveRail" rigging:side="starboard">
      <ellipse transform="rotate(90)" cx="140.6" cy="-301.6" rx="1.126" ry="4.735" fill-rule="evenodd" stroke="#000" stroke-linecap="round" stroke-linejoin="round" stroke-width=".88"/>
    </g>
    <g rigging:deck="main" rigging:rail="frontPillars" rigging:side="port">
      <ellipse transform="rotate(90 165.3 -202.3)" cx="412.6" cy="-408.9" rx="1.126" ry="4.735" fill-rule="evenodd" stroke="#000" stroke-linecap="round" stroke-linejoin="round" stroke-width=".88"/>
    </g>
    <g rigging:deck="main" rigging:rail="frontPillars" rigging:side="starboard">
      <ellipse transform="rotate(90)" cx="101" cy="-372" rx="1.126" ry="4.735" fill-rule="evenodd" stroke="#000" stroke-linecap="round" stroke-linejoin="round" stroke-width=".88"/>
    </g>
    <g rigging:deck="main" rigging:rail="onDeckFront" rigging:side="port">
      <ellipse transform="rotate(90 165.3 -202.3)" cx="419.8" cy="-404.2" rx="1.126" ry="4.735" fill-rule="evenodd" stroke="#000" stroke-linecap="round" stroke-linejoin="round" stroke-width=".88"/>
    </g>
    <g rigging:deck="main" rigging:rail="onDeckFront" rigging:side="starboard">
      <ellipse transform="rotate(90)" cx="93.53" cy="-367.3" rx="1.126" ry="4.735" fill-rule="evenodd" stroke="#000" stroke-linecap="round" stroke-linejoin="round" stroke-width=".88"/>
    </g>
    <g rigging:deck="main" rigging:rail="backFists" rigging:side="port">
      <rect transform="translate(-36.94 -367.6)" x="324.1" y="408.3" width="8.109" height="8.109" fill-rule="evenodd" stroke="#000" stroke-miterlimit="0" stroke-width=".88"/>
    </g>
    <g rigging:deck="main" rigging:rail="backFists" rigging:side="starboard">
      <rect x="287.2" y="96.61" width="8.109" height="8.109" fill-rule="evenodd" stroke="#000" stroke-miterlimit="0" stroke-width=".88"/>
    </g>
    <g fill-rule="evenodd" stroke="#000" stroke-miterlimit="2.9" stroke-width=".2656" rigging:deck="main" rigging:isAcross="true" rigging:rail="behindMastRail" rigging:side="port">
      <circle transform="translate(-36.94 -367.6)" cx="328.1" cy="436.6" r="1.067"/>
      <circle transform="translate(-36.94 -367.6)" cx="328.1" cy="429" r="1.067"/>
      <circle transform="translate(-36.94 -367.6)" cx="328.1" cy="421.4" r="1.067"/>
    </g>
    <g transform="translate(0 23.15)" fill-rule="evenodd" stroke="#000" stroke-miterlimit="2.9" stroke-width=".2656" rigging:deck="main" rigging:isAcross="true" rigging:rail="behindMastRail" rigging:side="starboard">
      <circle transform="translate(-36.94 -367.6)" cx="328.1" cy="421.4" r="1.067"/>
      <circle transform="translate(-36.94 -367.6)" cx="328.1" cy="429" r="1.067"/>
      <circle transform="translate(-36.94 -367.6)" cx="328.1" cy="436.6" r="1.067"/>
    </g>
    <g fill-rule="evenodd" stroke="#000" stroke-miterlimit="2.9" stroke-width=".2656" rigging:deck="main" rigging:rail="sideMastRail" rigging:side="port">
      <circle transform="translate(-36.94 -367.6)" cx="338" cy="412.4" r="1.067"/>
      <circle transform="translate(-36.94 -367.6)" cx="349.2" cy="412.4" r="1.067"/>
      <circle transform="translate(-36.94 -367.6)" cx="360.4" cy="412.4" r="1.067"/>
      <circle transform="translate(-36.94 -367.6)" cx="371.6" cy="412.4" r="1.067"/>
      <circle transform="translate(-36.94 -367.6)" cx="382.8" cy="412.4" r="1.067"/>
      <circle transform="translate(-36.94 -367.6)" cx="394" cy="412.4" r="1.067"/>
    </g>
    <g transform="translate(.0002965 56.13)" fill-rule="evenodd" stroke="#000" stroke-miterlimit="2.9" stroke-width=".2656" rigging:deck="main" rigging:rail="sideMastRail" rigging:side="starboard">
      <circle transform="translate(-36.94 -367.6)" cx="338" cy="412.4" r="1.067"/>
      <circle transform="translate(-36.94 -367.6)" cx="349.2" cy="412.4" r="1.067"/>
      <circle transform="translate(-36.94 -367.6)" cx="360.4" cy="412.4" r="1.067"/>
      <circle transform="translate(-36.94 -367.6)" cx="371.6" cy="412.4" r="1.067"/>
      <circle transform="translate(-36.94 -367.6)" cx="382.8" cy="412.4" r="1.067"/>
      <circle transform="translate(-36.94 -367.6)" cx="394" cy="412.4" r="1.067"/>
    </g>
    <g rigging:deck="main" rigging:rail="atMastFront" rigging:side="center">
      <ellipse transform="scale(-1)" cx="-351.6" cy="-72.72" rx="1.126" ry="4.735" fill-rule="evenodd" stroke="#000" stroke-linecap="round" stroke-linejoin="round" stroke-width=".88"/>
    </g>
    <g rigging:deck="main" rigging:rail="atMastBack" rigging:side="center">
      <ellipse transform="scale(-1)" cx="-315.4" cy="-72.72" rx="1.126" ry="4.735" fill-rule="evenodd" stroke="#000" stroke-linecap="round" stroke-linejoin="round" stroke-width=".88"/>
    </g>
    <g transform="translate(-36.62 -385.8)" rigging:deck="stern" rigging:rail="atFront" rigging:side="center">
      <g transform="translate(-.03157 .06313)">
        <circle cx="283.9" cy="461" r=".4262" fill-rule="evenodd" stroke-miterlimit="0" stroke-width="0"/>
        <circle cx="285.2" cy="461" r=".4262" fill-rule="evenodd" stroke-miterlimit="0" stroke-width="0"/>
        <circle cx="286.6" cy="461" r=".4262" fill-rule="evenodd" stroke-miterlimit="0" stroke-width="0"/>
        <circle cx="287.8" cy="461" r=".4262" fill-rule="evenodd" stroke-miterlimit="0" stroke-width="0"/>
        <circle cx="289.1" cy="461" r=".4262" fill-rule="evenodd" stroke-miterlimit="0" stroke-width="0"/>
        <path d="m298.7 455.2c-3.993 0.489-15.46 2.284-17.27 3.472-0.8735 0.6837-1.281 1.456-0.5051 2.273 0.2949 0.218 1.515 0.1263 1.515 0.1263" fill="none" stroke="#000" stroke-width="1px"/>
        <path d="m290.6 461s1.792-1.092 2.589-1.768c0.4994-0.4237 1.088-0.9126 1.357-1.421s0.3929-0.8883 0.3157-1.452c-0.0772-0.5638-0.7999-1.72-1.438-2.147-0.6381-0.4267-1.581-0.4143-2.192-0.1578-0.6116 0.2564-0.5661 0.7134-0.7576 1.357s0.1148 1.993 0.2841 2.715 0.2508 1.043 0.5998 1.61 0.9875 1.204 1.547 1.673 1.768 1.136 1.768 1.136" fill="none" stroke="#000" stroke-width="1px"/>
      </g>
    </g>
    <g transform="translate(-13.51 -342.5)" rigging:deck="stern" rigging:rail="aboveLadder" rigging:side="starboard">
      <g transform="translate(-.03157 .06313)">
        <circle cx="283.9" cy="461" r=".4262" fill-rule="evenodd" stroke-miterlimit="0" stroke-width="0"/>
        <circle cx="285.2" cy="461" r=".4262" fill-rule="evenodd" stroke-miterlimit="0" stroke-width="0"/>
        <circle cx="286.6" cy="461" r=".4262" fill-rule="evenodd" stroke-miterlimit="0" stroke-width="0"/>
        <circle cx="287.8" cy="461" r=".4262" fill-rule="evenodd" stroke-miterlimit="0" stroke-width="0"/>
        <circle cx="289.1" cy="461" r=".4262" fill-rule="evenodd" stroke-miterlimit="0" stroke-width="0"/>
        <path d="m298.7 455.2c-3.993 0.489-15.46 2.284-17.27 3.472-0.8735 0.6837-1.281 1.456-0.5051 2.273 0.2949 0.218 1.515 0.1263 1.515 0.1263" fill="none" stroke="#000" stroke-width="1px"/>
        <path d="m290.6 461s1.792-1.092 2.589-1.768c0.4994-0.4237 1.088-0.9126 1.357-1.421s0.3929-0.8883 0.3157-1.452c-0.0772-0.5638-0.7999-1.72-1.438-2.147-0.6381-0.4267-1.581-0.4143-2.192-0.1578-0.6116 0.2564-0.5661 0.7134-0.7576 1.357s0.1148 1.993 0.2841 2.715 0.2508 1.043 0.5998 1.61 0.9875 1.204 1.547 1.673 1.768 1.136 1.768 1.136" fill="none" stroke="#000" stroke-width="1px"/>
      </g>
    </g>
    <g fill="#fff" fill-opacity=".001" fill-rule="evenodd" stroke="#000" stroke-width=".88" rigging:deck="stern" rigging:rail="bulwark" rigging:side="port">
      <rect transform="rotate(-53.14 -386 -146.9)" x="-201.7" y="386.6" width="4.761" height="9.104" rx="1.3" stroke-miterlimit=".3"/>
      <rect transform="translate(-36.94 -367.6)" x="233.6" y="383.4" width="4.761" height="9.104" rx="1.3" stroke-miterlimit=".3"/>
      <rect transform="translate(-36.94 -367.6)" x="244.3" y="383.2" width="4.761" height="9.104" rx="1.3" stroke-miterlimit=".3"/>
      <g transform="matrix(.7669 0 0 .7669 -164 -280.3)" stroke-linecap="round" stroke-linejoin="round">
        <path d="m510.6 395.3 6.339-12.72-0.3125-0.9375 0.2679-0.9821 9.732 0.1339-0.0893 1.027-3.259 2.634-11.07 14.6-1.607 0.6696"/>
        <path d="m510.5 395.2-6.339-12.72 0.3125-0.9375-0.2679-0.9821-9.732 0.1339 0.0893 1.027 3.259 2.634 11.07 14.6 1.607 0.6696"/>
      </g>
    </g>
    <g transform="matrix(1 0 0 -1 7.628e-5 145.6)" fill="#fff" fill-opacity=".001" fill-rule="evenodd" stroke="#000" stroke-width=".88" rigging:deck="stern" rigging:rail="bulwark" rigging:side="starboard">
      <rect transform="rotate(-53.14 -386 -146.9)" x="-201.7" y="386.6" width="4.761" height="9.104" rx="1.3" stroke-miterlimit=".3"/>
      <rect transform="translate(-36.94 -367.6)" x="233.6" y="383.4" width="4.761" height="9.104" rx="1.3" stroke-miterlimit=".3"/>
      <rect transform="translate(-36.94 -367.6)" x="244.3" y="383.2" width="4.761" height="9.104" rx="1.3" stroke-miterlimit=".3"/>
      <g transform="matrix(.7669 0 0 .7669 -164 -280.3)" stroke-linecap="round" stroke-linejoin="round">
        <path d="m510.6 395.3 6.339-12.72-0.3125-0.9375 0.2679-0.9821 9.732 0.1339-0.0893 1.027-3.259 2.634-11.07 14.6-1.607 0.6696"/>
        <path d="m510.5 395.2-6.339-12.72 0.3125-0.9375-0.2679-0.9821-9.732 0.1339 0.0893 1.027 3.259 2.634 11.07 14.6 1.607 0.6696"/>
      </g>
    </g>
    <g fill-rule="evenodd" stroke="#000" stroke-miterlimit="0" stroke-width=".8818" rigging:deck="stern" rigging:rail="sideRail" rigging:side="port">
      <circle transform="rotate(-4.735 -4464 262.9)" cx="170.9" cy="400.3" r=".7591"/>
      <circle transform="rotate(-4.735 -4464 262.9)" cx="177.5" cy="400.3" r=".7591"/>
      <circle transform="rotate(-4.735 -4464 262.9)" cx="184.1" cy="400.3" r=".7591"/>
      <circle transform="rotate(-4.735 -4464 262.9)" cx="190.7" cy="400.3" r=".7591"/>
    </g>
    <g transform="matrix(1 0 0 -1 -1.217e-8 145.8)" fill-rule="evenodd" stroke="#000" stroke-miterlimit="0" stroke-width=".8818" rigging:deck="stern" rigging:rail="sideRail" rigging:side="starboard">
      <circle transform="rotate(-4.735 -4464 262.9)" cx="170.9" cy="400.3" r=".7591"/>
      <circle transform="rotate(-4.735 -4464 262.9)" cx="177.5" cy="400.3" r=".7591"/>
      <circle transform="rotate(-4.735 -4464 262.9)" cx="184.1" cy="400.3" r=".7591"/>
      <circle transform="rotate(-4.735 -4464 262.9)" cx="190.7" cy="400.3" r=".7591"/>
    </g>
    <g fill-rule="evenodd" stroke="#000" stroke-miterlimit="0" stroke-width=".8818" rigging:deck="stern" rigging:rail="shroudsRail" rigging:side="port">
      <circle transform="rotate(-8.297 -2553 70.82)" cx="93.99" cy="409.5" r=".7591"/>
      <circle transform="rotate(-8.297 -2553 70.82)" cx="100.6" cy="409.5" r=".7591"/>
      <circle transform="rotate(-8.297 -2553 70.82)" cx="107.2" cy="409.5" r=".7591"/>
      <circle transform="rotate(-8.297 -2553 70.82)" cx="113.8" cy="409.5" r=".7591"/>
      <circle transform="rotate(-8.297 -2553 70.82)" cx="120.4" cy="409.5" r=".7591"/>
    </g>
    <g transform="matrix(1 0 0 -1 0 145.6)" fill-rule="evenodd" stroke="#000" stroke-miterlimit="0" stroke-width=".8818" rigging:deck="stern" rigging:rail="shroudsRail" rigging:side="starboard">
      <circle transform="rotate(-8.297 -2553 70.82)" cx="93.99" cy="409.5" r=".7591"/>
      <circle transform="rotate(-8.297 -2553 70.82)" cx="100.6" cy="409.5" r=".7591"/>
      <circle transform="rotate(-8.297 -2553 70.82)" cx="107.2" cy="409.5" r=".7591"/>
      <circle transform="rotate(-8.297 -2553 70.82)" cx="113.8" cy="409.5" r=".7591"/>
      <circle transform="rotate(-8.297 -2553 70.82)" cx="120.4" cy="409.5" r=".7591"/>
    </g>
    <g transform="translate(5.84 -2.641)" fill-rule="evenodd" stroke="#000" stroke-miterlimit="0" stroke-width=".88" rigging:deck="stern" rigging:rail="atMast" rigging:side="port">
      <ellipse transform="rotate(-36.15)" cx="75.65" cy="128.8" rx="1.045" ry="3.527"/>
      <ellipse transform="rotate(8.781)" cx="158.2" cy="34.17" rx="1.045" ry="3.527"/>
    </g>
    <g transform="matrix(1 0 0 -1 5.84 148.3)" fill-rule="evenodd" stroke="#000" stroke-miterlimit="0" stroke-width=".88" rigging:deck="stern" rigging:rail="atMast" rigging:side="starboard">
      <ellipse transform="rotate(-36.15)" cx="75.65" cy="128.8" rx="1.045" ry="3.527"/>
      <ellipse transform="rotate(8.781)" cx="158.2" cy="34.17" rx="1.045" ry="3.527"/>
    </g>
    <g stroke="#000" rigging:deck="stern" rigging:rail="poopBulwark" rigging:side="port">
      <g transform="translate(-1.75 -4.75)">
        <ellipse transform="rotate(-18.75 -1132 -71.94)" cx="-74.06" cy="420.4" rx="4.104" ry="2.557" fill="#fff" fill-opacity=".001" fill-rule="evenodd" stroke-miterlimit=".3" stroke-width=".88"/>
        <path transform="translate(-36.94 -367.6)" d="m61.96 411.7 3.977 9.218" stroke-width="1px"/>
        <path transform="translate(-36.94 -367.6)" d="m59.62 412.7 3.977 9.218" stroke-width="1px"/>
      </g>
      <g transform="matrix(.7557 -.1305 .1305 .7557 -379.4 -194.3)" fill="#fff" fill-opacity=".001" fill-rule="evenodd" stroke-linecap="round" stroke-linejoin="round" stroke-width=".88">
        <path d="m510.6 395.3 6.339-12.72-0.3125-0.9375 0.2679-0.9821 9.732 0.1339-0.0893 1.027-3.259 2.634-11.07 14.6-1.607 0.6696"/>
        <path d="m510.5 395.2-6.339-12.72 0.3125-0.9375-0.2679-0.9821-9.732 0.1339 0.0893 1.027 3.259 2.634 11.07 14.6 1.607 0.6696"/>
      </g>
      <ellipse transform="rotate(87.79)" cx="27.54" cy="-86.17" rx="1.045" ry="3.527" fill-rule="evenodd" stroke-miterlimit="0" stroke-width=".88"/>
    </g>
    <g transform="matrix(1 0 0 -1 0 146.4)" stroke="#000" rigging:deck="stern" rigging:ignoreDeck="true" rigging:rail="poopBulwark" rigging:side="starboard">
      <g transform="translate(-1.75 -4.75)">
        <ellipse transform="rotate(-18.75 -1132 -71.94)" cx="-74.06" cy="420.4" rx="4.104" ry="2.557" fill="#fff" fill-opacity=".001" fill-rule="evenodd" stroke-miterlimit=".3" stroke-width=".88"/>
        <path transform="translate(-36.94 -367.6)" d="m61.96 411.7 3.977 9.218" stroke-width="1px"/>
        <path transform="translate(-36.94 -367.6)" d="m59.62 412.7 3.977 9.218" stroke-width="1px"/>
      </g>
      <g transform="matrix(.7557 -.1305 .1305 .7557 -379.4 -194.3)" fill="#fff" fill-opacity=".001" fill-rule="evenodd" stroke-linecap="round" stroke-linejoin="round" stroke-width=".88">
        <path d="m510.6 395.3 6.339-12.72-0.3125-0.9375 0.2679-0.9821 9.732 0.1339-0.0893 1.027-3.259 2.634-11.07 14.6-1.607 0.6696"/>
        <path d="m510.5 395.2-6.339-12.72 0.3125-0.9375-0.2679-0.9821-9.732 0.1339 0.0893 1.027 3.259 2.634 11.07 14.6 1.607 0.6696"/>
      </g>
      <ellipse transform="rotate(87.79)" cx="27.54" cy="-86.17" rx="1.045" ry="3.527" fill-rule="evenodd" stroke-miterlimit="0" stroke-width=".88"/>
    </g>
    <g rigging:deck="stern" rigging:ignoreDeck="true" rigging:rail="poopFlagstaff" rigging:side="port">
      <ellipse transform="rotate(52.79)" cx="81.29" cy=".4809" rx="1.126" ry="4.735" fill-rule="evenodd" stroke="#000" stroke-linecap="round" stroke-linejoin="round" stroke-width=".88"/>
    </g>
    <g rigging:deck="stern" rigging:ignoreDeck="true" rigging:rail="poopFlagstaff" rigging:side="starboard">
      <ellipse transform="matrix(.6047 -.7965 -.7965 -.6047 0 0)" cx="-34.81" cy="-87.66" rx="1.126" ry="4.735" fill-rule="evenodd" stroke="#000" stroke-linecap="round" stroke-linejoin="round" stroke-width=".88"/>
    </g>
  </g>
</svg>
