<?xml version="1.0" standalone="no"?>
<!DOCTYPE svg PUBLIC "-//W3C//DTD SVG 20010904//EN"
 "http://www.w3.org/TR/2001/REC-SVG-20010904/DTD/svg10.dtd">
<svg version="1.0" xmlns="http://www.w3.org/2000/svg"
 width="114.000000pt" height="114.000000pt" viewBox="0 0 114.000000 114.000000"
 preserveAspectRatio="xMidYMid meet">
<metadata>
Created by potrace 1.11, written by Peter Selinger 2001-2013
</metadata>
<g transform="translate(0.000000,114.000000) scale(0.100000,-0.100000)"
fill="#000000" stroke="none">
<path d="M520 1075 c-10 -12 -6 -29 16 -85 15 -38 29 -70 31 -70 3 0 13 10 23
22 17 21 19 21 86 9 95 -18 110 -14 106 29 -2 19 -11 50 -20 69 l-17 34 -106
3 c-84 3 -109 1 -119 -11z"/>
<path d="M360 905 c0 -3 8 -22 19 -43 10 -20 22 -52 26 -70 5 -24 12 -32 23
-30 18 4 21 33 9 81 l-7 27 175 0 c199 0 186 6 226 -101 46 -119 34 -248 -39
-424 -30 -72 -42 -91 -60 -93 -13 -2 -22 2 -22 10 0 8 -22 48 -50 90 -59 90
-74 145 -56 200 13 37 13 38 -9 38 -28 0 -35 -17 -35 -83 0 -69 13 -110 55
-178 19 -31 35 -62 35 -68 0 -55 -86 118 -99 198 -4 29 -5 70 -1 91 7 37 6 40
-16 40 -22 0 -23 -4 -27 -82 l-3 -83 -2 83 c-2 76 -3 82 -23 82 -21 0 -22 -2
-16 -117 3 -70 11 -136 21 -162 21 -57 20 -61 -9 -61 l-25 0 0 170 c0 163 -1
170 -20 170 -19 0 -20 -7 -20 -169 l0 -169 -47 -7 c-64 -9 -101 -30 -109 -60
-13 -54 35 -115 119 -150 36 -15 39 -14 73 9 20 13 70 37 112 53 54 20 89 40
120 70 33 33 50 43 76 43 32 0 34 3 79 98 59 127 77 189 83 292 7 101 -15 183
-68 261 l-33 49 -227 0 c-126 0 -228 -2 -228 -5z m204 -617 c12 -29 13 -38 4
-38 -7 0 -23 33 -35 74 -27 89 -30 121 -4 51 10 -27 26 -67 35 -87z m-154
-134 c0 -52 1 -55 18 -43 14 12 14 10 -2 -8 -10 -12 -16 -29 -12 -38 9 -24
-51 13 -75 47 -32 44 -22 79 26 91 43 10 45 9 45 -49z m80 53 c0 -2 -9 -12
-20 -22 -19 -18 -20 -17 -20 3 0 15 6 22 20 22 11 0 20 -2 20 -3z m80 -6 c0
-5 -28 -25 -62 -45 -35 -20 -53 -28 -40 -19 13 10 38 30 55 45 33 29 47 34 47
19z m80 0 c0 -5 -14 -20 -32 -32 l-31 -23 23 32 c23 32 40 41 40 23z"/>
<path d="M260 710 c69 -135 64 -277 -15 -462 -5 -14 -2 -18 12 -18 12 0 26 13
37 38 72 148 83 303 31 425 -7 16 4 17 171 15 l179 -3 24 -48 c29 -58 31 -149
7 -243 -20 -76 -20 -74 3 -74 14 0 24 18 45 80 34 103 34 177 1 245 -44 91
-23 85 -284 85 l-231 0 20 -40z"/>
</g>
</svg>
