<?xml version="1.0" standalone="no"?>
<!DOCTYPE svg PUBLIC "-//W3C//DTD SVG 20010904//EN"
 "http://www.w3.org/TR/2001/REC-SVG-20010904/DTD/svg10.dtd">
<svg version="1.0" xmlns="http://www.w3.org/2000/svg"
 width="16.000000pt" height="16.000000pt" viewBox="0 0 16.000000 16.000000"
 preserveAspectRatio="xMidYMid meet">
<metadata>
Created by potrace 1.11, written by Peter Selinger 2001-2013
</metadata>
<g transform="translate(0.000000,16.000000) scale(0.014035,-0.014035)"
fill="#000000" stroke="none">
<path d="M510 1095 c-10 -12 -6 -29 16 -85 l27 -70 21 19 c17 16 30 19 66 14
25 -3 65 -6 90 -7 l45 -1 -3 35 c-2 19 -11 50 -20 69 l-17 34 -106 3 c-84 3
-109 1 -119 -11z"/>
<path d="M350 925 c0 -3 8 -22 19 -43 10 -20 22 -52 26 -70 3 -18 11 -30 16
-26 5 3 9 0 9 -5 0 -7 -35 -11 -95 -11 l-95 0 20 -40 c69 -135 64 -277 -15
-462 -5 -14 -2 -18 13 -18 27 0 68 93 98 225 13 58 -1 169 -31 238 -7 16 4 17
171 15 l179 -3 23 -45 c27 -54 30 -164 7 -250 -19 -70 -19 -70 4 -70 14 0 24
18 45 80 34 103 34 177 1 245 -42 88 -36 85 -181 85 l-129 0 0 33 c0 17 -4 44
-8 60 l-7 27 175 0 c199 0 186 6 226 -101 46 -119 34 -248 -39 -424 -30 -72
-42 -91 -60 -93 -14 -2 -22 2 -22 11 0 8 -23 50 -52 93 -44 67 -53 88 -56 135
-2 31 1 66 7 78 11 19 9 21 -13 21 -31 0 -39 -25 -34 -105 1 -30 -1 -55 -5
-55 -5 0 -7 36 -5 80 3 77 2 80 -19 80 -21 0 -22 -5 -26 -82 l-3 -83 -2 83
c-2 74 -4 82 -21 82 -16 0 -21 -8 -24 -47 l-3 -48 -2 48 c-2 40 -5 47 -22 47
-22 0 -23 -17 -20 -246 l1 -92 -48 -7 c-101 -15 -131 -54 -97 -125 15 -31 33
-46 80 -70 l61 -31 35 23 c20 14 71 38 114 54 56 21 91 41 122 71 33 33 50 43
76 43 32 0 34 3 79 98 59 127 77 189 83 292 7 101 -15 183 -68 261 l-33 49
-227 0 c-126 0 -228 -2 -228 -5z m104 -495 c9 -84 10 -95 18 -100 3 -3 10 -18
13 -33 6 -24 5 -27 -19 -27 l-26 0 0 112 c0 119 5 136 14 48z m169 -110 c18
-26 22 -50 9 -50 -9 0 -82 148 -82 165 0 6 13 -13 28 -41 16 -27 36 -61 45
-74z m-109 95 c3 -8 1 -15 -4 -15 -6 0 -10 7 -10 15 0 8 2 15 4 15 2 0 6 -7
10 -15z m42 -112 c10 -27 9 -33 -2 -33 -8 0 -15 9 -15 20 -1 11 -2 26 -3 33
-1 6 -4 14 -7 17 -4 3 -9 16 -13 30 -6 22 -5 22 11 -5 9 -16 23 -45 29 -62z
m-156 -124 c0 -44 2 -50 17 -45 15 6 15 5 -1 -13 -10 -11 -16 -27 -13 -36 11
-26 -9 -17 -52 25 -56 55 -55 98 4 113 43 10 45 8 45 -44z m80 48 c0 -2 -9
-12 -20 -22 -19 -18 -20 -17 -20 3 0 15 6 22 20 22 11 0 20 -2 20 -3z m74 -9
c-2 -7 -30 -28 -62 -46 -31 -17 -47 -24 -34 -15 13 10 38 30 55 45 35 30 49
35 41 16z m84 0 c-2 -6 -15 -18 -28 -27 l-24 -16 18 28 c18 27 41 38 34 15z"/>
</g>
</svg>
