<svg version="1" xmlns="http://www.w3.org/2000/svg" width="933.333" height="933.333" viewBox="0 0 700.000000 700.000000"><path d="M342.1 36.6c-6.6 1.8-15.4 6.4-20.3 10.7l-3.7 3.2 14.9 38c8.2 20.9 15.5 39.1 16.1 40.5l1.1 2.5 1.9-3.8c1.1-2 4.3-6.1 7.3-9 4.3-4.4 6.6-5.8 12.5-7.7 11.3-3.6 21.7-2.6 51.6 5 31.9 8.2 43 8.5 51.5 1.4 3.2-2.8 3.2-1.6-.1-21.4-4.6-26.9-12.1-43.8-25.4-57.6l-3.4-3.5-5.1 3.5c-13.4 9.2-26.3 10.1-49.5 3.6-24-6.8-38.5-8.4-49.4-5.4zM231.3 156.2c6.8 9.3 10.7 16.2 15 26.8 3.5 8.5 7.8 23.5 9.3 32 .4 2.5.9 4.8 1 5.2.1.5.2 1.2.3 1.8 0 .6 3.5 1 8.1 1h7.9l-.4-3.8c-.2-2-.6-6.9-1-10.7-1-10.6-4.3-25.2-7.6-32.9-1.6-3.7-2.9-6.9-2.9-7.1 0-.2 50-.3 111-.3h111.1l2.3 3.1c2.7 3.7 13.2 22.1 16.3 28.7 8 16.9 10.1 21.9 14 33 6.4 18.1 9.9 32.3 12.7 52 .9 6.3 1.7 19.3 1.9 28 .1 8.5-1.1 31.9-1.7 32.9-.2.3-.7 3.5-1 7.1-.9 8.1-5 27.7-8.3 39.5-1.4 4.9-2.7 9.8-2.9 10.8-1.9 9.6-17.8 51.5-37.1 97.6-6.3 15.1-12.3 29.7-13.4 32.6l-1.9 5.2-15.7-.1-15.6-.1-.4-4c-1.7-17.3-8.8-31.1-30.9-60-18.2-23.9-26.9-38.8-32.8-56.7-8.1-24.3-9-43-3-62 1.5-4.6 4.1-11.2 5.9-14.8l3.3-6.6-8.6.1-8.7.1-1.7 3.4c-2.6 5.3-5.7 15.6-7.2 24.5-1.4 7.6-1.5 32.2-.3 38.5.3 1.4.8 4.7 1.2 7.5 1 8.1 5.3 24.4 8.4 32.6 6.6 17 10.9 24.5 33.3 56.9 10.2 14.8 14.7 25 16.2 36.7l.5 4.1-11.6-.1c-11.6-.2-11.6-.2-12-2.7-1.5-10-8.8-27.2-20.3-47.5-24-42.7-32.2-71-31.5-108.5.3-14.7 1.6-25.1 4.6-36.8 1-4.1 1.9-7.8 1.9-8.2 0-.8-15.6-.7-16.4.1-.4.3-.9 2.6-1.2 5-.3 2.4-.7 5.5-1 6.9-2.1 12.7-2.5 60.2-.5 72 .7 4.1 1.5 8.8 1.7 10.5 1 6.5 5.4 22.5 8.7 31.5 4.3 11.8 5.6 14.8 15 34 4.1 8.5 8.6 18.2 10 21.5 3.3 8 6.6 20 5.8 21.3-.3.5-5.6 1-12.3 1H337l-.1-3.1c0-1.8-.2-4.1-.4-5.2-2.3-12.3-3.1-16-5.2-22.5-2.7-8.3-8-23.4-9.3-26.5-2.1-4.8-7.3-21.8-10-32.5-5.8-23-6.6-33-7.4-86.5-.3-14.9-.5-27.1-.5-27.2-.1 0-3.5-.1-7.7 0h-7.5l.5 46.1c.2 25.4.7 47.4 1 49.1.2 1.6.7 5.3 1 8.1.3 2.9.7 6.2 1 7.5.3 1.3.8 4.2 1 6.4 1.2 10.9 5.8 28.9 13.5 52.8 5.1 16.1 8.5 30.6 7.6 33-.4 1-4.9 1.2-20.3 1.1-10.8-.1-19.9-.2-20.2-.3-.3 0-.5-45.4-.4-100.8 0-55.5-.2-101.4-.4-102.1-.3-.8-2.9-1.2-8.3-1.2H257v204.6h-6.2c-7.8.1-26.9 1.4-27.8 1.9-.3.2-2.8.6-5.6 1-7.6.9-22.5 5.1-29.6 8.3-29.4 13.5-34.3 39.2-13 67.2 15.4 20.3 45.2 39.3 76.4 49l5.8 1.8 6.2-4.8c12.9-9.7 31.8-20.3 49.8-27.9 3-1.2 6.4-2.7 7.5-3.2 1.1-.4 11.2-4.5 22.5-8.9s21.4-8.4 22.5-8.9c1.1-.5 6.4-2.8 11.7-5.1 19.5-8.4 36.2-19.5 44-29.3 4.3-5.5 9.8-16.5 9.8-19.7 0-2.4-2.1-2.2 24.5-2.5 12.1-.1 22.5-.3 23.2-.4 1.6-.1 25.8-49.3 35.8-72.6.7-1.7 2.2-5 3.3-7.5 6.7-15.2 23.6-61.4 25.7-70.7.2-1 1.6-6.1 3-11.3 1.4-5.2 3.7-14.7 5-21 2.2-10.9 2.7-13.7 4-22.8.3-2 .7-4.6 1-5.7 2.2-10.6 2.2-64.7 0-68.5-.2-.3-.6-2.6-1-5-5.6-38.6-24.6-80.3-52.9-115.8L496 149H226l5.3 7.2zm24.6 403.1c.3.9.5 17.4.5 36.7-.1 19.2 0 35 .3 35s1.4-1 10.8-9.4c2.2-2 13.7-10.9 25.5-19.9 26.6-20.1 34.6-27.5 39.3-36.5l3.6-6.7 11.8.1c6.5.1 12.2.2 12.6.3.5 0-.4 2.4-2 5.2-4 7.2-14.3 16.5-29 26.2-12.8 8.4-15.1 9.8-25.2 15.7-17.8 10.4-35.3 23.1-43.6 31.4-3.5 3.6-4.1 4.7-4.1 8.8-.1 2.7.1 4.8.3 4.8.3 0 3.4-2.5 7.1-5.6 13.9-11.8 29.4-21 64.7-38.3 12.7-6.2 26.7-13.7 31.1-16.7 12.3-8.1 19.9-17.1 23.3-27.6l1.2-3.6h11.4c6.3.1 11.5.3 11.5.5s-1.2 2.9-2.6 6c-7 14.7-26.5 28.4-66.1 46.4C308.2 625.7 291 634 281 640c-8.7 5.1-19 12.9-22.8 17.2-1.4 1.5-1.8 1.5-4.6.1-4.3-2.1-22.8-14.6-26.8-18-1.8-1.5-7.1-6.6-11.8-11.3-36.1-36-25.4-66.1 24.7-69.6 4.8-.4 8.9-.7 9-.8.1 0 1.6-.1 3.4 0 2 .1 3.5.7 3.8 1.7zm55.7.5c-3.4 6.5-14.5 20.1-25.1 30.8-6.2 6.3-11.7 11.4-12.2 11.4-.6 0-1-38.1-.4-43.8.1-.9 4.7-1.2 19.6-1.2h19.6l-1.5 2.8z"/><path d="M157 242.6c0 .3 1.9 4.1 4.3 8.3 13.4 23.8 26.7 58.6 30.2 79.1.3 1.9 1 5.4 1.6 7.7 1.1 5.2 2.8 16.5 3.7 25.3.9 8.5.9 44.5 0 53.5-1.4 13.5-1.6 15.1-3.3 24-.9 5-1.9 10-2.1 11.3-3.5 18.3-16.9 57.5-25.8 74.9-1.3 2.7-3.1 6.5-3.9 8.6l-1.6 3.7 7.7-.2 7.7-.3 5.3-10.5c10.7-21.5 23.4-55.2 27.7-73.9 2.4-10.2 6.5-30.9 7-35.6.4-3.3.9-6.9 1.1-8 2.4-12.5 2.3-54.1-.1-67.9-.2-1.1-.9-5.3-1.5-9.1-1.6-10.5-6.4-28.8-10.3-39.5-3.4-9.2-12.9-29.5-14.8-31.5-.5-.5-.9-1.2-.9-1.5 0-.3 50-.6 111-.6l111.1.1 3 3.5c15.5 17.7 28.9 48.6 32.4 74.5 2.3 16.6 2.3 45.6.1 57-.2 1.1-.7 4.5-1.1 7.5-2.4 18.3-13.5 61.4-20.1 78.3-.6 1.7-.1 1.8 7.6 1.5l8.3-.3 2.3-5.5c5.3-12.8 17.3-46.9 21.7-62 2.9-9.4 7.3-29.1 8.3-36 1.3-10 1.3-36.7 0-45-3.4-21.4-10.3-39.8-22.2-59.1-5.2-8.3-16.2-23.3-21.8-29.7l-2.8-3.1-134.9-.1c-74.2 0-134.9.3-134.9.6z"/></svg>