<?xml version="1.0" standalone="no"?>
<!DOCTYPE svg PUBLIC "-//W3C//DTD SVG 20010904//EN"
 "http://www.w3.org/TR/2001/REC-SVG-20010904/DTD/svg10.dtd">
<svg version="1.0" xmlns="http://www.w3.org/2000/svg"
 width="71.000000pt" height="71.000000pt" viewBox="0 0 71.000000 71.000000"
 preserveAspectRatio="xMidYMid meet">
<metadata>
Created by potrace 1.11, written by Peter Selinger 2001-2013
</metadata>
<g transform="translate(0.000000,71.000000) scale(0.100000,-0.100000)"
fill="#000000" stroke="none">
<path d="M85 485 c-36 -35 -34 -110 3 -190 61 -128 196 -194 336 -165 31 6 56
13 56 15 0 2 -4 15 -9 29 -9 23 -12 24 -48 14 -60 -16 -193 6 -193 32 0 4 12
10 28 14 40 9 63 30 65 62 2 25 7 30 42 35 79 13 112 99 59 153 -19 19 -37 26
-63 26 -66 -1 -91 -38 -91 -137 0 -40 -5 -74 -12 -81 -17 -17 -69 -15 -96 4
-28 19 -28 34 -1 34 32 0 79 53 79 90 0 76 -102 119 -155 65z m90 -65 c0 -30
-33 -40 -51 -15 -19 25 -6 47 25 43 20 -2 26 -8 26 -28z m210 0 c0 -18 -6 -26
-23 -28 -13 -2 -25 3 -28 12 -10 26 4 48 28 44 17 -2 23 -10 23 -28z"/>
<path d="M509 481 c-20 -20 -29 -39 -29 -61 0 -37 47 -90 79 -90 26 0 26 -6 0
-49 -19 -32 -19 -34 -2 -47 26 -20 30 -18 56 24 28 44 47 96 47 128 0 19 -5
24 -25 24 -14 0 -34 -5 -44 -12 -26 -16 -53 -3 -49 24 3 21 7 23 61 20 64 -4
71 5 32 43 -35 36 -88 34 -126 -4z"/>
<path d="M453 268 c3 -7 13 -36 23 -65 12 -37 21 -50 32 -45 8 3 20 -2 27 -12
14 -18 52 -29 59 -17 3 5 -6 18 -19 31 -19 17 -22 27 -14 36 8 10 -2 21 -45
49 -59 38 -70 42 -63 23z"/>
</g>
</svg>
