<svg version="1.1" viewBox="0 0 675.21811 145.47969" xmlns="http://www.w3.org/2000/svg" xmlns:rigging="https://github.com/jolaf/rigging" xmlns:xlink="http://www.w3.org/1999/xlink">
  <defs>
    <rect id="deckMask" x="277.27" y="-.80917" width="220.71" height="146.64"/>
    <symbol id="mastMask">
      <path d="m425.11 59.525l26.5 26.5z"/>
      <path d="m451.61 59.525l-26.5 26.5z"/>
    </symbol>
    <filter id="filterRightAnswer" x="-50" y="-50" width="100" height="100">
      <feFlood flood-color="green" result="flood"/>
      <feComposite in="flood" in2="SourceGraphic" operator="in" result="mask"/>
      <feMorphology in="mask" operator="dilate" radius="4" result="dilated" stdDeviation="6.6"/>
      <feGaussianBlur in="dilated" radius="6" result="blurred" stdDeviation="3.3"/>
      <feMerge>
        <feMergeNode in="blurred"/>
        <feMergeNode in="SourceGraphic"/>
      </feMerge>
    </filter>
    <filter id="filterWrongAnswer" x="-50" y="-50" width="100" height="100">
      <feFlood flood-color="red" result="flood"/>
      <feComposite in="flood" in2="SourceGraphic" operator="in" result="mask"/>
      <feMorphology in="mask" operator="dilate" radius="4" result="dilated" stdDeviation="6.6"/>
      <feGaussianBlur in="dilated" radius="6" result="blurred" stdDeviation="3.3"/>
      <feMerge>
        <feMergeNode in="blurred"/>
        <feMergeNode in="SourceGraphic"/>
      </feMerge>
    </filter>
    <filter id="filterHighlight" x="-50" y="-50" width="100" height="100">
      <feFlood flood-color="#fc0" result="flood"/>
      <feComposite in="flood" in2="SourceGraphic" operator="in" result="mask"/>
      <feMorphology in="mask" operator="dilate" radius="4" result="dilated" stdDeviation="6.6"/>
      <feGaussianBlur in="dilated" radius="6" result="blurred" stdDeviation="3.3"/>
      <feMerge>
        <feMergeNode in="blurred"/>
        <feMergeNode in="SourceGraphic"/>
      </feMerge>
    </filter>
  </defs>
  <g id="drawing" transform="translate(-36.919 -367.63)">
    <path d="m137.89 496.36 0.24873-112.22" fill="none" stroke="#000"/>
    <path d="m278.8 508.34-0.0704-136.42" fill="none" stroke="#000"/>
    <path d="m682.59 395.49-8.0357-2.125c-0.162 31.116-0.0623 65.644 0 94.118l8.0357-2.125v-89.868z" fill="none" stroke="#000"/>
    <path d="m141.18 383.35v10.38c-0.17473 0.71291-0.43764 0.6722-0.68478 0.76631l-2.2255 0.0348" fill="none" stroke="#000"/>
    <ellipse transform="translate(36.919 367.63)" cx="40.678" cy="72.707" rx="4.4953" ry="4.4953" fill="none" stroke="#000"/>
    <rect x="138.91" y="435.3" width="8.4818" height="9.9488" fill="none" stroke="#000"/>
    <rect x="148.13" y="421.36" width="3.0405" height="38.031" fill="none" stroke="#000"/>
    <path d="m290.81 415.17h-8.1678c-4e-3 16.806-7e-3 33.613-0.0109 50.419h8.1678c4e-3 -16.806 7e-3 -33.613 0.0109-50.419z" fill="none" stroke="#000"/>
    <path d="m332.18 472.39h-8.0747v-64.019h8.0747v64.019z" fill="none" stroke="#000"/>
    <g fill="none" stroke="#000">
      <path d="m543.2 431.44v-23.112h8.1577v23.15"/>
      <path d="m551.29 431.23c1.3044 2.8755 1.9792 5.9965 1.9792 9.1637 0 3.1672-0.67479 6.2882-1.9792 9.1637" stroke-linejoin="round"/>
      <g transform="matrix(1 0 0 -1 -1.333e-5 880.78)">
        <path d="m543.2 431.44v-23.112h8.1577v23.15"/>
        <path d="m543.14 431.23c1.3044 2.8755 1.9792 5.9965 1.9792 9.1637 0 3.1672-0.67479 6.2883-1.9792 9.1637" stroke-linejoin="round"/>
      </g>
    </g>
    <rect transform="translate(3.5989e-6 4.8546e-5)" x="582.51" y="406.75" width="8.0469" height="67.236" fill="none" stroke="#000"/>
    <circle transform="translate(36.919 367.63)" cx="578.36" cy="72.838" r="14.805" fill="none" stroke="#000"/>
    <rect transform="translate(36.919 367.63)" x="603.65" y="48.055" width="6.7423" height="49.382" fill="none" stroke="#000"/>
    <path d="m131.06 495.74v-18.614c0.38862-1.2784 0.97345-1.2054 1.5232-1.3742l4.9504-0.0624" fill="none" stroke="#000"/>
    <circle cx="370.4" cy="440.47" r="14.805" fill="none" stroke="#000"/>
    <circle cx="188.4" cy="440.47" r="14.805" fill="none" stroke="#000"/>
    <g id="portDrawing">
      <path d="m37.019 398.02c222.98-35.656 522.98-45.656 674.96 5.1427" fill="none" stroke="#000"/>
      <path d="m305.95 370.64 0.25254 33.082c2.4412 1.3062 4.8824 1.2613 7.3236-0.12627v-33.335" fill="none" stroke="#000"/>
      <path d="m279.05 392.73c11.483-8.9948 11.262-15.064 12.374-21.466" fill="none" stroke="#000"/>
      <path d="m279.05 398.75c16.006-5.9455 25.097-19.221 26.516-28.111" fill="none" stroke="#000"/>
      <path d="m279.05 402.71c12.562-3.0671 19.688-7.145 26.769-13.858" fill="none" stroke="#000"/>
      <path d="m279.05 404.98c11.722 2.0062 20.149-0.13337 26.895-4.4194" fill="none" stroke="#000"/>
      <rect x="565.06" y="393.5" width="109.46" height="8.1077" fill="none" stroke="#000"/>
      <rect transform="matrix(1 -.0017331 .0020791 1 0 0)" x="578.04" y="387.06" width="57.042" height="5.6153" fill="none" stroke="#000" stroke-linecap="round"/>
      <rect x="324.1" y="408.34" width="84.366" height="8.2103" fill="none" stroke="#000"/>
      <rect x="318.03" y="375.58" width="68.166" height="6.51" fill="none" stroke="#000"/>
      <rect transform="rotate(-4.7351)" x="167.03" y="397.17" width="27.593" height="6.1536" fill="none" stroke="#000"/>
      <rect transform="rotate(-8.2973)" x="90.144" y="406.43" width="35" height="6.0609" fill="none" stroke="#000"/>
      <rect class="filled" x="582.48" y="414.9" width="8.0121" height="8.0121" stroke="#000"/>
      <rect class="filled" x="400.07" y="408.43" width="8.109" height="8.109" stroke="#000"/>
    </g>
    <use transform="matrix(1 0 0 -1 .12944 880.84)" xlink:href="#portDrawing"/>
  </g>
  <g display="none">
    <g id="deckMasks" class="modeDependent which" fill="#fff">
      <use class="deckMask" transform="matrix(.80532 0 0 1 274.69 0)" rigging:deck="fore" xlink:href="#deckMask"/>
      <use class="deckMask" rigging:deck="main" xlink:href="#deckMask"/>
      <use class="deckMask" transform="matrix(1.2558 0 0 1 -348.04 0)" rigging:deck="stern" xlink:href="#deckMask"/>
    </g>
  </g>
  <g id="mastMasks" class="modeDependent where" stroke="red">
    <use class="mastMask" transform="translate(140)" rigging:mast="fore" xlink:href="#mastMask"/>
    <use class="mastMask" transform="translate(-104.89)" rigging:mast="main" xlink:href="#mastMask"/>
    <use class="mastMask" transform="translate(-286.87)" rigging:mast="mizzen" xlink:href="#mastMask"/>
  </g>
  <g id="points" transform="translate(.020296 -7.1416e-6)">
    <g stroke="#000" rigging:deck="fore" rigging:isAcross="true" rigging:rail="frontRail" rigging:side="port">
      <circle transform="translate(-36.94 -367.63)" cx="678.43" cy="436.58" r="1.0672"/>
      <circle transform="translate(-36.94 -367.63)" cx="678.43" cy="428.98" r="1.0672"/>
      <circle transform="translate(-36.94 -367.63)" cx="678.43" cy="421.38" r="1.0672"/>
      <circle transform="translate(-36.94 -367.63)" cx="678.43" cy="413.78" r="1.0672"/>
      <circle transform="translate(-36.94 -367.63)" cx="678.43" cy="406.18" r="1.0672"/>
    </g>
    <g transform="translate(.00031977 38.75)" stroke="#000" rigging:deck="fore" rigging:isAcross="true" rigging:rail="frontRail" rigging:side="starboard">
      <circle transform="translate(-36.94 -367.63)" cx="678.43" cy="406.18" r="1.0672"/>
      <circle transform="translate(-36.94 -367.63)" cx="678.43" cy="413.78" r="1.0672"/>
      <circle transform="translate(-36.94 -367.63)" cx="678.43" cy="421.38" r="1.0672"/>
      <circle transform="translate(-36.94 -367.63)" cx="678.43" cy="428.98" r="1.0672"/>
      <circle transform="translate(-36.94 -367.63)" cx="678.43" cy="436.58" r="1.0672"/>
    </g>
    <g rigging:deck="fore" rigging:rail="behindFront" rigging:side="port">
      <ellipse transform="translate(-36.94 -367.63)" cx="685.09" cy="428.88" rx="1.1256" ry="4.7351" stroke="#000" stroke-linecap="round" stroke-linejoin="round"/>
    </g>
    <g rigging:deck="fore" rigging:rail="behindFront" rigging:side="starboard">
      <ellipse cx="648.15" cy="85.246" rx="1.1256" ry="4.7351" stroke="#000" stroke-linecap="round" stroke-linejoin="round"/>
    </g>
    <g stroke="#000" rigging:deck="fore" rigging:isAcross="true" rigging:rail="backRail" rigging:side="port">
      <circle cx="510.32" cy="60.032" r="1.0672"/>
      <circle cx="510.32" cy="52.492" r="1.0672"/>
      <circle cx="510.32" cy="44.952" r="1.0672"/>
    </g>
    <g transform="translate(0 41.012)" stroke="#000" rigging:deck="fore" rigging:isAcross="true" rigging:rail="backRail" rigging:side="starboard">
      <circle transform="translate(-36.94 -367.63)" cx="547.26" cy="412.58" r="1.0672"/>
      <circle transform="translate(-36.94 -367.63)" cx="547.26" cy="420.12" r="1.0672"/>
      <circle transform="translate(-36.94 -367.63)" cx="547.26" cy="427.66" r="1.0672"/>
    </g>
    <g stroke="#000" rigging:deck="fore" rigging:rail="sideRail" rigging:side="port">
      <circle transform="translate(-36.94 -367.63)" cx="571.23" cy="397.56" r="1.0672"/>
      <circle transform="translate(-36.94 -367.63)" cx="582.43" cy="397.56" r="1.0672"/>
      <circle transform="translate(-36.94 -367.63)" cx="593.63" cy="397.56" r="1.0672"/>
      <circle transform="translate(-36.94 -367.63)" cx="604.83" cy="397.56" r="1.0672"/>
      <circle transform="translate(-36.94 -367.63)" cx="616.03" cy="397.56" r="1.0672"/>
      <circle transform="translate(-36.94 -367.63)" cx="627.23" cy="397.56" r="1.0672"/>
      <circle transform="translate(-36.94 -367.63)" cx="638.43" cy="397.56" r="1.0672"/>
      <circle transform="translate(-36.94 -367.63)" cx="649.63" cy="397.56" r="1.0672"/>
    </g>
    <g transform="translate(.00034263 85.75)" stroke="#000" rigging:deck="fore" rigging:rail="sideRail" rigging:side="starboard">
      <circle transform="translate(-36.94 -367.63)" cx="571.23" cy="397.56" r="1.0672"/>
      <circle transform="translate(-36.94 -367.63)" cx="582.43" cy="397.56" r="1.0672"/>
      <circle transform="translate(-36.94 -367.63)" cx="593.63" cy="397.56" r="1.0672"/>
      <circle transform="translate(-36.94 -367.63)" cx="604.83" cy="397.56" r="1.0672"/>
      <circle transform="translate(-36.94 -367.63)" cx="616.03" cy="397.56" r="1.0672"/>
      <circle transform="translate(-36.94 -367.63)" cx="627.23" cy="397.56" r="1.0672"/>
      <circle transform="translate(-36.94 -367.63)" cx="638.43" cy="397.56" r="1.0672"/>
      <circle transform="translate(-36.94 -367.63)" cx="649.63" cy="397.56" r="1.0672"/>
    </g>
    <g transform="translate(-36.94 -367.63)" stroke="#000" rigging:deck="fore" rigging:rail="shroudsRail" rigging:side="port">
      <circle cx="584.98" cy="388.85" r="1.0672"/>
      <circle cx="596.18" cy="388.85" r="1.0672"/>
      <circle cx="607.38" cy="388.85" r="1.0672"/>
      <circle cx="618.58" cy="388.85" r="1.0672"/>
      <circle cx="629.78" cy="388.85" r="1.0672"/>
    </g>
    <g transform="translate(-36.939 -264.55)" stroke="#000" rigging:deck="fore" rigging:rail="shroudsRail" rigging:side="starboard">
      <circle cx="584.98" cy="388.85" r="1.0672"/>
      <circle cx="596.18" cy="388.85" r="1.0672"/>
      <circle cx="607.38" cy="388.85" r="1.0672"/>
      <circle cx="618.58" cy="388.85" r="1.0672"/>
      <circle cx="629.78" cy="388.85" r="1.0672"/>
    </g>
    <g transform="translate(542 14.177)" rigging:deck="fore" rigging:rail="onDeckFront" rigging:side="port">
      <ellipse transform="rotate(90)" cx="23.538" cy="-88.175" rx="1.0446" ry="3.5268" stroke="#000"/>
    </g>
    <g transform="translate(544 80.457)" rigging:deck="fore" rigging:rail="onDeckFront" rigging:side="starboard">
      <ellipse transform="rotate(90)" cx="27.538" cy="-86.175" rx="1.0446" ry="3.5268" stroke="#000"/>
    </g>
    <g rigging:deck="fore" rigging:rail="frontFists" rigging:side="port">
      <rect transform="translate(-36.94 -367.63)" x="639.91" y="419.85" width="8.0121" height="8.0121" stroke="#000"/>
    </g>
    <g rigging:deck="fore" rigging:rail="frontFists" rigging:side="starboard">
      <rect x="602.97" y="85.275" width="8.0121" height="8.0121" stroke="#000"/>
    </g>
    <g rigging:deck="fore" rigging:rail="backPillars" rigging:side="port">
      <ellipse transform="rotate(90 165.35 -202.28)" cx="419.05" cy="-592.41" rx="1.1256" ry="4.7351" stroke="#000" stroke-linecap="round" stroke-linejoin="round"/>
    </g>
    <g rigging:deck="fore" rigging:rail="backPillars" rigging:side="starboard">
      <ellipse transform="rotate(90)" cx="94.558" cy="-555.47" rx="1.1256" ry="4.7351" stroke="#000" stroke-linecap="round" stroke-linejoin="round"/>
    </g>
    <g stroke="#000" rigging:deck="fore" rigging:isAcross="true" rigging:rail="behindMastRail" rigging:side="port">
      <circle transform="translate(-36.94 -367.63)" cx="586.42" cy="436.58" r="1.0672"/>
      <circle transform="translate(-36.94 -367.63)" cx="586.42" cy="428.98" r="1.0672"/>
      <circle transform="translate(-36.94 -367.63)" cx="586.42" cy="410.42" r="1.0672"/>
    </g>
    <g transform="matrix(1 0 0 -1 .000342 145.33)" stroke="#000" rigging:deck="fore" rigging:isAcross="true" rigging:rail="behindMastRail" rigging:side="starboard">
      <circle transform="translate(-36.94 -367.63)" cx="586.42" cy="436.58" r="1.0672"/>
      <circle transform="translate(-36.94 -367.63)" cx="586.42" cy="428.98" r="1.0672"/>
      <circle transform="translate(-36.94 -367.63)" cx="586.42" cy="410.42" r="1.0672"/>
    </g>
    <g rigging:deck="fore" rigging:rail="atMastFront" rigging:side="center">
      <ellipse transform="rotate(90)" cx="72.709" cy="-594.66" rx="1.1256" ry="4.7351" stroke="#000" stroke-linecap="round" stroke-linejoin="round"/>
    </g>
    <g transform="translate(0,-2)" rigging:deck="fore" rigging:rail="atMastSide" rigging:side="port">
      <ellipse transform="rotate(41.161 471.07 -233)" cx="752.55" cy="-89.318" rx="1.1256" ry="4.7351" stroke="#000" stroke-linecap="round" stroke-linejoin="round"/>
    </g>
    <g transform="translate(0,2)" rigging:deck="fore" rigging:rail="atMastSide" rigging:side="starboard">
      <ellipse transform="rotate(131.16)" cx="-323.56" cy="-499.25" rx="1.1256" ry="4.7351" stroke="#000" stroke-linecap="round" stroke-linejoin="round"/>
    </g>
    <g fill="#fff" fill-opacity=".001" stroke="#000" stroke-linecap="round" stroke-linejoin="round" rigging:deck="main" rigging:rail="bulwark" rigging:side="port">
      <g transform="translate(-103.9 -375.31)">
        <path d="m510.58 395.26 6.3393-12.723-0.3125-0.9375 0.26786-0.98214 9.7321 0.13393-0.0893 1.0268-3.2589 2.6339-11.071 14.598-1.6072 0.66965"/>
        <path d="m510.49 395.22-6.3393-12.723 0.3125-0.9375-0.26786-0.98214-9.7321 0.13393 0.0893 1.0268 3.2589 2.6339 11.071 14.598 1.6072 0.66965"/>
      </g>
      <rect transform="translate(-36.94 -367.63)" x="467.41" y="377.54" width="18.143" height="9.6126" rx="2.4"/>
      <g transform="translate(-36.404 -370.67)">
        <path d="m510.58 395.26 6.3393-12.723-0.3125-0.9375 0.26786-0.98214 9.7321 0.13393-0.0893 1.0268-3.2589 2.6339-11.071 14.598-1.6072 0.66965"/>
        <path d="m510.49 395.22-6.3393-12.723 0.3125-0.9375-0.26786-0.98214-9.7321 0.13393 0.0893 1.0268 3.2589 2.6339 11.071 14.598 1.6072 0.66965"/>
      </g>
    </g>
    <g transform="matrix(1 0 0 -1 .0001061 146.08)" fill="#fff" fill-opacity=".001" stroke="#000" stroke-linecap="round" stroke-linejoin="round" rigging:deck="main" rigging:rail="bulwark" rigging:side="starboard">
      <g transform="translate(-103.9 -375.31)">
        <path d="m510.58 395.26 6.3393-12.723-0.3125-0.9375 0.26786-0.98214 9.7321 0.13393-0.0893 1.0268-3.2589 2.6339-11.071 14.598-1.6072 0.66965"/>
        <path d="m510.49 395.22-6.3393-12.723 0.3125-0.9375-0.26786-0.98214-9.7321 0.13393 0.0893 1.0268 3.2589 2.6339 11.071 14.598 1.6072 0.66965"/>
      </g>
      <rect transform="translate(-36.94 -367.63)" x="467.41" y="377.54" width="18.143" height="9.6126" rx="2.4"/>
      <g transform="translate(-36.404 -370.67)">
        <path d="m510.58 395.26 6.3393-12.723-0.3125-0.9375 0.26786-0.98214 9.7321 0.13393-0.0893 1.0268-3.2589 2.6339-11.071 14.598-1.6072 0.66965"/>
        <path d="m510.49 395.22-6.3393-12.723 0.3125-0.9375-0.26786-0.98214-9.7321 0.13393 0.0893 1.0268 3.2589 2.6339 11.071 14.598 1.6072 0.66965"/>
      </g>
    </g>
    <g stroke="#000" rigging:deck="main" rigging:rail="sideRail" rigging:side="port">
      <circle transform="translate(-36.94 -367.63)" cx="324.1" cy="378.79" r="1.0672"/>
      <circle transform="translate(-36.94 -367.63)" cx="335.3" cy="378.79" r="1.0672"/>
      <circle transform="translate(-36.94 -367.63)" cx="346.5" cy="378.79" r="1.0672"/>
      <circle transform="translate(-36.94 -367.63)" cx="357.7" cy="378.79" r="1.0672"/>
      <circle transform="translate(-36.94 -367.63)" cx="368.9" cy="378.79" r="1.0672"/>
      <circle transform="translate(-36.94 -367.63)" cx="380.1" cy="378.79" r="1.0672"/>
    </g>
    <g transform="translate(.00028754 123.28)" stroke="#000" rigging:deck="main" rigging:rail="sideRail" rigging:side="starboard">
      <circle transform="translate(-36.94 -367.63)" cx="324.1" cy="378.79" r="1.0672"/>
      <circle transform="translate(-36.94 -367.63)" cx="335.3" cy="378.79" r="1.0672"/>
      <circle transform="translate(-36.94 -367.63)" cx="346.5" cy="378.79" r="1.0672"/>
      <circle transform="translate(-36.94 -367.63)" cx="357.7" cy="378.79" r="1.0672"/>
      <circle transform="translate(-36.94 -367.63)" cx="368.9" cy="378.79" r="1.0672"/>
      <circle transform="translate(-36.94 -367.63)" cx="380.1" cy="378.79" r="1.0672"/>
    </g>
    <g rigging:deck="main" rigging:rail="aboveRail" rigging:side="port">
      <ellipse transform="rotate(90 165.35 -202.28)" cx="372.73" cy="-338.58" rx="1.1256" ry="4.7351" stroke="#000" stroke-linecap="round" stroke-linejoin="round"/>
    </g>
    <g rigging:deck="main" rigging:rail="aboveRail" rigging:side="starboard">
      <ellipse transform="rotate(90)" cx="140.6" cy="-301.65" rx="1.1256" ry="4.7351" stroke="#000" stroke-linecap="round" stroke-linejoin="round"/>
    </g>
    <g rigging:deck="main" rigging:rail="frontPillars" rigging:side="port">
      <ellipse transform="rotate(90 165.35 -202.28)" cx="412.64" cy="-408.94" rx="1.1256" ry="4.7351" stroke="#000" stroke-linecap="round" stroke-linejoin="round"/>
    </g>
    <g rigging:deck="main" rigging:rail="frontPillars" rigging:side="starboard">
      <ellipse transform="rotate(90)" cx="100.96" cy="-372" rx="1.1256" ry="4.7351" stroke="#000" stroke-linecap="round" stroke-linejoin="round"/>
    </g>
    <g rigging:deck="main" rigging:rail="onDeckFront" rigging:side="port">
      <ellipse transform="rotate(90 165.35 -202.28)" cx="419.79" cy="-404.21" rx="1.1256" ry="4.7351" stroke="#000" stroke-linecap="round" stroke-linejoin="round"/>
    </g>
    <g rigging:deck="main" rigging:rail="onDeckFront" rigging:side="starboard">
      <ellipse transform="rotate(90)" cx="93.531" cy="-367.27" rx="1.1256" ry="4.7351" stroke="#000" stroke-linecap="round" stroke-linejoin="round"/>
    </g>
    <g rigging:deck="main" rigging:rail="backFists" rigging:side="port">
      <rect transform="translate(-36.94 -367.63)" x="324.1" y="408.34" width="8.109" height="8.109" stroke="#000"/>
    </g>
    <g rigging:deck="main" rigging:rail="backFists" rigging:side="starboard">
      <rect x="287.16" y="96.606" width="8.109" height="8.109" stroke="#000"/>
    </g>
    <g stroke="#000" rigging:deck="main" rigging:isAcross="true" rigging:rail="behindMastRail" rigging:side="port">
      <circle transform="translate(-36.94 -367.63)" cx="328.12" cy="436.61" r="1.0672"/>
      <circle transform="translate(-36.94 -367.63)" cx="328.12" cy="429.05" r="1.0672"/>
      <circle transform="translate(-36.94 -367.63)" cx="328.12" cy="421.41" r="1.0672"/>
    </g>
    <g transform="translate(0 23.15)" stroke="#000" rigging:deck="main" rigging:isAcross="true" rigging:rail="behindMastRail" rigging:side="starboard">
      <circle transform="translate(-36.94 -367.63)" cx="328.12" cy="421.41" r="1.0672"/>
      <circle transform="translate(-36.94 -367.63)" cx="328.12" cy="429.05" r="1.0672"/>
      <circle transform="translate(-36.94 -367.63)" cx="328.12" cy="436.61" r="1.0672"/>
    </g>
    <g stroke="#000" rigging:deck="main" rigging:rail="sideMastRail" rigging:side="port">
      <circle transform="translate(-36.94 -367.63)" cx="338.03" cy="412.43" r="1.0672"/>
      <circle transform="translate(-36.94 -367.63)" cx="349.23" cy="412.43" r="1.0672"/>
      <circle transform="translate(-36.94 -367.63)" cx="360.43" cy="412.43" r="1.0672"/>
      <circle transform="translate(-36.94 -367.63)" cx="371.63" cy="412.43" r="1.0672"/>
      <circle transform="translate(-36.94 -367.63)" cx="382.83" cy="412.43" r="1.0672"/>
      <circle transform="translate(-36.94 -367.63)" cx="394.03" cy="412.43" r="1.0672"/>
    </g>
    <g transform="translate(.00029652 56.125)" stroke="#000" rigging:deck="main" rigging:rail="sideMastRail" rigging:side="starboard">
      <circle transform="translate(-36.94 -367.63)" cx="338.03" cy="412.43" r="1.0672"/>
      <circle transform="translate(-36.94 -367.63)" cx="349.23" cy="412.43" r="1.0672"/>
      <circle transform="translate(-36.94 -367.63)" cx="360.43" cy="412.43" r="1.0672"/>
      <circle transform="translate(-36.94 -367.63)" cx="371.63" cy="412.43" r="1.0672"/>
      <circle transform="translate(-36.94 -367.63)" cx="382.83" cy="412.43" r="1.0672"/>
      <circle transform="translate(-36.94 -367.63)" cx="394.03" cy="412.43" r="1.0672"/>
    </g>
    <g rigging:deck="main" rigging:rail="atMastFront" rigging:side="center">
      <ellipse transform="scale(-1)" cx="-351.65" cy="-72.719" rx="1.1256" ry="4.7351" stroke="#000" stroke-linecap="round" stroke-linejoin="round"/>
    </g>
    <g rigging:deck="main" rigging:rail="atMastBack" rigging:side="center">
      <ellipse transform="scale(-1)" cx="-315.45" cy="-72.719" rx="1.1256" ry="4.7351" stroke="#000" stroke-linecap="round" stroke-linejoin="round"/>
    </g>
    <g transform="translate(-36.624 -385.82)" rigging:deck="stern" rigging:rail="atFront" rigging:side="center">
      <g transform="translate(-.031567 .063135)">
        <circle cx="283.88" cy="461.04" r=".42616"/>
        <circle cx="285.23" cy="461.01" r=".42616"/>
        <circle cx="286.57" cy="461.03" r=".42616"/>
        <circle cx="287.85" cy="461.03" r=".42616"/>
        <circle cx="289.14" cy="461.04" r=".42616"/>
        <path d="m298.72 455.17c-3.9932 0.48895-15.46 2.2843-17.267 3.4724-0.87352 0.68368-1.2813 1.4563-0.50507 2.2728 0.29488 0.21805 1.5152 0.12627 1.5152 0.12627" fill="none" stroke="#000"/>
        <path d="m290.64 461.04s1.7918-1.0918 2.5885-1.7678c0.49938-0.42374 1.0876-0.91263 1.3574-1.4205s0.39292-0.88831 0.31567-1.4521c-0.0772-0.56378-0.79993-1.7198-1.438-2.1466-0.63813-0.42672-1.5806-0.41427-2.1922-0.15784-0.61162 0.25643-0.56613 0.7134-0.75762 1.3574s0.11478 1.9931 0.2841 2.7148 0.25082 1.0426 0.59978 1.6099 0.9875 1.2039 1.5468 1.6731 1.7678 1.1364 1.7678 1.1364" fill="none" stroke="#000"/>
      </g>
    </g>
    <g transform="translate(-13.508 -342.53)" rigging:deck="stern" rigging:rail="aboveLadder" rigging:side="starboard">
      <g transform="translate(-.031567 .063135)">
        <circle cx="283.88" cy="461.04" r=".42616"/>
        <circle cx="285.23" cy="461.01" r=".42616"/>
        <circle cx="286.57" cy="461.03" r=".42616"/>
        <circle cx="287.85" cy="461.03" r=".42616"/>
        <circle cx="289.14" cy="461.04" r=".42616"/>
        <path d="m298.72 455.17c-3.9932 0.48895-15.46 2.2843-17.267 3.4724-0.87352 0.68368-1.2813 1.4563-0.50507 2.2728 0.29488 0.21805 1.5152 0.12627 1.5152 0.12627" fill="none" stroke="#000"/>
        <path d="m290.64 461.04s1.7918-1.0918 2.5885-1.7678c0.49938-0.42374 1.0876-0.91263 1.3574-1.4205s0.39292-0.88831 0.31567-1.4521c-0.0772-0.56378-0.79993-1.7198-1.438-2.1466-0.63813-0.42672-1.5806-0.41427-2.1922-0.15784-0.61162 0.25643-0.56613 0.7134-0.75762 1.3574s0.11478 1.9931 0.2841 2.7148 0.25082 1.0426 0.59978 1.6099 0.9875 1.2039 1.5468 1.6731 1.7678 1.1364 1.7678 1.1364" fill="none" stroke="#000"/>
      </g>
    </g>
    <g fill="#fff" fill-opacity=".001" stroke="#000" rigging:deck="stern" rigging:rail="bulwark" rigging:side="port">
      <rect transform="rotate(-53.144 -385.99 -146.89)" x="-201.67" y="386.55" width="4.7612" height="9.1042" rx="1.3"/>
      <rect transform="translate(-36.94 -367.63)" x="233.56" y="383.38" width="4.7612" height="9.1042" rx="1.3"/>
      <rect transform="translate(-36.94 -367.63)" x="244.32" y="383.2" width="4.7612" height="9.1042" rx="1.3"/>
      <g transform="matrix(.76688 0 0 .76688 -164.05 -280.25)" stroke-linecap="round" stroke-linejoin="round">
        <path d="m510.58 395.26 6.3393-12.723-0.3125-0.9375 0.26786-0.98214 9.7321 0.13393-0.0893 1.0268-3.2589 2.6339-11.071 14.598-1.6072 0.66965"/>
        <path d="m510.49 395.22-6.3393-12.723 0.3125-0.9375-0.26786-0.98214-9.7321 0.13393 0.0893 1.0268 3.2589 2.6339 11.071 14.598 1.6072 0.66965"/>
      </g>
    </g>
    <g transform="matrix(1 0 0 -1 7.6282e-5 145.59)" fill="#fff" fill-opacity=".001" stroke="#000" rigging:deck="stern" rigging:rail="bulwark" rigging:side="starboard">
      <rect transform="rotate(-53.144 -385.99 -146.89)" x="-201.67" y="386.55" width="4.7612" height="9.1042" rx="1.3"/>
      <rect transform="translate(-36.94 -367.63)" x="233.56" y="383.38" width="4.7612" height="9.1042" rx="1.3"/>
      <rect transform="translate(-36.94 -367.63)" x="244.32" y="383.2" width="4.7612" height="9.1042" rx="1.3"/>
      <g transform="matrix(.76688 0 0 .76688 -164.05 -280.25)" stroke-linecap="round" stroke-linejoin="round">
        <path d="m510.58 395.26 6.3393-12.723-0.3125-0.9375 0.26786-0.98214 9.7321 0.13393-0.0893 1.0268-3.2589 2.6339-11.071 14.598-1.6072 0.66965"/>
        <path d="m510.49 395.22-6.3393-12.723 0.3125-0.9375-0.26786-0.98214-9.7321 0.13393 0.0893 1.0268 3.2589 2.6339 11.071 14.598 1.6072 0.66965"/>
      </g>
    </g>
    <g stroke="#000" rigging:deck="stern" rigging:rail="sideRail" rigging:side="port">
      <circle transform="rotate(-4.7351 -4464.3 262.91)" cx="170.92" cy="400.31" r=".75912"/>
      <circle transform="rotate(-4.7351 -4464.3 262.91)" cx="177.52" cy="400.31" r=".75912"/>
      <circle transform="rotate(-4.7351 -4464.3 262.91)" cx="184.12" cy="400.31" r=".75912"/>
      <circle transform="rotate(-4.7351 -4464.3 262.91)" cx="190.72" cy="400.31" r=".75912"/>
    </g>
    <g transform="matrix(1 0 0 -1 -1.2171e-8 145.77)" stroke="#000" rigging:deck="stern" rigging:rail="sideRail" rigging:side="starboard">
      <circle transform="rotate(-4.7351 -4464.3 262.91)" cx="170.92" cy="400.31" r=".75912"/>
      <circle transform="rotate(-4.7351 -4464.3 262.91)" cx="177.52" cy="400.31" r=".75912"/>
      <circle transform="rotate(-4.7351 -4464.3 262.91)" cx="184.12" cy="400.31" r=".75912"/>
      <circle transform="rotate(-4.7351 -4464.3 262.91)" cx="190.72" cy="400.31" r=".75912"/>
    </g>
    <g stroke="#000" rigging:deck="stern" rigging:rail="shroudsRail" rigging:side="port">
      <circle transform="rotate(-8.2973 -2552.6 70.82)" cx="93.994" cy="409.52" r=".75912"/>
      <circle transform="rotate(-8.2973 -2552.6 70.82)" cx="100.59" cy="409.52" r=".75912"/>
      <circle transform="rotate(-8.2973 -2552.6 70.82)" cx="107.19" cy="409.52" r=".75912"/>
      <circle transform="rotate(-8.2973 -2552.6 70.82)" cx="113.79" cy="409.52" r=".75912"/>
      <circle transform="rotate(-8.2973 -2552.6 70.82)" cx="120.39" cy="409.52" r=".75912"/>
    </g>
    <g transform="matrix(1 0 0 -1 0 145.56)" stroke="#000" rigging:deck="stern" rigging:rail="shroudsRail" rigging:side="starboard">
      <circle transform="rotate(-8.2973 -2552.6 70.82)" cx="93.994" cy="409.52" r=".75912"/>
      <circle transform="rotate(-8.2973 -2552.6 70.82)" cx="100.59" cy="409.52" r=".75912"/>
      <circle transform="rotate(-8.2973 -2552.6 70.82)" cx="107.19" cy="409.52" r=".75912"/>
      <circle transform="rotate(-8.2973 -2552.6 70.82)" cx="113.79" cy="409.52" r=".75912"/>
      <circle transform="rotate(-8.2973 -2552.6 70.82)" cx="120.39" cy="409.52" r=".75912"/>
    </g>
    <g transform="translate(5.8397 -2.6413)" stroke="#000" rigging:deck="stern" rigging:rail="atMast" rigging:side="port">
      <ellipse transform="rotate(-36.151)" cx="75.654" cy="128.77" rx="1.0446" ry="3.5268"/>
      <ellipse transform="rotate(8.7813)" cx="158.16" cy="34.175" rx="1.0446" ry="3.5268"/>
    </g>
    <g transform="matrix(1 0 0 -1 5.8397 148.29)" stroke="#000" rigging:deck="stern" rigging:rail="atMast" rigging:side="starboard">
      <ellipse transform="rotate(-36.151)" cx="75.654" cy="128.77" rx="1.0446" ry="3.5268"/>
      <ellipse transform="rotate(8.7813)" cx="158.16" cy="34.175" rx="1.0446" ry="3.5268"/>
    </g>
    <g stroke="#000" rigging:deck="stern" rigging:rail="poopBulwark" rigging:side="port">
      <g transform="translate(-1.75 -4.75)">
        <ellipse transform="rotate(-18.749 -1131.9 -71.94)" cx="-74.057" cy="420.37" rx="4.1037" ry="2.5569" fill="#fff" fill-opacity=".001"/>
        <path transform="translate(-36.94 -367.63)" d="m61.959 411.73 3.9775 9.2176"/>
        <path transform="translate(-36.94 -367.63)" d="m59.623 412.68 3.9775 9.2176"/>
      </g>
      <g transform="matrix(.7557 -.13049 .13049 .7557 -379.36 -194.34)" fill="#fff" fill-opacity=".001" stroke-linecap="round" stroke-linejoin="round">
        <path d="m510.58 395.26 6.3393-12.723-0.3125-0.9375 0.26786-0.98214 9.7321 0.13393-0.0893 1.0268-3.2589 2.6339-11.071 14.598-1.6072 0.66965"/>
        <path d="m510.49 395.22-6.3393-12.723 0.3125-0.9375-0.26786-0.98214-9.7321 0.13393 0.0893 1.0268 3.2589 2.6339 11.071 14.598 1.6072 0.66965"/>
      </g>
      <ellipse transform="rotate(87.793)" cx="27.538" cy="-86.175" rx="1.0446" ry="3.5268"/>
    </g>
    <g transform="matrix(1 0 0 -1 0 146.39)" stroke="#000" rigging:deck="stern" rigging:ignoreDeck="true" rigging:rail="poopBulwark" rigging:side="starboard">
      <g transform="translate(-1.75 -4.75)">
        <ellipse transform="rotate(-18.749 -1131.9 -71.94)" cx="-74.057" cy="420.37" rx="4.1037" ry="2.5569" fill="#fff" fill-opacity=".001"/>
        <path transform="translate(-36.94 -367.63)" d="m61.959 411.73 3.9775 9.2176"/>
        <path transform="translate(-36.94 -367.63)" d="m59.623 412.68 3.9775 9.2176"/>
      </g>
      <g transform="matrix(.7557 -.13049 .13049 .7557 -379.36 -194.34)" fill="#fff" fill-opacity=".001" stroke-linecap="round" stroke-linejoin="round">
        <path d="m510.58 395.26 6.3393-12.723-0.3125-0.9375 0.26786-0.98214 9.7321 0.13393-0.0893 1.0268-3.2589 2.6339-11.071 14.598-1.6072 0.66965"/>
        <path d="m510.49 395.22-6.3393-12.723 0.3125-0.9375-0.26786-0.98214-9.7321 0.13393 0.0893 1.0268 3.2589 2.6339 11.071 14.598 1.6072 0.66965"/>
      </g>
      <ellipse transform="rotate(87.793)" cx="27.538" cy="-86.175" rx="1.0446" ry="3.5268"/>
    </g>
    <g rigging:deck="stern" rigging:ignoreDeck="true" rigging:rail="poopFlagstaff" rigging:side="port">
      <ellipse transform="rotate(52.793)" cx="81.286" cy=".48086" rx="1.1256" ry="4.7351" stroke="#000" stroke-linecap="round" stroke-linejoin="round"/>
    </g>
    <g rigging:deck="stern" rigging:ignoreDeck="true" rigging:rail="poopFlagstaff" rigging:side="starboard">
      <ellipse transform="matrix(.6047 -.79645 -.79645 -.6047 0 0)" cx="-34.807" cy="-87.662" rx="1.1256" ry="4.7351" stroke="#000" stroke-linecap="round" stroke-linejoin="round"/>
    </g>
  </g>
</svg>
