<svg version="1.1" viewBox="1 -24 659 152" xmlns="http://www.w3.org/2000/svg" xmlns:rigging="https://github.com/jolaf/rigging" xmlns:xlink="http://www.w3.org/1999/xlink">
  <defs>
    <rect id="deckMask" x="277.27" y="-.80917" width="220.71" height="146.64" fill="currentColor"/>
    <g id="mastMask" stroke="currentColor">
      <path d="m425.11 59.525 26.5 26.5z"/>
      <path d="m451.61 59.525-26.5 26.5z"/>
    </g>
    <circle id="pipe" cx="160.87" cy="398.09" r="4" stroke="currentColor"/>
    <circle id="pin" class="aura" transform="rotate(-8.2973)" cx="567.54" cy="28.152" r="1.8" fill="currentColor"/>
    <circle id="pinhole" transform="rotate(-8.2973)" cx="607.21" cy="138.78" r="1.5" fill="none" stroke="currentColor"/>
    <ellipse id="cleat" class="aura" transform="rotate(89.51)" cx="3.7214" cy="-575.37" rx="1.4" ry="5.615" fill="currentColor"/>
    <rect id="lcleat" class="aura" x="396.5" y="72.319" width="4" height="15" ry="1.5" fill="currentColor"/>
    <path id="xcleat" class="aura" transform="matrix(.88236 0 0 1.0046 -152.59 -25.947)" d="m215.31 40.277-0.95943-2.7977v-6.102l0.95943-2.8928-2.499-1.1962-2.6523 1.1962 1.1616 2.8928v6.102l-1.1613 2.7977 2.652 1.5143z" fill="currentColor"/>
    <path id="kevel" class="aura" d="m426.26 54.267-8.4236-11.107-2.4793-2.004-0.0671-0.78121 7.4043-0.1019 0.20384 0.74724-0.23767 0.71328 4.9274 9.807 4.7911-9.773-0.23764-0.7133 0.20383-0.74723 7.4043 0.10189-0.0671 0.78121-2.4793 2.004-8.4235 11.107-1.2589 0.4925z" fill="currentColor"/>
    <rect id="fist" class="aura" transform="translate(-36.94 -367.63)" x="324.1" y="408.34" width="8.109" height="8.109" fill="currentColor"/>
    <g id="tackle" transform="matrix(-1 0 0 1 657.06 84.968)">
      <ellipse transform="rotate(-18.749 -1131.9 -71.94)" cx="-74.057" cy="420.37" rx="4.1037" ry="2.5569" fill="currentColor"/>
      <path transform="translate(-36.94 -367.63)" d="m61.959 411.73 3.9775 9.2176" stroke="currentColor"/>
      <path transform="translate(-36.94 -367.63)" d="m59.623 412.68 3.9775 9.2176" stroke="currentColor"/>
    </g>
    <g id="knot" transform="translate(380.03 -105.31)">
      <path d="m298.72 455.17c-3.9932 0.48895-15.46 2.2843-17.267 3.4724-0.87352 0.68368-1.2813 1.4563-0.50507 2.2728 0.29488 0.21805 1.5152 0.12627 1.5152 0.12627" fill="none" stroke="currentColor"/>
      <path d="m290.64 461.04s1.7918-1.0918 2.5885-1.7678c0.49938-0.42374 1.0876-0.91263 1.3574-1.4205s0.39292-0.88831 0.31567-1.4521c-0.0772-0.56378-0.79993-1.7198-1.438-2.1466-0.63813-0.42672-1.5806-0.41427-2.1922-0.15784-0.61162 0.25643-0.56613 0.7134-0.75762 1.3574s0.11478 1.9931 0.2841 2.7148 0.25082 1.0426 0.59978 1.6099 0.9875 1.2039 1.5468 1.6731 1.7678 1.1364 1.7678 1.1364" fill="none" stroke="currentColor"/>
      <circle cx="283.88" cy="461.04" r=".42616" fill="currentColor"/>
      <circle cx="285.23" cy="461.01" r=".42616" fill="currentColor"/>
      <circle cx="286.57" cy="461.03" r=".42616" fill="currentColor"/>
      <circle cx="287.85" cy="461.03" r=".42616" fill="currentColor"/>
      <circle cx="289.14" cy="461.04" r=".42616" fill="currentColor"/>
    </g>
  </defs>
  <g transform="translate(0 -20.6)">
    <g id="drawing">
      <g id="portDrawing" fill="none" stroke="currentColor">
        <path d="m5.599 30.388c154.59-24.72 342.25-37.19 495.89-25.536m135.53 8.9625c8.1877 0.64014 12.488 2.5495 19.468 7.2707"/>
        <path class="rail" d="m499 4.6841 138.01 9.1301-0.0819 7.9029-137.97-9.4342s0.0436-7.5988 0.0436-7.5988"/>
        <rect class="rail" transform="matrix(.99798 .063452 -.063107 .99801 -36.919 -367.63)" x="614.66" y="330.18" width="57.042" height="5.6153" stroke-linecap="round"/>
        <rect class="solid" transform="translate(-36.919 -367.63)" x="582.6" y="412.18" width="7.8952" height="8.0121"/>
        <path class="rail" d="m498.97 63.596 0.0131-31.846 8.2065 0.0488-0.0723 31.797"/>
        <g class="solid">
          <path d="m474.71 3.4881 0.0178 26.671 24.696 1.6705" stroke-linejoin="round"/>
          <path d="m491.03 31.603v-27.13"/>
          <path d="m482.41 30.658 6e-3 -26.716"/>
        </g>
        <rect class="solid" transform="translate(-36.919 -367.63)" x="400.67" y="404.03" width="8.109" height="8.109"/>
        <rect class="rail" transform="translate(-36.919 -367.63)" x="331.8" y="403.95" width="77.184" height="8.3484"/>
        <path class="rail" d="m281 7.7375 50.101-2.0446s0.26193 6.643 0.26193 6.643l-50.107 1.9066s-0.25648-6.505-0.25648-6.505"/>
        <g class="solid">
          <path d="m269.03 3.0053s0.25254 33.082 0.25254 33.082c2.4412 1.3062 4.8824 1.2613 7.3236-0.12627v-33.335"/>
          <path d="m242.14 37.35c11.722 2.0062 20.149-0.13337 26.895-4.4194"/>
          <path d="m242.1 35.007c12.578-3.0013 19.725-7.0418 26.841-13.718"/>
          <path d="m242.14 31.116c16.006-5.9455 25.097-19.221 26.516-28.111"/>
          <path d="m242.07 25.379c11.483-8.9948 11.331-15.34 12.443-21.742"/>
        </g>
        <use transform="translate(71.491 -384.23)" xlink:href="#pipe"/>
        <use transform="translate(24.224 -380.75)" xlink:href="#pipe"/>
        <rect class="rail" transform="rotate(-5.4351 -3891 205.08)" x="138.67" y="395.49" width="27.593" height="6.1536"/>
        <rect class="rail" transform="matrix(.99305 -.11767 .15968 .98717 -36.919 -367.63)" x="58.768" y="391.19" width="42.94" height="5.5987" ry="0"/>
        <use transform="translate(-45.537 -373.95)" xlink:href="#pipe"/>
      </g>
      <use id="starboardDrawing" transform="matrix(1 0 0 -1 0 145.58)" xlink:href="#portDrawing"/>
      <path class="rail" d="m645.62 15.449c-3.8756-1.1596-8.6045-1.6351-8.6045-1.6351-0.16012 38.87 0.11539 82.335 0.17643 117.9 0 0 3.8874-0.46149 8.4244-1.5642-0.182-8.5553 0.0775-111.18 4e-3 -114.71h-2.6e-4" fill="none" stroke="currentColor"/>
      <path class="rail" d="m603.73 35.978h7.9082l-0.21655 73.963h-7.7999l0.10827-73.963" fill="none" stroke="currentColor"/>
      <circle class="solid" cx="578.36" cy="72.838" r="14.805" fill="none" stroke="currentColor"/>
      <path class="rail" d="m545.59 36.028h8.0469v73.736l-7.9554-0.0915-0.0915-73.645" fill="none" stroke="currentColor"/>
      <g class="solid" fill="none" stroke="currentColor">
        <path d="m507.13 63.596c1.3044 2.8755 1.9792 5.9965 1.9792 9.1637 0 3.1672-0.67479 6.2882-1.9792 9.1637"/>
        <path d="m498.98 63.596c1.3044 2.8755 1.9792 5.9965 1.9792 9.1637 0 3.1672-0.67479 6.2883-1.9792 9.1637"/>
      </g>
      <path d="m499.08 140.58 0.0502-27.332m0.022-81.024-0.14261-27.537" fill="none" stroke="currentColor"/>
      <circle class="solid " cx="333.48" cy="72.838" r="14.805" fill="none" stroke="currentColor"/>
      <path class="rail" d="m302.86 109.06h-8.0747v-72.72h8.0747v72.72" fill="none" stroke="currentColor"/>
      <path d="m241.95 140.83-0.10275-33.102m-0.0604-69.962 0.0237-33.476" fill="none" stroke="currentColor"/>
      <path class="solid" d="m241.69 37.439-8.3059 0.0691c-4e-3 16.806 0.062 53.776 0.0582 70.582h8.1678c4e-3 -16.806 0.0761-53.845 0.0799-70.651v-5e-5" fill="none" stroke="currentColor"/>
      <circle class="solid" cx="137.48" cy="72.838" r="14.805" fill="none" stroke="currentColor"/>
      <rect class="solid" x="87.298" y="53.73" width="3.0405" height="38.031" fill="none" stroke="currentColor"/>
      <rect class="solid" x="78.789" y="67.672" width="8.4818" height="9.9488" fill="none" stroke="currentColor"/>
      <path class="solid" d="m87.296 19.031v3.2799c-0.17473 0.71291-0.43764 0.6722-0.68478 0.76631l-5.0254 0.0348" fill="none" stroke="currentColor"/>
      <path class="solid" d="m81.496 19.331v10.18c-0.17473 0.71291-0.43764 0.6722-0.68478 0.76631l-2.2255 0.0348" fill="none" stroke="currentColor"/>
      <path d="m78.845 125.85-0.07202-106.2" fill="none" stroke="currentColor"/>
      <path class="solid" d="m61.845 123.31v-16.814c0.38862-1.2784 0.97345-1.2054 1.5232-1.3742 0 0 15.251-0.0624 15.251-0.0624" fill="none" stroke="currentColor"/>
      <circle class="solid" cx="12.204" cy="72.707" r="4.4953" fill="none" stroke="currentColor"/>
      <path d="m6.0165 115.68v-85.785" fill="none" stroke="currentColor"/>
    </g>
  </g>
  <g transform="translate(0 -20.6)" display="none">
    <g id="deckMasks" class="modeDependent which" color="#ffffff">
      <use class="deckMask" transform="matrix(.71785 0 0 1 299.43 0)" rigging:deck="fore" xlink:href="#deckMask"/>
      <use class="deckMask" transform="matrix(1.0026 0 0 1 -.80202 0)" rigging:deck="main" xlink:href="#deckMask"/>
      <use class="deckMask" transform="matrix(1.2311 0 0 1 -335.88 0)" rigging:deck="stern" xlink:href="#deckMask"/>
    </g>
  </g>
  <g transform="translate(0 -20.6)" display="none">
    <g id="mastMasks" class="modeDependent where" color="#ff0000">
      <use class="mastMask" transform="translate(140)" rigging:mast="fore" xlink:href="#mastMask"/>
      <use class="mastMask" transform="translate(-104.89)" rigging:mast="main" xlink:href="#mastMask"/>
      <use class="mastMask" transform="translate(-300.97)" rigging:mast="mizzen" xlink:href="#mastMask"/>
    </g>
  </g>
  <g transform="translate(0 -20.6)">
    <g id="points" transform="translate(.020296 -7.1416e-6)">
      <g rigging:deck="fore" rigging:rail="behindFront" rigging:side="port">
        <use transform="rotate(-89.1 642.3 -8.3336)" xlink:href="#cleat"/>
      </g>
      <g transform="matrix(1 0 0 -1 0 145.51)" rigging:deck="fore" rigging:rail="behindFront" rigging:side="starboard">
        <use transform="rotate(-89.1 642.3 -8.3336)" xlink:href="#cleat"/>
      </g>
      <g transform="translate(0 -1.125)" rigging:deck="fore" rigging:isAcross="true" rigging:rail="frontRail" rigging:side="port">
        <use transform="translate(75.828 120.56)" xlink:href="#pin"/>
        <use transform="translate(75.828 111.36)" xlink:href="#pin"/>
        <use transform="translate(75.828 102.64)" xlink:href="#pin"/>
        <use transform="translate(75.828 94.008)" xlink:href="#pin"/>
        <use transform="translate(20.68 -18.062)" xlink:href="#pinhole"/>
        <use transform="translate(75.828 77.695)" xlink:href="#pin"/>
      </g>
      <g transform="matrix(1 0 0 -1 0 146.63)" rigging:deck="fore" rigging:isAcross="true" rigging:rail="frontRail" rigging:side="starboard">
        <use transform="translate(75.828 120.56)" xlink:href="#pin"/>
        <use transform="translate(75.828 111.36)" xlink:href="#pin"/>
        <use transform="translate(75.828 102.64)" xlink:href="#pin"/>
        <use transform="translate(75.828 94.008)" xlink:href="#pin"/>
        <use transform="translate(20.68 -18.062)" xlink:href="#pinhole"/>
        <use transform="translate(75.828 77.695)" xlink:href="#pin"/>
      </g>
      <g transform="rotate(-33.825 358.49 -866.82)" rigging:deck="fore" rigging:rail="onDeckFront" rigging:side="port">
        <use transform="rotate(37.611 293.77 -704.81)" xlink:href="#cleat"/>
      </g>
      <g transform="rotate(90 336.06 324.36)" rigging:deck="fore" rigging:rail="onDeckFront" rigging:side="center">
        <use transform="rotate(.24102 -6431.2 -116513)" xlink:href="#cleat"/>
      </g>
      <g transform="matrix(.83074 .55666 .55666 -.83074 543.2 92.667)" rigging:deck="fore" rigging:rail="onDeckFront" rigging:side="starboard">
        <use transform="rotate(37.611 293.77 -704.81)" xlink:href="#cleat"/>
      </g>
      <g transform="rotate(3.8685 821.87 -178.44)" rigging:deck="fore" rigging:rail="sideRail" rigging:side="port">
        <use transform="translate(-45.724 83.924)" xlink:href="#pin"/>
        <use transform="translate(-92.891 -19.827)" xlink:href="#pinhole"/>
        <use transform="translate(-29.782 83.871)" xlink:href="#pin"/>
        <use transform="translate(-77.041 -19.841)" xlink:href="#pinhole"/>
        <use transform="translate(-69.076 -19.943)" xlink:href="#pinhole"/>
        <use transform="translate(-5.9745 83.648)" xlink:href="#pin"/>
        <use transform="translate(-53.128 -19.941)" xlink:href="#pinhole"/>
        <use transform="translate(9.886 83.763)" xlink:href="#pin"/>
        <use transform="translate(-37.278 -19.943)" xlink:href="#pinhole"/>
        <use transform="translate(25.93 83.851)" xlink:href="#pin"/>
        <use transform="translate(33.813 83.936)" xlink:href="#pin"/>
        <use transform="translate(41.878 83.909)" xlink:href="#pin"/>
        <use transform="translate(-5.2859 -19.812)" xlink:href="#pinhole"/>
        <use transform="translate(2.6879 -19.688)" xlink:href="#pinhole"/>
        <use transform="translate(65.802 84.05)" xlink:href="#pin"/>
        <use transform="translate(18.549 -19.604)" xlink:href="#pinhole"/>
      </g>
      <g transform="matrix(.99772 -.067466 -.067466 -.99772 -10.166 201.36)" rigging:deck="fore" rigging:rail="sideRail" rigging:side="starboard">
        <use transform="translate(-45.724 83.924)" xlink:href="#pin"/>
        <use transform="translate(-92.891 -19.827)" xlink:href="#pinhole"/>
        <use transform="translate(-29.782 83.871)" xlink:href="#pin"/>
        <use transform="translate(-77.041 -19.841)" xlink:href="#pinhole"/>
        <use transform="translate(-69.076 -19.943)" xlink:href="#pinhole"/>
        <use transform="translate(-5.9745 83.648)" xlink:href="#pin"/>
        <use transform="translate(-53.128 -19.941)" xlink:href="#pinhole"/>
        <use transform="translate(9.886 83.763)" xlink:href="#pin"/>
        <use transform="translate(-37.278 -19.943)" xlink:href="#pinhole"/>
        <use transform="translate(25.93 83.851)" xlink:href="#pin"/>
        <use transform="translate(33.813 83.936)" xlink:href="#pin"/>
        <use transform="translate(41.878 83.909)" xlink:href="#pin"/>
        <use transform="translate(-5.2859 -19.812)" xlink:href="#pinhole"/>
        <use transform="translate(2.6879 -19.688)" xlink:href="#pinhole"/>
        <use transform="translate(65.802 84.05)" xlink:href="#pin"/>
        <use transform="translate(18.549 -19.604)" xlink:href="#pinhole"/>
      </g>
      <g transform="rotate(3.7694 6421.6 -164.9)" rigging:deck="fore" rigging:rail="shroudsRail" rigging:side="port">
        <use transform="translate(19.319 442.9)" xlink:href="#pin"/>
        <use transform="translate(30.519 442.9)" xlink:href="#pin"/>
        <use transform="translate(41.719 442.9)" xlink:href="#pin"/>
        <use transform="translate(52.919 442.9)" xlink:href="#pin"/>
        <use transform="translate(64.119 442.9)" xlink:href="#pin"/>
      </g>
      <g transform="matrix(.99784 -.065742 -.065742 -.99784 3.0514 568.03)" rigging:deck="fore" rigging:rail="shroudsRail" rigging:side="starboard">
        <use transform="translate(19.319 442.9)" xlink:href="#pin"/>
        <use transform="translate(30.519 442.9)" xlink:href="#pin"/>
        <use transform="translate(41.719 442.9)" xlink:href="#pin"/>
        <use transform="translate(52.919 442.9)" xlink:href="#pin"/>
        <use transform="translate(64.119 442.9)" xlink:href="#pin"/>
      </g>
      <g transform="translate(.52682)" rigging:side="port">
        <use transform="translate(-13.733 18.494)" xlink:href="#pinhole"/>
        <use transform="translate(-13.733 9.3337)" xlink:href="#pinhole"/>
        <use transform="translate(-13.733 -9.3384)" xlink:href="#pinhole"/>
      </g>
      <g transform="matrix(1 0 0 -1 .52682 145.51)" rigging:side="starboard">
        <use transform="translate(-13.733 18.494)" xlink:href="#pinhole"/>
        <use transform="translate(-13.733 9.3337)" xlink:href="#pinhole"/>
        <use transform="translate(-13.733 -9.3384)" xlink:href="#pinhole"/>
      </g>
      <g transform="translate(316.26 3.5265)" rigging:deck="fore" rigging:rail="frontFists" rigging:side="port">
        <use transform="translate(.10571 .14837)" xlink:href="#fist"/>
      </g>
      <g transform="matrix(1 0 0 -1 316.26 141.98)" rigging:deck="fore" rigging:rail="frontFists" rigging:side="starboard">
        <use transform="translate(.10571 .14837)" xlink:href="#fist"/>
      </g>
      <g transform="translate(446.79 -2.6413)" rigging:deck="fore" rigging:rail="atMastFront" rigging:side="port">
        <use transform="matrix(.76693 -.64173 -.64173 -.76693 -297.01 433.75)" xlink:href="#cleat"/>
      </g>
      <g transform="rotate(-34.407 594.6 75.75)" rigging:deck="fore" rigging:rail="atMastFront" rigging:side="center">
        <use transform="rotate(35.279 468.56 68.433)" xlink:href="#cleat"/>
      </g>
      <g transform="matrix(1 0 0 -1 446.79 148.15)" rigging:deck="fore" rigging:rail="atMastFront" rigging:side="starboard">
        <use transform="matrix(.76693 -.64173 -.64173 -.76693 -297.01 433.75)" xlink:href="#cleat"/>
      </g>
      <g transform="translate(.17561)" rigging:deck="fore" rigging:isAcross="true" rigging:rail="behindMastRail" rigging:side="port">
        <use transform="translate(-16.181 122.15)" xlink:href="#pin"/>
        <use transform="translate(-16.181 113.05)" xlink:href="#pin"/>
        <use transform="translate(-16.181 94.303)" xlink:href="#pin"/>
      </g>
      <g transform="matrix(1 0 0 -1 .17561 145.51)" rigging:deck="fore" rigging:isAcross="true" rigging:rail="behindMastRail" rigging:side="starboard">
        <use transform="translate(-16.181 122.15)" xlink:href="#pin"/>
        <use transform="translate(-16.181 113.05)" xlink:href="#pin"/>
        <use transform="translate(-16.181 94.303)" xlink:href="#pin"/>
      </g>
      <g transform="matrix(1.6149 -.58991 1.1798 .80747 -408.62 335.41)" rigging:deck="fore" rigging:rail="backPillars" rigging:side="port">
        <use transform="rotate(216.58 574.43 28.158)" xlink:href="#cleat"/>
      </g>
      <g transform="rotate(-37.954 558.99 98.502)" rigging:deck="fore" rigging:rail="backPillars" rigging:side="starboard">
        <use transform="rotate(37.993 427.07 18.637)" xlink:href="#cleat"/>
      </g>
      <g transform="translate(-7.2256 -5.4374)" rigging:deck="fore" rigging:isAcross="true" rigging:rail="backRail" rigging:side="port">
        <use transform="translate(-55.34 117.45)" xlink:href="#pin"/>
        <use transform="translate(-55.34 106.54)" xlink:href="#pin"/>
        <use transform="translate(-55.34 98.995)" xlink:href="#pin"/>
      </g>
      <g transform="matrix(1 0 0 -1 -7.2256 150.94)" rigging:deck="fore" rigging:isAcross="true" rigging:rail="backRail" rigging:side="starboard">
        <use transform="translate(-55.34 117.45)" xlink:href="#pin"/>
        <use transform="translate(-55.34 106.54)" xlink:href="#pin"/>
        <use transform="translate(-55.34 98.995)" xlink:href="#pin"/>
      </g>
      <g rigging:deck="main" rigging:rail="bulwark" rigging:side="port">
        <use transform="matrix(.95074 0 0 .95074 -169.34 4.3414)" xlink:href="#cleat"/>
        <use transform="rotate(.9 2554.8 -1639.3)" xlink:href="#kevel"/>
        <use transform="matrix(-.01972 1.022 -.73281 -.029126 493.15 -396.81)" xlink:href="#lcleat"/>
        <use transform="matrix(.95039 .048001 -.048001 .95039 -92.271 -21.679)" xlink:href="#cleat"/>
        <use transform="rotate(3.7685 921.3 469.44)" xlink:href="#kevel"/>
      </g>
      <g transform="matrix(1 0 0 -1 0 145.51)" rigging:deck="main" rigging:rail="bulwark" rigging:side="starboard">
        <use transform="matrix(.95074 0 0 .95074 -169.34 4.3414)" xlink:href="#cleat"/>
        <use transform="rotate(.9 2554.8 -1639.3)" xlink:href="#kevel"/>
        <use transform="matrix(-.01972 1.022 -.73281 -.029126 493.15 -396.81)" xlink:href="#lcleat"/>
        <use transform="matrix(.95039 .048001 -.048001 .95039 -92.271 -21.679)" xlink:href="#cleat"/>
        <use transform="rotate(3.7685 921.3 469.44)" xlink:href="#kevel"/>
      </g>
      <g transform="translate(.39986 -4.5002)" rigging:deck="main" rigging:rail="frontPillars" rigging:side="port">
        <use transform="translate(-203.38 46.215)" xlink:href="#cleat"/>
      </g>
      <g transform="matrix(1 0 0 -1 .39986 150.01)" rigging:deck="main" rigging:rail="frontPillars" rigging:side="starboard">
        <use transform="translate(-203.38 46.215)" xlink:href="#cleat"/>
      </g>
      <g transform="translate(-10.636 4.6)" rigging:deck="main" rigging:rail="onDeckFront" rigging:side="port">
        <use transform="translate(-208.11 53.358)" xlink:href="#cleat"/>
      </g>
      <g transform="matrix(1 0 0 -1 -10.636 140.91)" rigging:deck="main" rigging:rail="onDeckFront" rigging:side="starboard">
        <use transform="translate(-208.11 53.358)" xlink:href="#cleat"/>
      </g>
      <g transform="rotate(90 350.45 71.529)" rigging:deck="main" rigging:rail="atMastFront" rigging:side="center">
        <use transform="rotate(90 426.55 -76.111)" xlink:href="#cleat"/>
      </g>
      <g transform="translate(7.6 -4.3997)" rigging:deck="main" rigging:rail="sideMastRail" rigging:side="port">
        <use transform="translate(-264.97 98.845)" xlink:href="#pin"/>
        <use transform="translate(-254.97 98.845)" xlink:href="#pin"/>
        <use transform="translate(-244.87 98.845)" xlink:href="#pin"/>
        <use transform="translate(-234.67 98.845)" xlink:href="#pin"/>
        <use transform="translate(-224.67 98.845)" xlink:href="#pin"/>
        <use transform="translate(-214.57 98.845)" xlink:href="#pin"/>
      </g>
      <g transform="matrix(1 0 0 -1 7.6 149.91)" rigging:deck="main" rigging:rail="sideMastRail" rigging:side="starboard">
        <use transform="translate(-264.97 98.845)" xlink:href="#pin"/>
        <use transform="translate(-254.97 98.845)" xlink:href="#pin"/>
        <use transform="translate(-244.87 98.845)" xlink:href="#pin"/>
        <use transform="translate(-234.67 98.845)" xlink:href="#pin"/>
        <use transform="translate(-224.67 98.845)" xlink:href="#pin"/>
        <use transform="translate(-214.57 98.845)" xlink:href="#pin"/>
      </g>
      <g transform="translate(7.6003 -4.2999)" rigging:deck="main" rigging:rail="backFists" rigging:side="port">
        <use transform="translate(.10571 .14837)" xlink:href="#fist"/>
      </g>
      <g transform="matrix(1 0 0 -1 7.6003 149.81)" rigging:deck="main" rigging:rail="backFists" rigging:side="starboard">
        <use transform="translate(.10571 .14837)" xlink:href="#fist"/>
      </g>
      <g transform="translate(7.5003 -.80013)" rigging:deck="main" rigging:isAcross="true" rigging:rail="behindMastRail" rigging:side="port">
        <use transform="translate(-274.32 123)" xlink:href="#pin"/>
        <use transform="translate(-274.32 114.25)" xlink:href="#pin"/>
        <use transform="translate(-274.32 105.41)" xlink:href="#pin"/>
      </g>
      <g transform="matrix(1 0 0 -1 7.5003 146.31)" rigging:deck="main" rigging:isAcross="true" rigging:rail="behindMastRail" rigging:side="starboard">
        <use transform="translate(-274.32 123)" xlink:href="#pin"/>
        <use transform="translate(-274.32 114.25)" xlink:href="#pin"/>
        <use transform="translate(-274.32 105.41)" xlink:href="#pin"/>
      </g>
      <g transform="rotate(-2.2774 278.92 10.612)" rigging:deck="main" rigging:rail="sideRail" rigging:side="port">
        <use transform="translate(-279.9 65.206)" xlink:href="#pin"/>
        <use transform="translate(-271.65 65.18)" xlink:href="#pin"/>
        <use transform="translate(-262.99 65.267)" xlink:href="#pin"/>
        <use transform="translate(-254.81 65.203)" xlink:href="#pin"/>
        <use transform="translate(-246.52 65.148)" xlink:href="#pin"/>
        <use transform="translate(-238.3 65.152)" xlink:href="#pin"/>
      </g>
      <g transform="matrix(.99921 .039738 .039738 -.99921 -.20138 134.41)" rigging:deck="main" rigging:rail="sideRail" rigging:side="starboard">
        <use transform="translate(-279.9 65.206)" xlink:href="#pin"/>
        <use transform="translate(-271.65 65.18)" xlink:href="#pin"/>
        <use transform="translate(-262.99 65.267)" xlink:href="#pin"/>
        <use transform="translate(-254.81 65.203)" xlink:href="#pin"/>
        <use transform="translate(-246.52 65.148)" xlink:href="#pin"/>
        <use transform="translate(-238.3 65.152)" xlink:href="#pin"/>
      </g>
      <g transform="rotate(.2 349.3 -2298.3)" rigging:deck="main" rigging:rail="aboveRail" rigging:side="port">
        <use transform="rotate(-2.2866 590.16 6858.6)" xlink:href="#cleat"/>
      </g>
      <g transform="matrix(.99999 -.0034906 -.0034906 -.99999 -8.0205 146.74)" rigging:deck="main" rigging:rail="aboveRail" rigging:side="starboard">
        <use transform="rotate(-2.2866 590.16 6858.6)" xlink:href="#cleat"/>
      </g>
      <g rigging:deck="stern" rigging:rail="bulwark" rigging:side="port">
        <use transform="rotate(-30.64 159.92 547.65)" xlink:href="#lcleat"/>
        <use transform="matrix(.8798 -.086775 .086775 .8798 -374 67.391)" xlink:href="#cleat"/>
        <use transform="rotate(-4.8377 225.62 -1651.1)" xlink:href="#xcleat"/>
        <use transform="rotate(-5.0377 210.39 -1799.7)" xlink:href="#xcleat"/>
        <use transform="rotate(-4.1732 -116.35 2967.6)" xlink:href="#kevel"/>
      </g>
      <g transform="matrix(1 0 0 -1 0 145.77)" rigging:deck="stern" rigging:rail="bulwark" rigging:side="starboard">
        <use transform="rotate(-30.64 159.35 547.49)" xlink:href="#lcleat"/>
        <use transform="rotate(-4.8377 225.62 -1651.1)" xlink:href="#xcleat"/>
        <use transform="rotate(-5.0377 210.39 -1799.7)" xlink:href="#xcleat"/>
        <use transform="rotate(-4.1732 -116.35 2967.6)" xlink:href="#kevel"/>
      </g>
      <g transform="translate(-48.824 -385.82)" rigging:deck="stern" rigging:rail="atFront" rigging:side="center">
        <use transform="translate(-380.09 105.44)" xlink:href="#knot"/>
      </g>
      <g transform="translate(-48.824 -357.82)" rigging:deck="stern" rigging:rail="aboveLadder" rigging:side="starboard">
        <use transform="translate(-380.09 105.44)" xlink:href="#knot"/>
      </g>
      <g transform="rotate(-1 69.433 1381.3)" rigging:deck="stern" rigging:rail="sideRail" rigging:side="port">
        <use transform="translate(-399.22 71.258)" xlink:href="#pin"/>
        <use transform="translate(-392.69 70.722)" xlink:href="#pin"/>
        <use transform="translate(-385.97 70.177)" xlink:href="#pin"/>
        <use transform="translate(-379.48 69.612)" xlink:href="#pin"/>
      </g>
      <g transform="matrix(.99985 .017452 .017452 -.99985 -24.097 144.08)" rigging:deck="stern" rigging:rail="sideRail" rigging:side="starboard">
        <use transform="translate(-399.22 71.258)" xlink:href="#pin"/>
        <use transform="translate(-392.69 70.722)" xlink:href="#pin"/>
        <use transform="translate(-385.97 70.177)" xlink:href="#pin"/>
        <use transform="translate(-379.48 69.612)" xlink:href="#pin"/>
      </g>
      <g transform="rotate(-.7 172.95 2205.1)" rigging:deck="stern" rigging:rail="shroudsRail" rigging:side="port">
        <use transform="translate(-450.79 67.13)" xlink:href="#pin"/>
        <use transform="translate(-442.03 66.186)" xlink:href="#pin"/>
        <use transform="translate(-433.11 65.221)" xlink:href="#pin"/>
        <use transform="translate(-424.26 64.275)" xlink:href="#pin"/>
        <use transform="translate(-416.19 63.519)" xlink:href="#pin"/>
      </g>
      <g transform="matrix(.99993 .012217 .012217 -.99993 -26.927 143.23)" rigging:deck="stern" rigging:rail="shroudsRail" rigging:side="starboard">
        <use transform="translate(-450.79 67.13)" xlink:href="#pin"/>
        <use transform="translate(-442.03 66.186)" xlink:href="#pin"/>
        <use transform="translate(-488.24 -38.578)" xlink:href="#pinhole"/>
        <use transform="translate(-424.26 64.275)" xlink:href="#pin"/>
        <use transform="translate(-416.19 63.519)" xlink:href="#pin"/>
      </g>
      <g transform="translate(5.8397 -2.6413)" rigging:deck="stern" rigging:rail="atMast" rigging:side="port">
        <use transform="rotate(219.92 358.84 115.16)" xlink:href="#cleat"/>
        <use transform="matrix(.76693 -.64173 -.64173 -.76693 -297.01 433.75)" xlink:href="#cleat"/>
      </g>
      <g transform="matrix(1 0 0 -1 5.8397 148.15)" rigging:deck="stern" rigging:rail="atMast" rigging:side="starboard">
        <use transform="rotate(219.92 358.84 115.16)" xlink:href="#cleat"/>
        <use transform="matrix(.76693 -.64173 -.64173 -.76693 -297.01 433.75)" xlink:href="#cleat"/>
      </g>
      <g transform="translate(.49669)" rigging:deck="stern" rigging:rail="poopBulwark" rigging:side="port">
        <use transform="matrix(1 0 0 -1 -617.33 173.19)" xlink:href="#tackle"/>
        <use transform="rotate(81.139 17.895 15.233)" xlink:href="#xcleat"/>
        <use transform="matrix(.87815 -.10212 .10212 .87815 -449.57 85.412)" xlink:href="#cleat"/>
      </g>
      <g transform="matrix(1 0 0 -1 .49669 145.57)" rigging:deck="stern" rigging:rail="poopBulwark" rigging:side="starboard">
        <use transform="matrix(1 0 0 -1 -617.33 173.19)" xlink:href="#tackle"/>
        <use transform="rotate(81.139 17.895 15.233)" xlink:href="#xcleat"/>
        <use transform="matrix(.87815 -.10212 .10212 .87815 -461.99 90.755)" xlink:href="#cleat"/>
        <use transform="matrix(.87815 -.10212 .10212 .87815 -449.57 85.412)" xlink:href="#cleat"/>
      </g>
      <g transform="rotate(-44.188 53.027 59.232)" rigging:deck="stern" rigging:ignoreDeck="true" rigging:rail="poopFlagstaff" rigging:side="port">
        <use transform="translate(-554.65 41.288)" xlink:href="#cleat"/>
      </g>
      <g transform="matrix(.71706 .69702 .69702 -.71706 -26.282 91.786)" rigging:deck="stern" rigging:ignoreDeck="true" rigging:rail="poopFlagstaff" rigging:side="starboard">
        <use transform="translate(-554.65 41.288)" xlink:href="#cleat"/>
      </g>
    </g>
  </g>
</svg>
