<svg xmlns:rdf="http://www.w3.org/1999/02/22-rdf-syntax-ns#" xmlns="http://www.w3.org/2000/svg" height="20.6mm" viewBox="0 0 675.19794 72.862009" width="191mm" version="1.1" xmlns:rigging="https://github.com/jolaf/rigging" xmlns:cc="http://creativecommons.org/ns#" xmlns:dc="http://purl.org/dc/elements/1.1/">
 <g id="layer3" transform="translate(-36.9 -368)">
  <path style="stroke:#4e1d00;stroke-width:1px;fill:none" d="m37 398c223-36 523-46 675 5"/>
  <path style="stroke:#4e1d00;stroke-width:1px;fill:none" d="m306 371 0.253 33.1c2.44 1.31 4.88 1.26 7.32-0.126v-33.3"/>
  <path style="stroke:#4e1d00;stroke-width:1px;fill:none" d="m279 440-0.126-68.2"/>
  <path style="stroke:#4e1d00;stroke-width:1px;fill:none" d="m279 393c11.5-8.99 11.3-15.1 12.4-21.5"/>
  <path style="stroke:#4e1d00;stroke-width:1px;fill:none" d="m279 399c16-5.95 25.1-19.2 26.5-28.1"/>
  <path style="stroke:#4e1d00;stroke-width:1px;fill:none" d="m279 403c12.6-3.07 19.7-7.14 26.8-13.9"/>
  <path style="stroke:#4e1d00;stroke-width:1px;fill:none" d="m279 405c11.7 2.01 20.1-0.133 26.9-4.42"/>
  <path style="stroke:#4e1d00;stroke-width:1px;fill:none" d="m138 440v-56"/>
  <path style="stroke:#4e1d00;stroke-width:1px;fill:none" d="m145 383v18.8c-0.387 1.29-0.968 1.22-1.52 1.39l-4.92 0.0631"/>
  <g transform="translate(-.804 .573)">
   <path d="m148 440 0.0631-4.93h-8.4v4.93" style="stroke:#4e1d00;stroke-width:1px;fill:none"/>
   <path d="m149 440-0.0316-19h3l-0.0316 19" style="stroke:#4e1d00;stroke-width:1px;fill:none"/>
  </g>
 </g>
 <g id="layer4" transform="translate(-36.9 -368)">
  <rect style="stroke:#4e1d00;stroke-linecap:round;stroke-miterlimit:0;stroke-width:.88;fill:none" transform="matrix(1 -.00173 .00208 1 0 0)" height="5.62" width="57" y="387" x="578"/>
  <circle r="1.07" style="fill-rule:evenodd;stroke:#4e1d00;stroke-miterlimit:2.9;stroke-width:.266;fill:#4e1d00" cx="678" cy="406"/>
  <circle cx="678" cy="414" r="1.07" style="fill-rule:evenodd;stroke:#4e1d00;stroke-miterlimit:2.9;stroke-width:.266;fill:#4e1d00"/>
  <circle r="1.07" style="fill-rule:evenodd;stroke:#4e1d00;stroke-miterlimit:2.9;stroke-width:.266;fill:#4e1d00" cx="678" cy="421"/>
  <circle cx="678" cy="429" r="1.07" style="fill-rule:evenodd;stroke:#4e1d00;stroke-miterlimit:2.9;stroke-width:.266;fill:#4e1d00"/>
  <circle r="1.07" style="fill-rule:evenodd;stroke:#4e1d00;stroke-miterlimit:2.9;stroke-width:.266;fill:#4e1d00" cx="678" cy="437"/>
  <rect style="stroke:#4e1d00;stroke-miterlimit:0;stroke-width:.88;fill:none" height="8.11" width="109" y="393" x="565"/>
  <circle cx="571" cy="398" r="1.07" style="fill-rule:evenodd;stroke:#4e1d00;stroke-miterlimit:2.9;stroke-width:.266;fill:#4e1d00"/>
  <circle r="1.07" style="fill-rule:evenodd;stroke:#4e1d00;stroke-miterlimit:2.9;stroke-width:.266;fill:#4e1d00" cx="582" cy="398"/>
  <circle cx="594" cy="398" r="1.07" style="fill-rule:evenodd;stroke:#4e1d00;stroke-miterlimit:2.9;stroke-width:.266;fill:#4e1d00"/>
  <circle r="1.07" style="fill-rule:evenodd;stroke:#4e1d00;stroke-miterlimit:2.9;stroke-width:.266;fill:#4e1d00" cx="605" cy="398"/>
  <circle cx="616" cy="398" r="1.07" style="fill-rule:evenodd;stroke:#4e1d00;stroke-miterlimit:2.9;stroke-width:.266;fill:#4e1d00"/>
  <circle r="1.07" style="fill-rule:evenodd;stroke:#4e1d00;stroke-miterlimit:2.9;stroke-width:.266;fill:#4e1d00" cx="627" cy="398"/>
  <circle cx="638" cy="398" r="1.07" style="fill-rule:evenodd;stroke:#4e1d00;stroke-miterlimit:2.9;stroke-width:.266;fill:#4e1d00"/>
  <circle r="1.07" style="fill-rule:evenodd;stroke:#4e1d00;stroke-miterlimit:2.9;stroke-width:.266;fill:#4e1d00" cx="650" cy="398"/>
  <g rigging:deck="fore" rigging:side="port" rigging:rail="shrouds">
   <circle r="1.07" style="fill-rule:evenodd;stroke:#4e1d00;stroke-miterlimit:2.9;stroke-width:.266;fill:#4e1d00" cx="585" cy="389"/>
   <circle cx="596" cy="389" r="1.07" style="fill-rule:evenodd;stroke:#4e1d00;stroke-miterlimit:2.9;stroke-width:.266;fill:#4e1d00"/>
   <circle r="1.07" style="fill-rule:evenodd;stroke:#4e1d00;stroke-miterlimit:2.9;stroke-width:.266;fill:#4e1d00" cx="607" cy="389"/>
   <circle cx="619" cy="389" r="1.07" style="fill-rule:evenodd;stroke:#4e1d00;stroke-miterlimit:2.9;stroke-width:.266;fill:#4e1d00"/>
   <circle r="1.07" style="fill-rule:evenodd;stroke:#4e1d00;stroke-miterlimit:2.9;stroke-width:.266;fill:#4e1d00" cx="630" cy="389"/>
  </g>
  <ellipse style="stroke-linejoin:round;fill-rule:evenodd;stroke:#4e1d00;stroke-linecap:round;stroke-width:.88;fill:#4e1d00" rx="1.13" ry="4.74" transform="rotate(41.1)" cy="-89.3" cx="753"/>
  <path style="fill-rule:evenodd;stroke-width:0;fill:#4e1d00" transform="rotate(90)" d="m440-626a1.62 4.74 0 0 1 -1.4 -2.37 1.62 4.74 0 0 1 0 -4.74 1.62 4.74 0 0 1 1.4 -2.37v4.74z"/>
  <path style="fill-rule:evenodd;stroke:#4e1d00;stroke-miterlimit:0;stroke-width:.962;fill:#fff" transform="scale(1,-1)" d="m630-440a14.7 14.7 0 0 1 -7.35 12.7 14.7 14.7 0 0 1 -14.7 0 14.7 14.7 0 0 1 -7.35 -12.7"/>
  <path style="stroke:#4e1d00;stroke-miterlimit:0;stroke-width:.88;fill:none" d="m641 440v-24.6h6.65v24.6"/>
  <path d="m583 440v-33.6h8.05v33.6" style="stroke:#4e1d00;stroke-miterlimit:0;stroke-width:.88;fill:none"/>
  <circle r="1.07" style="fill-rule:evenodd;stroke:#4e1d00;stroke-miterlimit:2.9;stroke-width:.266;fill:#4e1d00" cx="586" cy="437"/>
  <circle r="1.07" style="fill-rule:evenodd;stroke:#4e1d00;stroke-miterlimit:2.9;stroke-width:.266;fill:#4e1d00" cx="586" cy="429"/>
  <rect style="fill-rule:evenodd;stroke:#4e1d00;stroke-miterlimit:0;stroke-width:.937;fill:#4e1d00" height="8.01" width="8.01" y="415" x="582"/>
  <circle cx="586" cy="410" r="1.07" style="fill-rule:evenodd;stroke:#4e1d00;stroke-miterlimit:2.9;stroke-width:.266;fill:#4e1d00"/>
  <rect style="fill-rule:evenodd;stroke:#4e1d00;stroke-miterlimit:0;stroke-width:.937;fill:#4e1d00" height="8.01" width="8.01" y="420" x="640"/>
  <path style="stroke:#4e1d00;stroke-miterlimit:0;stroke-width:.882;fill:none" d="m543 431v-23.1h8.16v23.2"/>
  <circle r="1.07" style="fill-rule:evenodd;stroke:#4e1d00;stroke-miterlimit:2.9;stroke-width:.266;fill:#4e1d00" cx="547" cy="413"/>
  <path style="stroke-linejoin:round;stroke:#4e1d00;stroke-miterlimit:0;stroke-width:.88;fill:none" d="m551 431a22.2 22.2 0 0 1 1.98 9.15"/>
  <path style="stroke-linejoin:round;stroke:#4e1d00;stroke-miterlimit:0;stroke-width:.88;fill:none" d="m543 431a22.2 22.2 0 0 1 1.98 9.15"/>
  <circle cx="547" cy="420" r="1.07" style="fill-rule:evenodd;stroke:#4e1d00;stroke-miterlimit:2.9;stroke-width:.266;fill:#4e1d00"/>
  <circle r="1.07" style="fill-rule:evenodd;stroke:#4e1d00;stroke-miterlimit:2.9;stroke-width:.266;fill:#4e1d00" cx="547" cy="428"/>
  <ellipse style="stroke-linejoin:round;fill-rule:evenodd;stroke:#4e1d00;stroke-linecap:round;stroke-width:.88;fill:#4e1d00" rx="1.13" ry="4.74" cy="429" cx="685"/>
  <ellipse style="stroke-linejoin:round;fill-rule:evenodd;stroke:#4e1d00;stroke-linecap:round;stroke-width:.88;fill:#4e1d00" rx="1.13" ry="4.74" transform="rotate(90)" cy="-592" cx="419"/>
  <path style="stroke:#4e1d00;stroke-miterlimit:0;stroke-width:.88;fill:none" d="m674 440 0.0893-47 8.04 2.12v44.9"/>
 </g>
 <g id="layer6" transform="translate(-36.9 -368)">
  <g transform="translate(.536 -3.04)">
   <path d="m511 395 6.34-12.7-0.312-0.938 0.268-0.982 9.73 0.134-0.0893 1.03-3.26 2.63-11.1 14.6-1.61 0.67" style="stroke-linejoin:round;stroke:#4e1d00;stroke-linecap:round;stroke-width:.88;fill:none"/>
   <path style="stroke-linejoin:round;stroke:#4e1d00;stroke-linecap:round;stroke-width:.88;fill:none" d="m510 395-6.34-12.7 0.312-0.938-0.268-0.982-9.73 0.134 0.0893 1.03 3.26 2.63 11.1 14.6 1.61 0.67"/>
  </g>
  <g transform="translate(-67 -7.68)">
   <path style="stroke-linejoin:round;stroke:#4e1d00;stroke-linecap:round;stroke-width:.88;fill:none" d="m511 395 6.34-12.7-0.312-0.938 0.268-0.982 9.73 0.134-0.0893 1.03-3.26 2.63-11.1 14.6-1.61 0.67"/>
   <path d="m510 395-6.34-12.7 0.312-0.938-0.268-0.982-9.73 0.134 0.0893 1.03 3.26 2.63 11.1 14.6 1.61 0.67" style="stroke-linejoin:round;stroke:#4e1d00;stroke-linecap:round;stroke-width:.88;fill:none"/>
  </g>
  <rect style="stroke-linejoin:round;stroke:#4e1d00;stroke-linecap:round;stroke-width:.88;fill:none" rx="2.4" height="9.61" width="18.1" y="378" x="467"/>
  <path style="fill-rule:evenodd;stroke:#4e1d00;stroke-miterlimit:0;stroke-width:.962;fill:#fff" transform="scale(1,-1)" d="m385-440a14.7 14.7 0 0 1 -7.35 12.7 14.7 14.7 0 0 1 -14.7 0 14.7 14.7 0 0 1 -7.35 -12.7"/>
  <rect style="stroke:#4e1d00;stroke-miterlimit:0;stroke-width:.777;fill:none" height="8.21" width="84.4" y="408" x="324"/>
  <rect style="fill-rule:evenodd;stroke:#4e1d00;stroke-miterlimit:0;stroke-width:.88;fill:#4e1d00" height="8.11" width="8.11" y="408" x="324"/>
  <circle cx="338" cy="412" r="1.07" style="fill-rule:evenodd;stroke:#4e1d00;stroke-miterlimit:2.9;stroke-width:.266;fill:#4e1d00"/>
  <ellipse style="stroke-linejoin:round;fill-rule:evenodd;stroke:#4e1d00;stroke-linecap:round;stroke-width:.88;fill:#4e1d00" rx="1.13" ry="4.74" transform="rotate(90)" cy="-409" cx="413"/>
  <circle r="1.07" style="fill-rule:evenodd;stroke:#4e1d00;stroke-miterlimit:2.9;stroke-width:.266;fill:#4e1d00" cx="349" cy="412"/>
  <circle cx="360" cy="412" r="1.07" style="fill-rule:evenodd;stroke:#4e1d00;stroke-miterlimit:2.9;stroke-width:.266;fill:#4e1d00"/>
  <circle r="1.07" style="fill-rule:evenodd;stroke:#4e1d00;stroke-miterlimit:2.9;stroke-width:.266;fill:#4e1d00" cx="372" cy="412"/>
  <circle cx="383" cy="412" r="1.07" style="fill-rule:evenodd;stroke:#4e1d00;stroke-miterlimit:2.9;stroke-width:.266;fill:#4e1d00"/>
  <circle r="1.07" style="fill-rule:evenodd;stroke:#4e1d00;stroke-miterlimit:2.9;stroke-width:.266;fill:#4e1d00" cx="394" cy="412"/>
  <rect style="fill-rule:evenodd;stroke:#4e1d00;stroke-miterlimit:0;stroke-width:.88;fill:#4e1d00" height="8.11" width="8.11" y="408" x="400"/>
  <ellipse style="stroke-linejoin:round;fill-rule:evenodd;stroke:#4e1d00;stroke-linecap:round;stroke-width:.88;fill:#4e1d00" rx="1.13" ry="4.74" transform="rotate(90)" cy="-404" cx="420"/>
  <path style="stroke-linejoin:round;fill-rule:evenodd;stroke:#4e1d00;stroke-linecap:round;stroke-width:.2;fill:#4e1d00" d="m387 440a1.13 4.74 0 0 1 1.13 -4.74 1.13 4.74 0 0 1 1.13 4.74h-1.13z"/>
  <path style="stroke-linejoin:round;fill-rule:evenodd;stroke:#4e1d00;stroke-linecap:round;stroke-width:.2;fill:#4e1d00" d="m352 440a1.13 4.74 0 0 1 1.13 -4.74 1.13 4.74 0 0 1 1.13 4.74h-1.13z"/>
  <ellipse style="stroke-linejoin:round;fill-rule:evenodd;stroke:#4e1d00;stroke-linecap:round;stroke-width:.88;fill:#4e1d00" rx="1.13" ry="4.74" transform="rotate(90)" cy="-339" cx="373"/>
  <rect style="stroke:#4e1d00;stroke-miterlimit:0;stroke-width:.777;fill:none" height="6.51" width="68.2" y="376" x="318"/>
  <circle r="1.07" style="fill-rule:evenodd;stroke:#4e1d00;stroke-miterlimit:2.9;stroke-width:.266;fill:#4e1d00" cx="324" cy="379"/>
  <circle cx="335" cy="379" r="1.07" style="fill-rule:evenodd;stroke:#4e1d00;stroke-miterlimit:2.9;stroke-width:.266;fill:#4e1d00"/>
  <circle r="1.07" style="fill-rule:evenodd;stroke:#4e1d00;stroke-miterlimit:2.9;stroke-width:.266;fill:#4e1d00" cx="346" cy="379"/>
  <circle cx="358" cy="379" r="1.07" style="fill-rule:evenodd;stroke:#4e1d00;stroke-miterlimit:2.9;stroke-width:.266;fill:#4e1d00"/>
  <circle r="1.07" style="fill-rule:evenodd;stroke:#4e1d00;stroke-miterlimit:2.9;stroke-width:.266;fill:#4e1d00" cx="369" cy="379"/>
  <circle cx="380" cy="379" r="1.07" style="fill-rule:evenodd;stroke:#4e1d00;stroke-miterlimit:2.9;stroke-width:.266;fill:#4e1d00"/>
  <path style="stroke:#4e1d00;stroke-miterlimit:0;stroke-width:.860;fill:none" d="m324 440v-32h8.07v32"/>
  <circle r="1.07" style="fill-rule:evenodd;stroke:#4e1d00;stroke-miterlimit:2.9;stroke-width:.266;fill:#4e1d00" cx="328" cy="437"/>
  <circle cx="328" cy="429" r="1.07" style="fill-rule:evenodd;stroke:#4e1d00;stroke-miterlimit:2.9;stroke-width:.266;fill:#4e1d00"/>
  <circle r="1.07" style="fill-rule:evenodd;stroke:#4e1d00;stroke-miterlimit:2.9;stroke-width:.266;fill:#4e1d00" cx="328" cy="421"/>
  <path d="m283 440v-25.1h8.17v25.2" style="stroke:#4e1d00;stroke-miterlimit:0;stroke-width:.767;fill:none"/>
  <g transform="translate(.316 -26.4)">
   <g transform="translate(-.0316 .0631)">
    <circle r=".426" style="fill-rule:evenodd;stroke-miterlimit:0;stroke-width:0;fill:#4e1d00" cx="284" cy="461"/>
    <circle cx="285" cy="461" r=".426" style="fill-rule:evenodd;stroke-miterlimit:0;stroke-width:0;fill:#4e1d00"/>
    <circle r=".426" style="fill-rule:evenodd;stroke-miterlimit:0;stroke-width:0;fill:#4e1d00" cx="287" cy="461"/>
    <circle cx="288" cy="461" r=".426" style="fill-rule:evenodd;stroke-miterlimit:0;stroke-width:0;fill:#4e1d00"/>
    <circle r=".426" style="fill-rule:evenodd;stroke-miterlimit:0;stroke-width:0;fill:#4e1d00" cx="289" cy="461"/>
    <path style="stroke:#4e1d00;stroke-width:1px;fill:none" d="m299 455c-3.99 0.489-15.5 2.28-17.3 3.47-0.874 0.684-1.28 1.46-0.505 2.27 0.295 0.218 1.52 0.126 1.52 0.126"/>
   </g>
   <path d="m291 461s1.79-1.09 2.59-1.77c0.499-0.424 1.09-0.913 1.36-1.42 0.27-0.508 0.393-0.888 0.316-1.45-0.0772-0.564-0.8-1.72-1.44-2.15-0.638-0.427-1.58-0.414-2.19-0.158-0.612 0.256-0.566 0.713-0.758 1.36-0.191 0.644 0.115 1.99 0.284 2.71 0.169 0.722 0.251 1.04 0.6 1.61 0.349 0.567 0.988 1.2 1.55 1.67 0.559 0.469 1.77 1.14 1.77 1.14" style="stroke:#4e1d00;stroke-width:1px;fill:none"/>
  </g>
 </g>
 <g id="layer7" transform="translate(-36.9 -368)">
  <circle style="stroke:#4e1d00;stroke-miterlimit:0;stroke-width:.88;fill:none" d="m 174.01785,440.39792 a 12.142858,12.142858 0 0 1 12.14286,-12.14286 12.142858,12.142858 0 0 1 12.14285,12.14286"/>
  <g transform="matrix(.767 0 0 .767 -127 87.4)">
   <path d="m511 395 6.34-12.7-0.312-0.938 0.268-0.982 9.73 0.134-0.0893 1.03-3.26 2.63-11.1 14.6-1.61 0.67" style="stroke-linejoin:round;stroke:#4e1d00;stroke-linecap:round;stroke-width:.88;fill:none"/>
   <path style="stroke-linejoin:round;stroke:#4e1d00;stroke-linecap:round;stroke-width:.88;fill:none" d="m510 395-6.34-12.7 0.312-0.938-0.268-0.982-9.73 0.134 0.0893 1.03 3.26 2.63 11.1 14.6 1.61 0.67"/>
  </g>
  <rect style="stroke:#4e1d00;stroke-miterlimit:0;stroke-width:.787;fill:none" transform="rotate(-4.73)" height="6.15" width="27.6" y="397" x="167"/>
  <circle style="fill-rule:evenodd;stroke:#4e1d00;stroke-miterlimit:0;stroke-width:.882;fill:#4e1d00" cx="171" transform="rotate(-4.73)" cy="400" r=".759"/>
  <circle style="fill-rule:evenodd;stroke:#4e1d00;stroke-miterlimit:0;stroke-width:.882;fill:#4e1d00" transform="rotate(-4.73)" cy="400" cx="178" r=".759"/>
  <circle style="fill-rule:evenodd;stroke:#4e1d00;stroke-miterlimit:0;stroke-width:.882;fill:#4e1d00" cx="184" transform="rotate(-4.73)" cy="400" r=".759"/>
  <circle style="fill-rule:evenodd;stroke:#4e1d00;stroke-miterlimit:0;stroke-width:.882;fill:#4e1d00" transform="rotate(-4.73)" cy="400" cx="191" r=".759"/>
  <rect style="stroke:#4e1d00;stroke-miterlimit:0;stroke-width:.88;fill:none" transform="rotate(-8.28)" height="6.06" width="35" y="406" x="90.1"/>
  <circle style="fill-rule:evenodd;stroke:#4e1d00;stroke-miterlimit:0;stroke-width:.882;fill:#4e1d00" transform="rotate(-8.28)" cy="410" cx="94" r=".759"/>
  <circle style="fill-rule:evenodd;stroke:#4e1d00;stroke-miterlimit:0;stroke-width:.882;fill:#4e1d00" cx="101" transform="rotate(-8.28)" cy="410" r=".759"/>
  <circle style="fill-rule:evenodd;stroke:#4e1d00;stroke-miterlimit:0;stroke-width:.882;fill:#4e1d00" transform="rotate(-8.28)" cy="410" cx="107" r=".759"/>
  <circle style="fill-rule:evenodd;stroke:#4e1d00;stroke-miterlimit:0;stroke-width:.882;fill:#4e1d00" cx="114" transform="rotate(-8.28)" cy="410" r=".759"/>
  <circle style="fill-rule:evenodd;stroke:#4e1d00;stroke-miterlimit:0;stroke-width:.882;fill:#4e1d00" transform="rotate(-8.28)" cy="410" cx="120" r=".759"/>
  <g transform="matrix(.762 -.0838 .0838 .762 -300 144)">
   <path style="stroke-linejoin:round;stroke:#4e1d00;stroke-linecap:round;stroke-width:.88;fill:none" d="m511 395 6.34-12.7-0.312-0.938 0.268-0.982 9.73 0.134-0.0893 1.03-3.26 2.63-11.1 14.6-1.61 0.67"/>
   <path d="m510 395-6.34-12.7 0.312-0.938-0.268-0.982-9.73 0.134 0.0893 1.03 3.26 2.63 11.1 14.6 1.61 0.67" style="stroke-linejoin:round;stroke:#4e1d00;stroke-linecap:round;stroke-width:.88;fill:none"/>
  </g>
  <g transform="matrix(.756 -.130 .130 .756 -357 176)">
   <path d="m511 395 6.34-12.7-0.312-0.938 0.268-0.982 9.73 0.134-0.0893 1.03-3.26 2.63-11.1 14.6-1.61 0.67" style="stroke-linejoin:round;stroke:#4e1d00;stroke-linecap:round;stroke-width:.88;fill:none"/>
   <path style="stroke-linejoin:round;stroke:#4e1d00;stroke-linecap:round;stroke-width:.88;fill:none" d="m510 395-6.34-12.7 0.312-0.938-0.268-0.982-9.73 0.134 0.0893 1.03 3.26 2.63 11.1 14.6 1.61 0.67"/>
  </g>
  <path style="fill-rule:evenodd;stroke:#4e1d00;stroke-miterlimit:0.3;stroke-width:.88;fill:#4e1d00" d="m73 440a4.55 4.55 0 0 1 4.55 -4.55 4.55 4.55 0 0 1 4.55 4.55"/>
  <ellipse style="stroke:#4e1d00;stroke-miterlimit:0.3;stroke-width:.88;fill:none" rx="4.1" ry="2.56" transform="rotate(-18.7)" cy="420" cx="-74.1"/>
  <path d="m62 412 3.98 9.22" style="stroke:#4e1d00;stroke-width:1px;fill:none"/>
  <path style="stroke:#4e1d00;stroke-width:1px;fill:none" d="m59.6 413 3.98 9.22"/>
  <ellipse style="fill-rule:evenodd;stroke:#4e1d00;stroke-miterlimit:0;stroke-width:.436;fill:#4e1d00" rx=".518" ry="1.75" transform="rotate(31.8)" cy="327" cx="298"/>
  <ellipse style="fill-rule:evenodd;stroke:#4e1d00;stroke-miterlimit:0;stroke-width:.88;fill:#4e1d00" rx="1.04" transform="matrix(.0385 .999 -.999 .0385 0 0)" ry="3.53" cy="-83.7" cx="396"/>
  <ellipse style="fill-rule:evenodd;stroke:#4e1d00;stroke-miterlimit:0;stroke-width:.88;fill:#4e1d00" rx="1.04" ry="3.53" transform="matrix(.988 .153 -.153 .988 0 0)" cy="389" cx="252"/>
  <ellipse style="fill-rule:evenodd;stroke:#4e1d00;stroke-miterlimit:0;stroke-width:.88;fill:#4e1d00" rx="1.04" transform="matrix(.807 -.590 .590 .807 0 0)" ry="3.53" cy="448" cx="-111"/>
  <rect style="stroke:#4e1d00;stroke-miterlimit:0.3;stroke-width:.88;fill:none" rx="1.3" height="9.1" width="4.76" y="383" x="244"/>
  <rect style="stroke:#4e1d00;stroke-miterlimit:0.3;stroke-width:.88;fill:none" rx="1.3" height="9.1" width="4.76" y="383" x="234"/>
  <rect style="stroke:#4e1d00;stroke-miterlimit:0.3;stroke-width:.88;fill:none" rx="1.3" transform="rotate(-53.1)" height="9.1" width="4.76" y="387" x="-202"/>
 </g>
</svg>
